<svg xmlns="http://www.w3.org/2000/svg" xmlns:xlink="http://www.w3.org/1999/xlink" width="500" zoomAndPan="magnify" viewBox="0 0 375 374.999991" height="500" preserveAspectRatio="xMidYMid meet" version="1.0"><path fill="#e75050" d="M 86.652344 83.242188 C 83.902344 71.40625 89.039062 56.328125 93.511719 45.832031 C 94.222656 44.199219 95.101562 42.664062 96.152344 41.226562 C 95.507812 41.125 94.875 40.992188 94.246094 40.828125 C 93.613281 40.664062 92.996094 40.472656 92.382812 40.246094 C 91.773438 40.023438 91.175781 39.769531 90.589844 39.488281 C 90.003906 39.207031 89.429688 38.898438 88.875 38.558594 C 88.320312 38.222656 87.78125 37.859375 87.257812 37.46875 C 86.738281 37.082031 86.234375 36.667969 85.753906 36.230469 C 85.273438 35.792969 84.816406 35.332031 84.378906 34.847656 C 83.941406 34.367188 83.527344 33.863281 83.140625 33.34375 C 82.753906 32.820312 82.390625 32.28125 82.054688 31.722656 C 81.71875 31.164062 81.410156 30.59375 81.128906 30.007812 C 80.847656 29.417969 80.597656 28.820312 80.375 28.207031 C 80.152344 27.597656 79.960938 26.976562 79.796875 26.347656 C 79.632812 25.714844 79.503906 25.078125 79.402344 24.4375 C 79.300781 23.792969 79.230469 23.148438 79.191406 22.496094 C 79.152344 21.847656 79.144531 21.199219 79.171875 20.546875 C 79.195312 19.898438 79.25 19.25 79.335938 18.605469 C 79.421875 17.960938 79.542969 17.320312 79.691406 16.6875 C 79.839844 16.054688 80.015625 15.429688 80.226562 14.8125 C 80.4375 14.195312 80.675781 13.589844 80.941406 12.996094 C 81.210938 12.40625 81.503906 11.824219 81.828125 11.261719 C 82.152344 10.695312 82.5 10.148438 82.878906 9.617188 C 83.253906 9.085938 83.65625 8.578125 84.082031 8.085938 C 84.507812 7.59375 84.957031 7.121094 85.425781 6.675781 C 85.898438 6.226562 86.390625 5.800781 86.902344 5.398438 C 87.414062 5 87.945312 4.625 88.496094 4.273438 C 89.042969 3.925781 89.609375 3.601562 90.1875 3.308594 C 90.769531 3.011719 91.359375 2.746094 91.964844 2.511719 C 92.570312 2.273438 93.1875 2.066406 93.8125 1.886719 C 94.4375 1.710938 95.070312 1.5625 95.710938 1.445312 C 96.351562 1.328125 96.996094 1.242188 97.644531 1.1875 C 98.292969 1.136719 98.941406 1.113281 99.589844 1.121094 C 100.242188 1.128906 100.890625 1.167969 101.535156 1.242188 C 102.183594 1.3125 102.824219 1.414062 103.460938 1.546875 C 104.097656 1.679688 104.726562 1.84375 105.347656 2.039062 C 105.96875 2.234375 106.578125 2.457031 107.175781 2.710938 C 107.777344 2.964844 108.363281 3.246094 108.933594 3.554688 C 109.503906 3.867188 110.0625 4.203125 110.601562 4.566406 C 111.140625 4.929688 111.660156 5.320312 112.160156 5.734375 C 112.664062 6.148438 113.144531 6.585938 113.601562 7.046875 C 114.0625 7.507812 114.5 7.988281 114.910156 8.492188 C 115.324219 8.996094 115.710938 9.515625 116.074219 10.058594 C 116.4375 10.597656 116.773438 11.15625 117.082031 11.726562 C 117.390625 12.300781 117.667969 12.886719 117.921875 13.488281 C 118.171875 14.085938 118.394531 14.699219 118.585938 15.320312 C 118.78125 15.941406 118.941406 16.570312 119.074219 17.207031 C 119.207031 17.84375 119.308594 18.488281 119.378906 19.132812 C 119.445312 19.78125 119.484375 20.429688 119.492188 21.082031 C 119.5 21.730469 119.476562 22.382812 119.417969 23.03125 C 119.320312 24.007812 119.15625 24.972656 118.925781 25.929688 C 124.179688 24.414062 129.535156 23.882812 134.984375 24.332031 C 153.890625 26 165.292969 40.054688 168.8125 44.953125 L 169.710938 46.21875 C 180.253906 62.492188 173.140625 105.933594 142.210938 114.574219 C 117.859375 121.328125 91.238281 102.796875 86.652344 83.242188 Z M 86.652344 83.242188 " fill-opacity="1" fill-rule="nonzero"/><path fill="#7f371d" d="M 108.03125 48.492188 L 165.183594 48.328125 C 174.753906 79.132812 168.429688 105.421875 153.796875 112.703125 C 150.882812 114.171875 145.050781 116.152344 135.460938 113.75 C 135.460938 119.253906 135.460938 124.941406 135.589844 130.519531 L 158.730469 136.773438 C 169.125 141.652344 172.335938 147.78125 173.398438 150.917969 C 180.144531 168.96875 159.132812 195.773438 140.027344 198.378906 C 119.457031 201.257812 92.210938 177.132812 85.40625 135.527344 C 89.230469 133.640625 93.226562 132.246094 97.390625 131.34375 C 101.558594 130.441406 105.769531 130.054688 110.03125 130.1875 C 111.773438 124.976562 112.703125 119.628906 112.820312 114.136719 C 112.875 109.339844 112.316406 104.621094 111.144531 99.972656 C 109.972656 95.324219 108.226562 90.902344 105.90625 86.707031 C 105.257812 86.683594 104.621094 86.589844 103.992188 86.4375 C 103.359375 86.28125 102.753906 86.0625 102.167969 85.785156 C 101.582031 85.503906 101.03125 85.171875 100.515625 84.78125 C 99.996094 84.390625 99.523438 83.949219 99.09375 83.464844 C 98.667969 82.976562 98.289062 82.453125 97.96875 81.890625 C 97.648438 81.328125 97.382812 80.738281 97.179688 80.121094 C 96.980469 79.503906 96.839844 78.875 96.765625 78.230469 C 96.691406 77.585938 96.679688 76.941406 96.734375 76.292969 C 96.792969 75.648438 96.914062 75.015625 97.097656 74.390625 C 97.28125 73.769531 97.527344 73.171875 97.832031 72.601562 C 98.136719 72.027344 98.496094 71.492188 98.910156 70.992188 C 99.324219 70.496094 99.785156 70.042969 100.289062 69.636719 C 100.796875 69.230469 101.335938 68.878906 101.914062 68.582031 C 102.492188 68.289062 103.089844 68.050781 103.714844 67.878906 C 104.339844 67.703125 104.976562 67.59375 105.621094 67.550781 C 106.269531 67.503906 106.914062 67.523438 107.554688 67.609375 C 107.738281 61.242188 107.886719 54.878906 108.03125 48.492188 Z M 108.03125 48.492188 " fill-opacity="1" fill-rule="nonzero"/><path fill="#e75050" d="M 172.5 66.492188 C 169.554688 65.964844 166.765625 65 164.125 63.589844 C 161.488281 62.179688 159.132812 60.394531 157.0625 58.234375 C 154.78125 55.769531 153.007812 52.980469 151.746094 49.871094 C 149.363281 51.992188 146.859375 53.957031 144.226562 55.757812 C 133.480469 63.097656 127.320312 63.097656 120.847656 69.261719 C 117.253906 72.679688 114.628906 76.730469 112.964844 81.40625 C 111.371094 79.40625 101.726562 66.949219 104.695312 50.402344 C 105.390625 46.683594 106.609375 43.152344 108.359375 39.800781 C 110.109375 36.449219 112.308594 33.425781 114.964844 30.734375 C 116.546875 29.863281 118.183594 29.101562 119.875 28.457031 C 121.5625 27.8125 123.289062 27.285156 125.050781 26.878906 C 126.8125 26.472656 128.59375 26.1875 130.394531 26.027344 C 132.195312 25.867188 133.996094 25.828125 135.804688 25.917969 C 137.609375 26.007812 139.398438 26.21875 141.175781 26.554688 C 142.953125 26.890625 144.699219 27.347656 146.410156 27.925781 C 148.125 28.503906 149.789062 29.199219 151.410156 30.003906 C 153.027344 30.8125 154.582031 31.730469 156.070312 32.753906 C 173.03125 44.640625 172.554688 65.113281 172.5 66.492188 Z M 172.5 66.492188 " fill-opacity="1" fill-rule="nonzero"/><path fill="#e75050" d="M 140.007812 84.632812 L 140.375 84.632812 C 140.578125 84.585938 140.765625 84.5 140.933594 84.378906 C 141.105469 84.257812 141.246094 84.113281 141.363281 83.9375 C 141.476562 83.761719 141.554688 83.574219 141.597656 83.371094 C 141.640625 83.164062 141.644531 82.960938 141.609375 82.753906 C 141.574219 82.550781 141.503906 82.359375 141.398438 82.179688 C 141.289062 82 141.152344 81.847656 140.988281 81.71875 C 140.820312 81.59375 140.636719 81.5 140.4375 81.445312 C 140.238281 81.386719 140.035156 81.367188 139.828125 81.386719 L 139.441406 81.386719 C 139.226562 81.425781 139.027344 81.503906 138.84375 81.621094 C 138.65625 81.738281 138.503906 81.886719 138.378906 82.0625 C 138.25 82.242188 138.164062 82.4375 138.117188 82.652344 C 138.070312 82.867188 138.066406 83.082031 138.101562 83.296875 C 138.140625 83.511719 138.21875 83.710938 138.335938 83.894531 C 138.453125 84.078125 138.601562 84.234375 138.777344 84.359375 C 138.957031 84.484375 139.152344 84.574219 139.367188 84.621094 C 139.582031 84.667969 139.792969 84.671875 140.007812 84.632812 Z M 149.78125 100.960938 C 150.003906 100.851562 150.160156 100.679688 150.25 100.445312 C 150.335938 100.214844 150.332031 99.984375 150.242188 99.75 C 150.136719 99.523438 149.964844 99.363281 149.730469 99.273438 C 149.496094 99.183594 149.261719 99.191406 149.03125 99.292969 C 148.675781 99.464844 148.304688 99.59375 147.921875 99.6875 C 147.539062 99.78125 147.152344 99.832031 146.757812 99.847656 C 146.363281 99.859375 145.972656 99.832031 145.585938 99.761719 C 145.195312 99.691406 144.820312 99.582031 144.453125 99.4375 C 144.089844 99.289062 143.742188 99.105469 143.414062 98.886719 C 143.085938 98.664062 142.785156 98.414062 142.511719 98.132812 C 142.234375 97.851562 141.992188 97.542969 141.78125 97.210938 C 141.570312 96.875 141.394531 96.523438 141.257812 96.15625 C 141.148438 95.929688 140.976562 95.773438 140.742188 95.683594 C 140.507812 95.59375 140.277344 95.597656 140.046875 95.699219 C 139.824219 95.8125 139.667969 95.988281 139.578125 96.222656 C 139.492188 96.457031 139.492188 96.691406 139.589844 96.925781 C 139.777344 97.40625 140.011719 97.859375 140.292969 98.289062 C 140.578125 98.71875 140.898438 99.113281 141.261719 99.476562 C 141.625 99.839844 142.023438 100.164062 142.453125 100.445312 C 142.878906 100.726562 143.335938 100.964844 143.8125 101.152344 C 144.289062 101.339844 144.78125 101.480469 145.289062 101.570312 C 145.792969 101.65625 146.304688 101.691406 146.816406 101.675781 C 147.332031 101.660156 147.835938 101.589844 148.335938 101.472656 C 148.835938 101.351562 149.316406 101.183594 149.78125 100.960938 Z M 125.671875 111.96875 C 126.21875 112.691406 126.917969 113.21875 127.761719 113.546875 C 128.835938 114.035156 129.945312 114.402344 131.097656 114.648438 C 132.230469 114.898438 133.371094 115.042969 134.527344 115.089844 C 134.839844 115.105469 135.152344 115.105469 135.460938 115.089844 C 135.460938 114.628906 135.460938 114.207031 135.460938 113.730469 C 136.011719 113.878906 136.542969 113.988281 137.058594 114.097656 C 136.160156 113.675781 135.222656 113.253906 134.417969 112.867188 C 132.25 111.777344 129.976562 110.988281 127.597656 110.503906 C 127.191406 110.457031 126.789062 110.457031 126.386719 110.503906 L 125.984375 110.59375 C 125.898438 110.605469 125.824219 110.644531 125.761719 110.703125 C 125.605469 110.886719 125.515625 111.097656 125.5 111.339844 C 125.480469 111.582031 125.539062 111.804688 125.671875 112.007812 Z M 140.632812 72.65625 C 140.886719 72.683594 141.113281 72.617188 141.308594 72.457031 C 141.507812 72.296875 141.621094 72.089844 141.648438 71.839844 C 141.675781 71.585938 141.613281 71.359375 141.453125 71.160156 C 141.292969 70.960938 141.085938 70.847656 140.835938 70.820312 C 138.875 70.5625 136.945312 70.691406 135.039062 71.207031 C 133.132812 71.722656 131.394531 72.582031 129.832031 73.792969 C 128.898438 74.527344 130.054688 75.9375 130.988281 75.222656 C 132.363281 74.175781 133.886719 73.433594 135.558594 72.996094 C 137.230469 72.558594 138.921875 72.457031 140.632812 72.691406 Z M 158.75 84.929688 L 159.113281 84.929688 C 159.316406 84.878906 159.503906 84.792969 159.675781 84.671875 C 159.84375 84.554688 159.988281 84.40625 160.101562 84.230469 C 160.214844 84.058594 160.292969 83.867188 160.335938 83.664062 C 160.378906 83.460938 160.382812 83.253906 160.347656 83.046875 C 160.3125 82.84375 160.242188 82.652344 160.136719 82.472656 C 160.027344 82.292969 159.890625 82.140625 159.726562 82.015625 C 159.558594 81.886719 159.378906 81.796875 159.175781 81.738281 C 158.976562 81.679688 158.773438 81.660156 158.566406 81.679688 L 158.199219 81.679688 C 157.980469 81.71875 157.777344 81.792969 157.589844 81.910156 C 157.40625 82.027344 157.246094 82.175781 157.117188 82.355469 C 156.992188 82.535156 156.902344 82.734375 156.851562 82.949219 C 156.804688 83.164062 156.796875 83.378906 156.832031 83.597656 C 156.871094 83.816406 156.945312 84.019531 157.0625 84.207031 C 157.179688 84.390625 157.328125 84.550781 157.507812 84.679688 C 157.6875 84.804688 157.882812 84.894531 158.097656 84.945312 C 158.3125 84.996094 158.53125 85 158.75 84.964844 Z M 147.875 91.367188 C 147.859375 91.617188 147.929688 91.839844 148.089844 92.035156 C 148.246094 92.230469 148.453125 92.34375 148.699219 92.375 C 149.128906 92.441406 149.546875 92.40625 149.957031 92.261719 C 150.367188 92.117188 150.71875 91.886719 151.011719 91.570312 C 151.648438 90.910156 151.992188 90.121094 152.039062 89.203125 C 152.121094 88.285156 152.121094 87.367188 152.039062 86.449219 L 151.746094 83.570312 C 151.726562 83.453125 151.6875 83.339844 151.621094 83.238281 C 151.558594 83.132812 151.476562 83.046875 151.378906 82.980469 C 151.28125 82.910156 151.171875 82.863281 151.054688 82.839844 C 150.9375 82.8125 150.816406 82.8125 150.699219 82.835938 C 150.453125 82.878906 150.253906 83 150.109375 83.207031 C 149.960938 83.410156 149.910156 83.636719 149.949219 83.882812 C 150.058594 85.40625 150.242188 86.945312 150.242188 88.46875 C 150.277344 88.8125 150.277344 89.152344 150.242188 89.496094 C 150.191406 89.734375 150.09375 89.945312 149.949219 90.136719 C 149.835938 90.320312 149.683594 90.453125 149.488281 90.542969 C 149.34375 90.542969 149.488281 90.542969 149.230469 90.632812 L 149.03125 90.632812 C 148.902344 90.601562 148.773438 90.597656 148.644531 90.617188 C 148.511719 90.640625 148.390625 90.6875 148.28125 90.761719 C 148.171875 90.835938 148.082031 90.929688 148.011719 91.039062 C 147.941406 91.152344 147.894531 91.273438 147.875 91.40625 Z M 154.769531 71.554688 C 154.8125 71.800781 154.933594 72 155.136719 72.152344 C 155.339844 72.300781 155.566406 72.359375 155.816406 72.324219 C 156.996094 72.03125 158.1875 72.003906 159.382812 72.238281 C 160.578125 72.472656 161.667969 72.949219 162.652344 73.664062 C 162.859375 73.8125 163.085938 73.867188 163.335938 73.828125 C 163.585938 73.789062 163.785156 73.664062 163.933594 73.460938 C 164.085938 73.257812 164.140625 73.027344 164.101562 72.777344 C 164.0625 72.527344 163.941406 72.328125 163.734375 72.179688 C 162.554688 71.316406 161.25 70.742188 159.820312 70.449219 C 158.386719 70.15625 156.960938 70.175781 155.539062 70.507812 C 155.285156 70.550781 155.078125 70.675781 154.929688 70.890625 C 154.777344 71.101562 154.726562 71.335938 154.769531 71.589844 Z M 154.769531 71.554688 " fill-opacity="1" fill-rule="nonzero"/><path fill="#7f371d" d="M 326.183594 189.976562 C 328.476562 188.011719 330.144531 185.535156 331.082031 186.015625 C 332.015625 186.492188 331.191406 190.140625 331.082031 190.472656 C 330.539062 192.558594 329.539062 194.394531 328.074219 195.976562 C 329.984375 194.726562 331.816406 193.375 333.574219 191.921875 C 337.828125 188.363281 339.828125 185.59375 340.652344 186.070312 C 341.476562 186.546875 340.285156 190.140625 340.175781 190.492188 C 338.84375 193.808594 336.875 196.695312 334.269531 199.148438 C 336.605469 197.554688 338.839844 195.824219 340.964844 193.957031 C 344.0625 191.40625 345.382812 190.289062 345.914062 190.691406 C 346.445312 191.097656 345.585938 193.699219 345.402344 194.105469 C 344.464844 195.941406 343.289062 197.609375 341.878906 199.109375 C 340.464844 200.609375 338.871094 201.882812 337.09375 202.929688 C 340.351562 201.535156 343.273438 199.625 345.859375 197.203125 C 346.792969 196.378906 347.820312 195.371094 348.371094 195.664062 C 348.921875 195.957031 348.699219 198.433594 348.058594 200.105469 C 345.839844 205.992188 338.726562 208.394531 338.984375 208.910156 C 339.238281 209.421875 345.253906 206.414062 346.007812 207.480469 C 346.757812 208.542969 343.53125 211.570312 342.339844 212.652344 C 333.023438 221.457031 314.121094 220.320312 313.003906 220.265625 C 286.214844 218.707031 272.773438 240.117188 204.824219 259.34375 C 195.839844 261.875 183.777344 264.972656 176.203125 258.609375 C 175.539062 258 174.921875 257.351562 174.351562 256.65625 C 173.78125 255.960938 173.261719 255.230469 172.792969 254.464844 C 172.324219 253.699219 171.910156 252.902344 171.550781 252.074219 C 171.195312 251.25 170.898438 250.402344 170.660156 249.535156 C 170.421875 248.667969 170.246094 247.789062 170.132812 246.898438 C 170.015625 246.007812 169.964844 245.109375 169.976562 244.210938 C 169.988281 243.3125 170.0625 242.417969 170.199219 241.53125 C 170.335938 240.640625 170.535156 239.765625 170.792969 238.90625 C 173.507812 230.632812 182.363281 226.703125 189.863281 223.878906 C 231.0625 208.359375 278 207.496094 297.085938 200.34375 C 300.925781 198.683594 304.839844 197.246094 308.839844 196.03125 C 317.988281 193.296875 321.75 193.8125 326.183594 189.976562 Z M 326.183594 189.976562 " fill-opacity="1" fill-rule="nonzero"/><path fill="#f3bd50" d="M 182.914062 344.980469 L 60.582031 343.734375 C 59.359375 289.734375 58.171875 235.742188 57.023438 181.757812 C 57.019531 178.136719 57.378906 174.554688 58.101562 171.007812 C 58.820312 167.460938 59.890625 164.023438 61.308594 160.695312 C 62.726562 157.363281 64.464844 154.210938 66.523438 151.234375 C 68.578125 148.253906 70.914062 145.515625 73.527344 143.011719 C 84.820312 132.003906 98.773438 129.234375 105.777344 128.335938 C 106.222656 130.878906 106.878906 133.367188 107.742188 135.800781 C 108.609375 138.238281 109.671875 140.582031 110.929688 142.835938 C 112.191406 145.089844 113.628906 147.226562 115.246094 149.238281 C 116.867188 151.25 118.640625 153.113281 120.574219 154.824219 C 124.882812 158.496094 133.628906 165.832031 144.152344 163.632812 C 145.527344 163.296875 146.859375 162.832031 148.144531 162.242188 C 149.429688 161.648438 150.644531 160.9375 151.792969 160.109375 C 152.9375 159.28125 153.996094 158.347656 154.960938 157.316406 C 155.929688 156.28125 156.789062 155.164062 157.539062 153.964844 C 163.039062 144.644531 158.785156 134.847656 158.34375 133.910156 C 163.597656 136.5 168.261719 139.902344 172.335938 144.113281 C 174.914062 146.65625 177.207031 149.433594 179.214844 152.449219 C 181.222656 155.464844 182.902344 158.652344 184.253906 162.015625 C 185.605469 165.375 186.601562 168.839844 187.242188 172.40625 C 187.878906 175.972656 188.148438 179.566406 188.046875 183.1875 Z M 182.914062 344.980469 " fill-opacity="1" fill-rule="nonzero"/><path fill="#f3bd50" d="M 164.027344 172.511719 C 164.9375 165.953125 164.914062 159.398438 163.957031 152.847656 C 163 146.296875 161.148438 140.007812 158.398438 133.984375 C 163.453125 135.394531 168.226562 137.457031 172.71875 140.167969 C 185.097656 147.5625 190.429688 157.578125 206.75 184.234375 C 212.890625 194.324219 218.226562 203.203125 222.574219 210.503906 L 192.082031 270.9375 L 137.808594 217.496094 C 142.191406 213.9375 160.234375 198.820312 164.027344 172.511719 Z M 164.027344 172.511719 " fill-opacity="1" fill-rule="nonzero"/><path fill="#807a27" d="M 59.589844 363.328125 C 57.160156 345.28125 57.242188 327.246094 59.828125 309.226562 C 64.457031 306.011719 68.816406 302.472656 72.910156 298.601562 C 77.003906 294.730469 80.78125 290.574219 84.25 286.132812 C 87.714844 281.691406 90.828125 277.015625 93.585938 272.101562 C 96.347656 267.191406 98.726562 262.097656 100.71875 256.828125 C 110.066406 231.144531 106.785156 209.128906 104.660156 194.875 C 103.085938 184.402344 100.46875 174.195312 96.808594 164.253906 C 93.152344 154.316406 88.523438 144.847656 82.933594 135.855469 C 85.246094 134.316406 87.691406 133.027344 90.265625 131.984375 C 92.839844 130.9375 95.492188 130.15625 98.222656 129.636719 C 108.292969 150.175781 115.0625 171.75 118.539062 194.363281 C 121.75 215.234375 122.007812 236.140625 119.308594 257.085938 L 174.316406 261.671875 C 177.976562 243.160156 179.414062 224.480469 178.625 205.625 C 177.589844 181.808594 173.066406 158.675781 165.054688 136.222656 C 168.832031 137.761719 172.382812 139.714844 175.710938 142.074219 C 179.035156 144.433594 182.046875 147.144531 184.746094 150.203125 C 188.128906 162.335938 190.449219 174.664062 191.707031 187.195312 C 192.964844 199.726562 193.144531 212.273438 192.246094 224.832031 C 190.101562 252.71875 183.226562 274.367188 190.558594 306.269531 C 192.785156 315.867188 195.988281 325.125 200.167969 334.046875 C 188.347656 343.191406 175.511719 350.566406 161.664062 356.171875 C 118.171875 373.601562 78.238281 367.527344 59.589844 363.328125 Z M 59.589844 363.328125 " fill-opacity="1" fill-rule="nonzero"/><path fill="#f3bd50" d="M 204.789062 374.8125 L 160.453125 359.417969 C 166.980469 338.46875 173.503906 317.511719 180.015625 296.546875 L 227.6875 310.179688 Z M 204.789062 374.8125 " fill-opacity="1" fill-rule="nonzero"/><path fill="#7f371d" d="M 155.410156 351.804688 C 152.089844 349.265625 148.917969 346.550781 145.894531 343.660156 C 130.511719 330.304688 86.820312 313.113281 53.613281 284.199219 C 47.5625 278.9375 40.652344 272.167969 40.980469 263.46875 C 41.039062 262.574219 41.160156 261.6875 41.34375 260.8125 C 41.527344 259.933594 41.769531 259.074219 42.074219 258.230469 C 42.378906 257.386719 42.742188 256.566406 43.160156 255.773438 C 43.578125 254.984375 44.050781 254.222656 44.574219 253.496094 C 45.101562 252.769531 45.671875 252.082031 46.296875 251.4375 C 46.917969 250.792969 47.582031 250.191406 48.285156 249.640625 C 48.992188 249.085938 49.730469 248.585938 50.507812 248.136719 C 51.285156 247.6875 52.085938 247.296875 52.917969 246.957031 C 62.230469 243.621094 72.460938 250.738281 80 256.261719 C 136.949219 297.960938 142.082031 322.726562 167.734375 330.617188 C 168.871094 330.964844 186.984375 336.488281 192.632812 348.007812 C 193.328125 349.421875 195.105469 353.511719 194.226562 354.117188 C 193.347656 354.722656 188.523438 349.953125 188.140625 350.320312 C 187.753906 350.6875 193.640625 355.4375 193.640625 361.75 C 193.640625 363.582031 193.183594 365.894531 192.394531 366.003906 C 191.605469 366.117188 191.164062 364.792969 190.558594 363.695312 C 188.96875 360.53125 186.898438 357.722656 184.34375 355.273438 C 185.648438 356.871094 186.699219 358.617188 187.5 360.519531 C 188.296875 362.421875 188.808594 364.394531 189.039062 366.445312 C 189.039062 366.886719 189.039062 369.621094 188.339844 369.820312 C 187.644531 370.023438 186.855469 368.5 184.839844 365.015625 C 183.488281 362.535156 182.003906 360.136719 180.382812 357.824219 C 181.90625 361.019531 182.699219 364.390625 182.765625 367.929688 C 182.765625 368.296875 182.65625 372.078125 181.667969 372.242188 C 180.675781 372.40625 179.832031 369.105469 177.082031 364.300781 C 175.96875 362.324219 174.746094 360.414062 173.417969 358.574219 C 174.234375 360.546875 174.539062 362.597656 174.332031 364.722656 C 174.332031 365.050781 173.894531 368.738281 172.757812 368.867188 C 171.621094 368.996094 170.921875 366.097656 169.546875 363.457031 C 166.6875 358.316406 162.984375 357.492188 155.410156 351.804688 Z M 155.410156 351.804688 " fill-opacity="1" fill-rule="nonzero"/><path fill="#f3bd50" d="M 95.914062 183.554688 C 89.277344 169.308594 82.632812 155.058594 75.984375 140.808594 C 65.570312 150.515625 25.726562 189.976562 27.066406 246.226562 C 27.394531 258.632812 29.59375 270.699219 33.664062 282.421875 L 98.296875 251.492188 Z M 95.914062 183.554688 " fill-opacity="1" fill-rule="nonzero"/><path fill="#e75050" d="M 175.578125 204.929688 C 175.835938 203.773438 177.597656 204.269531 177.414062 205.425781 C 176.910156 207.738281 176.027344 209.902344 174.769531 211.910156 C 173.507812 213.917969 171.945312 215.648438 170.078125 217.109375 C 169.898438 217.28125 169.683594 217.367188 169.4375 217.367188 C 169.191406 217.367188 168.976562 217.28125 168.796875 217.109375 C 168.613281 216.929688 168.523438 216.714844 168.523438 216.457031 C 168.523438 216.203125 168.613281 215.988281 168.796875 215.808594 C 170.527344 214.445312 171.976562 212.832031 173.140625 210.964844 C 174.308594 209.09375 175.121094 207.082031 175.578125 204.929688 Z M 73.488281 265.195312 L 83.941406 260.242188 C 85.472656 259.753906 86.824219 258.957031 87.992188 257.855469 C 88.347656 257.152344 88.5625 256.40625 88.632812 255.621094 C 88.699219 254.832031 88.621094 254.0625 88.394531 253.304688 C 87.625 245.625 86.84375 237.9375 86.050781 230.246094 L 84.675781 216.910156 C 84.5625 215.734375 82.730469 215.789062 82.839844 216.910156 C 83.792969 226.3125 84.757812 235.683594 85.738281 245.015625 C 85.957031 247.269531 86.195312 249.546875 86.433594 251.800781 C 86.542969 252.976562 86.726562 254.152344 86.78125 255.34375 C 86.835938 256.535156 86.34375 257.175781 85.222656 257.617188 C 81.023438 259.671875 76.753906 261.636719 72.519531 263.652344 C 71.4375 264.148438 72.425781 265.691406 73.488281 265.195312 Z M 122.8125 217.035156 C 122.988281 217.210938 123.203125 217.300781 123.453125 217.300781 C 123.703125 217.300781 123.917969 217.210938 124.09375 217.035156 C 125.761719 215.625 127.414062 214.191406 129.0625 212.761719 C 129.242188 212.582031 129.332031 212.367188 129.332031 212.109375 C 129.332031 211.855469 129.242188 211.640625 129.0625 211.460938 C 128.882812 211.28125 128.667969 211.191406 128.414062 211.191406 C 128.160156 211.191406 127.941406 211.28125 127.761719 211.460938 L 122.8125 215.753906 C 122.632812 215.929688 122.542969 216.144531 122.542969 216.394531 C 122.542969 216.648438 122.632812 216.859375 122.8125 217.035156 Z M 122.8125 217.035156 " fill-opacity="1" fill-rule="nonzero"/><path fill="#f3bd50" d="M 327.195312 196.105469 C 327.425781 196.550781 327.566406 197.023438 327.609375 197.527344 C 327.652344 198.027344 327.601562 198.519531 327.449219 199 C 327.296875 199.480469 327.058594 199.914062 326.738281 200.300781 C 326.414062 200.6875 326.027344 200.996094 325.582031 201.226562 C 325.136719 201.460938 324.660156 201.597656 324.160156 201.644531 C 323.65625 201.6875 323.167969 201.632812 322.6875 201.480469 C 322.207031 201.328125 321.773438 201.09375 321.386719 200.769531 C 321.003906 200.445312 320.695312 200.058594 320.460938 199.613281 C 320.230469 199.164062 320.089844 198.691406 320.046875 198.1875 C 320.003906 197.6875 320.058594 197.195312 320.210938 196.714844 C 320.359375 196.234375 320.597656 195.800781 320.921875 195.417969 C 321.246094 195.03125 321.632812 194.722656 322.078125 194.488281 C 322.523438 194.257812 323 194.121094 323.5 194.078125 C 324 194.03125 324.492188 194.085938 324.96875 194.238281 C 325.449219 194.390625 325.882812 194.625 326.265625 194.949219 C 326.652344 195.273438 326.960938 195.65625 327.195312 196.105469 Z M 320.667969 204.652344 C 320.21875 204.886719 319.835938 205.195312 319.511719 205.582031 C 319.1875 205.96875 318.953125 206.402344 318.800781 206.882812 C 318.652344 207.367188 318.597656 207.855469 318.644531 208.359375 C 318.6875 208.859375 318.828125 209.335938 319.0625 209.78125 C 319.296875 210.226562 319.605469 210.613281 319.992188 210.933594 C 320.378906 211.257812 320.8125 211.496094 321.292969 211.644531 C 321.773438 211.792969 322.265625 211.847656 322.769531 211.800781 C 323.269531 211.753906 323.742188 211.617188 324.1875 211.382812 C 324.636719 211.148438 325.019531 210.835938 325.339844 210.449219 C 325.664062 210.0625 325.898438 209.628906 326.046875 209.144531 C 326.199219 208.664062 326.25 208.171875 326.203125 207.671875 C 326.15625 207.167969 326.015625 206.695312 325.78125 206.25 C 325.550781 205.804688 325.242188 205.417969 324.855469 205.09375 C 324.46875 204.773438 324.035156 204.535156 323.554688 204.386719 C 323.074219 204.238281 322.585938 204.183594 322.085938 204.230469 C 321.585938 204.277344 321.109375 204.417969 320.667969 204.652344 Z M 332.292969 204.25 C 331.847656 204.484375 331.464844 204.796875 331.140625 205.183594 C 330.820312 205.570312 330.585938 206.003906 330.4375 206.484375 C 330.289062 206.964844 330.238281 207.457031 330.285156 207.957031 C 330.328125 208.457031 330.46875 208.933594 330.703125 209.378906 C 330.9375 209.824219 331.25 210.207031 331.636719 210.527344 C 332.023438 210.851562 332.457031 211.085938 332.9375 211.234375 C 333.417969 211.382812 333.90625 211.4375 334.410156 211.390625 C 334.910156 211.34375 335.382812 211.203125 335.828125 210.96875 C 336.273438 210.734375 336.65625 210.425781 336.980469 210.039062 C 337.300781 209.652344 337.535156 209.21875 337.6875 208.738281 C 337.835938 208.257812 337.886719 207.765625 337.84375 207.265625 C 337.796875 206.765625 337.660156 206.292969 337.425781 205.847656 C 337.195312 205.394531 336.886719 205.003906 336.503906 204.675781 C 336.117188 204.34375 335.6875 204.101562 335.203125 203.945312 C 334.722656 203.789062 334.230469 203.730469 333.726562 203.769531 C 333.21875 203.8125 332.742188 203.945312 332.292969 204.175781 Z M 332.292969 204.25 " fill-opacity="1" fill-rule="nonzero"/></svg>