<svg xmlns="http://www.w3.org/2000/svg" xmlns:xlink="http://www.w3.org/1999/xlink" width="500" zoomAndPan="magnify" viewBox="0 0 375 374.999991" height="500" preserveAspectRatio="xMidYMid meet" version="1.0"><defs><g/><clipPath id="f0f1160b7c"><path d="M 54.429688 54.214844 L 320.886719 54.214844 L 320.886719 321 L 54.429688 321 Z M 54.429688 54.214844 " clip-rule="nonzero"/></clipPath><clipPath id="b7e9a5028b"><path d="M 187.5 320.886719 C 151.972656 320.886719 118.519531 307.058594 93.414062 281.902344 C 68.257812 256.800781 54.429688 223.34375 54.429688 187.816406 C 54.429688 152.289062 68.257812 118.835938 93.414062 93.734375 C 118.519531 68.578125 151.972656 54.75 187.5 54.75 C 223.027344 54.75 256.480469 68.578125 281.585938 93.734375 C 306.742188 118.890625 320.570312 152.289062 320.570312 187.816406 C 320.570312 223.34375 306.742188 256.800781 281.585938 281.902344 C 256.480469 307.058594 223.027344 320.886719 187.5 320.886719 Z M 187.5 62.726562 C 154.101562 62.726562 122.667969 75.757812 99.054688 99.371094 C 75.4375 122.984375 62.410156 154.417969 62.410156 187.816406 C 62.410156 221.21875 75.4375 252.652344 99.054688 276.265625 C 122.667969 299.878906 154.101562 312.910156 187.5 312.910156 C 220.898438 312.910156 252.332031 299.878906 275.945312 276.265625 C 299.5625 252.652344 312.589844 221.21875 312.589844 187.816406 C 312.589844 154.417969 299.5625 122.984375 275.945312 99.371094 C 252.332031 75.757812 220.898438 62.726562 187.5 62.726562 Z M 187.5 62.726562 " clip-rule="nonzero"/></clipPath><clipPath id="d15fac357f"><path d="M 156 151 L 300.21875 151 L 300.21875 211.984375 L 156 211.984375 Z M 156 151 " clip-rule="nonzero"/></clipPath><clipPath id="d7b8c07e9b"><path d="M 74.570312 146 L 207 146 L 207 198 L 74.570312 198 Z M 74.570312 146 " clip-rule="nonzero"/></clipPath><clipPath id="23c1ab7d72"><path d="M 74.570312 184 L 136 184 L 136 191 L 74.570312 191 Z M 74.570312 184 " clip-rule="nonzero"/></clipPath><clipPath id="bc06c6ab6e"><path d="M 74.570312 195 L 118 195 L 118 200 L 74.570312 200 Z M 74.570312 195 " clip-rule="nonzero"/></clipPath><clipPath id="e03a54ad77"><path d="M 74.585938 192.53125 L 298 192.53125 L 298 302.316406 L 74.585938 302.316406 Z M 74.585938 192.53125 " clip-rule="nonzero"/></clipPath><clipPath id="67b20ef1d1"><path d="M 95.519531 214.476562 L 257.5 214.476562 L 257.5 302.316406 L 95.519531 302.316406 Z M 95.519531 214.476562 " clip-rule="nonzero"/></clipPath><clipPath id="15ceb508da"><path d="M 77 73.316406 L 300 73.316406 L 300 165 L 77 165 Z M 77 73.316406 " clip-rule="nonzero"/></clipPath><clipPath id="ec65b89d3a"><path d="M 27.8125 118.769531 L 33.789062 118.769531 L 33.789062 124.746094 L 27.8125 124.746094 Z M 27.8125 118.769531 " clip-rule="nonzero"/></clipPath><clipPath id="3959f71d79"><path d="M 30.800781 118.769531 C 29.148438 118.769531 27.8125 120.105469 27.8125 121.757812 C 27.8125 123.410156 29.148438 124.746094 30.800781 124.746094 C 32.453125 124.746094 33.789062 123.410156 33.789062 121.757812 C 33.789062 120.105469 32.453125 118.769531 30.800781 118.769531 " clip-rule="nonzero"/></clipPath><clipPath id="b18f55381b"><path d="M 341.210938 118.769531 L 347.1875 118.769531 L 347.1875 124.746094 L 341.210938 124.746094 Z M 341.210938 118.769531 " clip-rule="nonzero"/></clipPath><clipPath id="4d3e98cb33"><path d="M 344.199219 118.769531 C 342.546875 118.769531 341.210938 120.105469 341.210938 121.757812 C 341.210938 123.410156 342.546875 124.746094 344.199219 124.746094 C 345.851562 124.746094 347.1875 123.410156 347.1875 121.757812 C 347.1875 120.105469 345.851562 118.769531 344.199219 118.769531 " clip-rule="nonzero"/></clipPath><clipPath id="75de82f825"><path d="M 20.328125 144.382812 L 26.308594 144.382812 L 26.308594 150.363281 L 20.328125 150.363281 Z M 20.328125 144.382812 " clip-rule="nonzero"/></clipPath><clipPath id="8a330c8d5c"><path d="M 23.316406 144.382812 C 21.667969 144.382812 20.328125 145.722656 20.328125 147.375 C 20.328125 149.023438 21.667969 150.363281 23.316406 150.363281 C 24.96875 150.363281 26.308594 149.023438 26.308594 147.375 C 26.308594 145.722656 24.96875 144.382812 23.316406 144.382812 " clip-rule="nonzero"/></clipPath><clipPath id="b5a04bc3a4"><path d="M 348.691406 144.382812 L 354.671875 144.382812 L 354.671875 150.363281 L 348.691406 150.363281 Z M 348.691406 144.382812 " clip-rule="nonzero"/></clipPath><clipPath id="78e891c969"><path d="M 351.683594 144.382812 C 350.03125 144.382812 348.691406 145.722656 348.691406 147.375 C 348.691406 149.023438 350.03125 150.363281 351.683594 150.363281 C 353.332031 150.363281 354.671875 149.023438 354.671875 147.375 C 354.671875 145.722656 353.332031 144.382812 351.683594 144.382812 " clip-rule="nonzero"/></clipPath><clipPath id="fe0dd12622"><path d="M 15.84375 170.898438 L 21.824219 170.898438 L 21.824219 176.875 L 15.84375 176.875 Z M 15.84375 170.898438 " clip-rule="nonzero"/></clipPath><clipPath id="29d9d8c8c8"><path d="M 18.832031 170.898438 C 17.183594 170.898438 15.84375 172.234375 15.84375 173.886719 C 15.84375 175.539062 17.183594 176.875 18.832031 176.875 C 20.484375 176.875 21.824219 175.539062 21.824219 173.886719 C 21.824219 172.234375 20.484375 170.898438 18.832031 170.898438 " clip-rule="nonzero"/></clipPath><clipPath id="5b7b505287"><path d="M 353.175781 170.898438 L 359.15625 170.898438 L 359.15625 176.875 L 353.175781 176.875 Z M 353.175781 170.898438 " clip-rule="nonzero"/></clipPath><clipPath id="0cd0943398"><path d="M 356.167969 170.898438 C 354.515625 170.898438 353.175781 172.234375 353.175781 173.886719 C 353.175781 175.539062 354.515625 176.875 356.167969 176.875 C 357.816406 176.875 359.15625 175.539062 359.15625 173.886719 C 359.15625 172.234375 357.816406 170.898438 356.167969 170.898438 " clip-rule="nonzero"/></clipPath><clipPath id="b45fc72307"><path d="M 17.339844 198.757812 L 23.316406 198.757812 L 23.316406 204.738281 L 17.339844 204.738281 Z M 17.339844 198.757812 " clip-rule="nonzero"/></clipPath><clipPath id="c17c15a014"><path d="M 20.328125 198.757812 C 18.675781 198.757812 17.339844 200.097656 17.339844 201.75 C 17.339844 203.398438 18.675781 204.738281 20.328125 204.738281 C 21.980469 204.738281 23.316406 203.398438 23.316406 201.75 C 23.316406 200.097656 21.980469 198.757812 20.328125 198.757812 " clip-rule="nonzero"/></clipPath><clipPath id="a57304ae98"><path d="M 351.683594 198.757812 L 357.660156 198.757812 L 357.660156 204.738281 L 351.683594 204.738281 Z M 351.683594 198.757812 " clip-rule="nonzero"/></clipPath><clipPath id="00bd3be48c"><path d="M 354.671875 198.757812 C 353.019531 198.757812 351.683594 200.097656 351.683594 201.75 C 351.683594 203.398438 353.019531 204.738281 354.671875 204.738281 C 356.324219 204.738281 357.660156 203.398438 357.660156 201.75 C 357.660156 200.097656 356.324219 198.757812 354.671875 198.757812 " clip-rule="nonzero"/></clipPath></defs><g clip-path="url(#f0f1160b7c)"><g clip-path="url(#b7e9a5028b)"><path fill="#f7f1e5" d="M 54.429688 54.75 L 320.355469 54.75 L 320.355469 320.675781 L 54.429688 320.675781 Z M 54.429688 54.75 " fill-opacity="1" fill-rule="nonzero"/></g></g><path fill="#f7f1e5" d="M 257.484375 171.472656 L 237.808594 146.519531 L 195.429688 146.351562 L 215.902344 171.472656 L 257.484375 171.472656 " fill-opacity="1" fill-rule="nonzero"/><g clip-path="url(#d15fac357f)"><path fill="#f7f1e5" d="M 260.511719 172.253906 L 256.613281 173.59375 L 254.234375 187.371094 L 254.234375 173.277344 L 241.875 173.277344 L 241.875 181.679688 L 247.636719 181.679688 L 247.636719 183.261719 L 239.367188 183.261719 L 239.367188 173.277344 L 222.21875 173.277344 L 222.21875 181.679688 L 227.941406 181.679688 L 227.941406 183.261719 L 219.75 183.261719 L 219.75 173.277344 L 214.9375 173.277344 L 211.332031 170.300781 L 211.332031 191.953125 C 207.609375 192.40625 204.023438 192.925781 200.59375 193.507812 L 200.59375 174.523438 L 205.199219 174.523438 L 207.265625 182.445312 L 207.265625 171.582031 L 196.652344 171.582031 L 196.652344 194.210938 C 186.757812 196.054688 178.292969 198.285156 171.625 200.332031 C 166.566406 198.210938 161.449219 196.316406 156.242188 194.621094 C 156.710938 195.871094 156.914062 197.449219 157.003906 198.675781 C 159.898438 199.871094 162.605469 201.132812 165.160156 202.4375 C 162.027344 203.515625 159.566406 204.460938 157.859375 205.144531 C 158.808594 205.722656 159.832031 206.617188 160.648438 208.03125 C 161.390625 209.332031 161.691406 210.613281 161.726562 211.765625 C 198.21875 193.992188 239.796875 185.828125 300.214844 197.1875 C 300.214844 197.1875 296.289062 195.046875 284.398438 193.144531 C 287.964844 191.070312 289.0625 185.160156 284.796875 183.261719 C 284.796875 183.261719 286.429688 183.261719 287.769531 181.308594 C 289.105469 179.355469 286.226562 176.472656 286.226562 176.472656 C 286.226562 176.472656 287.769531 176.269531 288.402344 173.796875 C 289.015625 171.324219 283.867188 170.710938 283.867188 170.710938 C 283.867188 170.710938 287.675781 168.328125 286.132812 164.742188 C 284.589844 161.132812 279.335938 162.0625 279.335938 162.0625 C 279.335938 162.0625 280.78125 160.203125 279.335938 158.046875 C 277.902344 155.871094 275.023438 157.730469 275.023438 157.730469 C 275.023438 157.730469 276.363281 152.894531 271.511719 151.445312 C 266.679688 150.015625 263.707031 153.714844 263.707031 153.714844 C 263.707031 153.714844 263.800781 151.558594 260.921875 151.351562 C 258.042969 151.148438 258.042969 156.074219 258.042969 156.074219 C 258.042969 156.074219 255.980469 153.714844 253.714844 155.667969 C 251.464844 157.621094 252.691406 161.433594 252.691406 161.433594 L 260.511719 172.253906 " fill-opacity="1" fill-rule="nonzero"/></g><g clip-path="url(#d7b8c07e9b)"><path fill="#f7f1e5" d="M 172.855469 197.429688 C 175.140625 196.632812 177.445312 195.851562 179.746094 195.050781 C 179.746094 195.050781 179.390625 194.824219 178.671875 194.433594 L 178.671875 175.804688 L 178.765625 172.511719 L 194.386719 153.34375 L 206.09375 163.03125 L 193.589844 148.621094 L 174.589844 171.566406 L 173.375 170.300781 L 180.101562 161.601562 C 180.101562 161.601562 180.972656 159.589844 179.746094 158.402344 C 178.503906 157.210938 176.960938 158.511719 176.960938 158.511719 C 176.960938 158.511719 179.394531 156.503906 176.292969 155.054688 C 173.207031 153.601562 171.40625 156.710938 171.40625 156.710938 C 171.40625 156.710938 169.976562 149.644531 166.164062 151.148438 C 162.355469 152.636719 162.96875 157.210938 162.96875 157.210938 C 162.96875 157.210938 158.140625 155.371094 157.15625 158.511719 C 156.191406 161.636719 159.941406 164.574219 159.941406 164.574219 C 156.582031 163.527344 154.5 164.25 153.253906 166.132812 L 153.253906 163.550781 L 155.722656 162.214844 L 143.332031 146.351562 L 112.863281 146.351562 L 103.722656 159.496094 L 113.457031 148.75 L 114.558594 148.765625 L 109.035156 158.957031 L 118.15625 148.816406 L 119.664062 148.839844 L 114.179688 158.957031 L 123.238281 148.890625 L 125.175781 148.917969 L 119.734375 158.957031 L 128.722656 148.972656 L 130.800781 149 L 125.402344 158.957031 L 134.3125 149.054688 L 135.796875 149.074219 L 130.4375 158.957031 L 139.285156 149.125 L 140.769531 149.148438 L 131.085938 161.394531 L 102.734375 161.394531 L 102.941406 163.402344 L 130.308594 163.402344 L 130.308594 180.605469 C 120.753906 179.296875 111.589844 178.855469 103.5625 178.847656 L 103.535156 178.484375 L 103.535156 165.355469 C 103.535156 165.355469 101.566406 164.777344 100.953125 164.835938 C 100.320312 164.890625 101.566406 159.015625 95.695312 158.808594 C 89.804688 158.605469 92.683594 164.777344 92.683594 164.777344 C 92.683594 164.777344 87.015625 163.03125 85.511719 166.378906 C 84.007812 169.726562 88.578125 172.347656 88.578125 172.347656 C 88.578125 172.347656 84.082031 173.074219 85.511719 176.421875 C 86.234375 178.109375 87.203125 178.957031 87.984375 179.386719 C 79.945312 179.949219 74.996094 180.75 74.996094 180.75 C 111.988281 179.691406 152.808594 186.832031 172.855469 197.429688 " fill-opacity="1" fill-rule="nonzero"/></g><path fill="#f7f1e5" d="M 75.273438 202.304688 C 90.605469 202.527344 104.277344 203.4375 116.429688 205 C 116.355469 204.308594 116.335938 203.511719 116.410156 202.839844 C 102.996094 201.597656 89.265625 201.464844 75.273438 202.304688 " fill-opacity="1" fill-rule="nonzero"/><g clip-path="url(#23c1ab7d72)"><path fill="#f7f1e5" d="M 135.824219 189.191406 C 116.242188 185.160156 95.804688 183.375 74.679688 184.546875 C 96.640625 185.328125 115.796875 187.464844 131.683594 190.960938 C 132.628906 190.382812 134.097656 189.636719 135.824219 189.191406 " fill-opacity="1" fill-rule="nonzero"/></g><path fill="#f7f1e5" d="M 124.789062 192.523438 C 108.792969 189.730469 92.183594 188.726562 75.089844 189.230469 C 93.355469 190.085938 109.144531 191.910156 122.6875 194.605469 C 123.230469 193.972656 123.988281 193.152344 124.789062 192.523438 " fill-opacity="1" fill-rule="nonzero"/><g clip-path="url(#bc06c6ab6e)"><path fill="#f7f1e5" d="M 117.75 197.542969 C 103.792969 195.664062 89.46875 195.105469 74.8125 195.628906 C 90.640625 196.257812 104.632812 197.617188 116.949219 199.664062 C 117.191406 198.917969 117.433594 198.175781 117.75 197.542969 " fill-opacity="1" fill-rule="nonzero"/></g><path fill="#f7f1e5" d="M 242.007812 223.164062 C 242.898438 225.75 242.472656 228.019531 242.472656 228.019531 C 255.679688 224.449219 273.332031 222.050781 294.269531 222.421875 C 281.84375 219.222656 264.171875 218.5 242.007812 223.164062 " fill-opacity="1" fill-rule="nonzero"/><path fill="#f7f1e5" d="M 247.132812 232.613281 C 247.339844 233.410156 247.285156 233.949219 247.285156 233.949219 C 247.285156 233.949219 249.308594 234.472656 250.925781 235.734375 C 261.386719 233.167969 274.128906 231.328125 288.695312 230.921875 C 278.589844 228.78125 264.5625 228.6875 247.132812 232.613281 " fill-opacity="1" fill-rule="nonzero"/><path fill="#f7f1e5" d="M 293.84375 214.929688 C 279.835938 210.800781 259.195312 209.554688 232.980469 215.410156 C 233.589844 216.65625 233.757812 217.792969 233.757812 217.792969 C 233.757812 217.792969 236.433594 218.199219 238.699219 219.390625 C 252.226562 215.820312 271.085938 213.664062 293.84375 214.929688 " fill-opacity="1" fill-rule="nonzero"/><path fill="#f7f1e5" d="M 251.203125 253.121094 C 259.566406 251.207031 269.300781 249.867188 280.167969 249.53125 C 272.644531 247.765625 262.722656 247.394531 250.664062 249.550781 C 250.886719 250.554688 251.167969 251.96875 251.203125 253.121094 " fill-opacity="1" fill-rule="nonzero"/><path fill="#f7f1e5" d="M 252.507812 240.867188 C 252.261719 242.242188 251.855469 243.75 251.445312 245.035156 C 260.867188 242.449219 272.367188 240.570312 285.519531 240.160156 C 277.289062 238.226562 266.160156 237.96875 252.507812 240.867188 " fill-opacity="1" fill-rule="nonzero"/><g clip-path="url(#e03a54ad77)"><path fill="#f7f1e5" d="M 297.949219 203.382812 C 262.164062 192.015625 213.53125 193.917969 163.621094 216.859375 C 162.042969 216.414062 160.464844 215.980469 158.878906 215.566406 C 160.90625 211.941406 158.925781 208.820312 154.925781 209.292969 C 157.65625 206.710938 156.261719 203.398438 152.992188 204.050781 C 158.046875 197.636719 149.796875 192.019531 145.914062 196.054688 C 143.390625 192.296875 139.855469 193.691406 140.042969 196.054688 C 140.042969 196.054688 137.609375 192.054688 134.171875 193.0625 C 130.714844 194.082031 130.957031 196.371094 130.957031 196.371094 C 128.785156 191.238281 124.417969 195.683594 125.441406 197.300781 C 120.941406 196.59375 118.046875 201.132812 120.480469 205.519531 C 120.480469 205.519531 118.640625 205.425781 118.640625 207.175781 C 118.640625 207.648438 118.792969 208.039062 119.011719 208.359375 C 104.390625 206.835938 89.582031 206.457031 74.585938 207.117188 C 74.941406 209.199219 75.351562 211.265625 75.8125 213.308594 L 75.8125 213.328125 C 75.851562 213.496094 75.90625 213.664062 75.945312 213.832031 C 76.039062 214.277344 76.148438 214.722656 76.261719 215.171875 C 88.503906 265.1875 133.617188 302.320312 187.363281 302.320312 C 217.296875 302.320312 244.535156 290.8125 264.914062 271.996094 C 263.375 270.378906 261.570312 268.628906 260.105469 267.644531 C 257.296875 265.375 254.476562 263.175781 251.648438 261.046875 C 258.828125 259.6875 266.855469 258.769531 275.636719 258.496094 C 268.472656 256.792969 259.128906 256.394531 247.824219 258.222656 C 238.367188 251.335938 228.777344 245.207031 219.0625 239.804688 C 220.199219 240.226562 221.394531 240.6875 222.648438 241.183594 C 231.679688 244.753906 239.90625 250.164062 244.386719 253.382812 C 244.8125 252.953125 245.277344 252.398438 245.703125 251.671875 C 247.210938 249.179688 244.683594 249.308594 244.683594 249.308594 C 244.683594 249.308594 251.875 245.089844 249.105469 239.214844 C 246.585938 233.917969 241.5625 235.503906 240.621094 235.859375 C 240.523438 235.902344 240.464844 235.921875 240.464844 235.921875 C 240.464844 235.921875 240.519531 235.898438 240.621094 235.859375 C 241.195312 235.617188 243.203125 234.582031 243.03125 232.109375 C 242.824219 229.226562 237.066406 228.929688 237.066406 228.929688 C 237.066406 228.929688 240.558594 228.519531 239.128906 224.078125 C 237.679688 219.652344 231.195312 221.714844 231.195312 221.714844 C 231.195312 221.714844 232.328125 216.265625 225.84375 213.683594 C 219.359375 211.117188 217.113281 217.605469 217.113281 217.605469 C 217.113281 217.605469 217.113281 215.132812 213.914062 215.226562 C 210.71875 215.335938 209.789062 219.449219 209.789062 219.449219 C 209.789062 219.449219 207.433594 215.335938 204.550781 216.878906 C 201.671875 218.421875 202.285156 221.621094 202.285156 221.621094 C 202.285156 221.621094 198.273438 221.195312 196.226562 225.007812 C 195.664062 226.050781 195.484375 227.148438 195.507812 228.191406 C 193.804688 227.457031 192.097656 226.738281 190.382812 226.042969 C 191.730469 225.164062 193.121094 224.316406 194.554688 223.5 C 194.984375 222.476562 195.558594 221.511719 196.414062 220.933594 C 198.886719 219.222656 199.90625 219.1875 199.90625 219.1875 C 199.90625 219.1875 199.644531 216.507812 202.636719 214.964844 C 205.613281 213.402344 208.488281 215.261719 208.488281 215.261719 C 208.488281 215.261719 210.292969 212.902344 212.671875 212.527344 C 215.03125 212.175781 215.960938 212.996094 215.960938 212.996094 C 215.960938 212.996094 219.191406 210.523438 222.59375 210.835938 C 224.058594 210.96875 225.414062 211.097656 226.660156 211.339844 C 248.585938 206.132812 273.441406 205.296875 295.589844 209.480469 C 258.316406 195.21875 208.164062 208.945312 181.433594 222.601562 C 179.140625 221.765625 176.839844 220.96875 174.535156 220.207031 C 210.835938 199.425781 260.433594 193.828125 297.949219 203.382812 " fill-opacity="1" fill-rule="nonzero"/></g><path fill="#f7f1e5" d="M 183.613281 171.4375 L 183.613281 183.449219 L 191.378906 183.449219 L 191.378906 171.4375 L 183.613281 171.4375 " fill-opacity="1" fill-rule="nonzero"/><path fill="#f7f1e5" d="M 106.75 164.628906 L 106.75 173.519531 L 112.488281 173.519531 L 112.488281 164.628906 L 106.75 164.628906 " fill-opacity="1" fill-rule="nonzero"/><path fill="#f7f1e5" d="M 121.460938 164.628906 L 121.460938 173.519531 L 127.203125 173.519531 L 127.203125 164.628906 L 121.460938 164.628906 " fill-opacity="1" fill-rule="nonzero"/><path fill="#000000" d="M 173.617188 301.484375 C 172.351562 301.339844 171.070312 301.171875 169.808594 300.964844 C 172.371094 285.773438 179.691406 275.640625 193.011719 266.75 C 193.011719 266.75 185.433594 268.425781 176.550781 278.300781 C 175.105469 279.917969 173.859375 281.664062 172.796875 283.46875 C 172.632812 277.964844 173.46875 269.652344 179.152344 264.445312 C 188.257812 256.132812 197.992188 256.820312 204.515625 255.128906 C 211.035156 253.457031 213.746094 251.261719 213.746094 251.261719 C 213.746094 251.261719 216.03125 266.640625 206.820312 279.0625 C 199.367188 289.140625 182.03125 289.4375 175.714844 289.175781 C 174.601562 292.765625 173.878906 296.800781 173.617188 301.484375 Z M 162.898438 276.8125 C 140.285156 276.347656 131.980469 258.125 136.570312 235.921875 C 145.191406 245.347656 177.238281 245.050781 168.542969 273.222656 C 162.933594 263.8125 149.484375 251.484375 141.882812 247.804688 C 149.445312 254.796875 161.835938 267.421875 166.316406 276.757812 C 169.605469 282.222656 169.808594 289.753906 169.808594 289.753906 L 162.898438 276.8125 " fill-opacity="1" fill-rule="nonzero"/><g clip-path="url(#67b20ef1d1)"><path fill="#e7b10a" d="M 130.621094 228.296875 C 119.476562 225.804688 107.902344 223.984375 95.933594 222.925781 C 107.417969 224.820312 118.824219 227.441406 130.121094 230.789062 Z M 194.332031 251.652344 C 176.53125 242.300781 157.304688 234.824219 136.644531 229.710938 L 137.40625 230.546875 C 138.984375 232.277344 141.957031 233.707031 144.074219 234.675781 C 147.660156 236.292969 151.339844 237.6875 154.925781 239.324219 C 155.296875 239.511719 155.6875 239.675781 156.058594 239.863281 C 166.296875 244.011719 176.363281 248.789062 186.269531 254.21875 C 188.367188 253.289062 190.578125 252.5625 192.921875 251.988281 C 193.386719 251.875 193.867188 251.765625 194.332031 251.652344 Z M 128.820312 238.132812 C 119.71875 235.492188 110.371094 233.242188 100.726562 231.441406 C 110.09375 233.914062 119.382812 236.832031 128.597656 240.199219 C 128.671875 239.511719 128.746094 238.820312 128.820312 238.132812 Z M 179.210938 258.328125 C 176.996094 257.175781 174.769531 256.058594 172.519531 254.960938 C 173.335938 256.988281 173.839844 259.089844 174.042969 261.230469 C 174.414062 261.433594 174.804688 261.65625 175.175781 261.878906 C 175.566406 261.433594 175.996094 261.023438 176.441406 260.617188 C 177.332031 259.796875 178.261719 259.035156 179.210938 258.328125 Z M 152.582031 280.34375 C 155.835938 282.371094 159.03125 284.472656 162.191406 286.703125 L 159.382812 281.441406 C 157.0625 281.253906 154.796875 280.902344 152.582031 280.34375 Z M 134.824219 268.480469 C 127.632812 265.691406 120.164062 263.234375 112.378906 261.15625 C 121.109375 264.261719 129.582031 267.867188 137.777344 272.035156 C 137.441406 271.699219 137.144531 271.363281 136.828125 271.007812 C 136.105469 270.191406 135.4375 269.355469 134.824219 268.480469 Z M 128.5625 250.21875 C 121.910156 248.007812 115.109375 246.035156 108.121094 244.34375 C 115.089844 246.578125 121.964844 249.105469 128.730469 251.929688 C 128.671875 251.375 128.597656 250.796875 128.5625 250.21875 Z M 211.21875 247.671875 C 177.144531 228.96875 138.964844 217.011719 95.675781 214.558594 C 132.574219 219.390625 168.433594 230.902344 202.765625 250.21875 C 203.640625 250.070312 204.496094 249.90625 205.332031 249.699219 C 206.871094 249.289062 209.253906 248.566406 211.21875 247.671875 Z M 192.011719 302.230469 C 190.46875 302.285156 188.925781 302.320312 187.363281 302.320312 C 185.394531 302.320312 183.445312 302.265625 181.511719 302.15625 C 180.472656 301.226562 179.429688 300.3125 178.390625 299.402344 C 178.597656 297.839844 178.855469 296.316406 179.210938 294.792969 C 180.285156 294.792969 181.382812 294.753906 182.496094 294.699219 C 185.75 297.117188 188.925781 299.625 192.011719 302.230469 Z M 214.027344 299.179688 C 210.847656 299.941406 207.597656 300.574219 204.328125 301.058594 C 201.261719 298.230469 198.179688 295.480469 195.074219 292.839844 C 197.75 292.132812 200.335938 291.203125 202.765625 290.015625 C 206.59375 292.953125 210.347656 296.019531 214.027344 299.179688 Z M 231.84375 293.339844 C 229.113281 294.492188 226.328125 295.554688 223.484375 296.484375 C 218.988281 292.539062 214.4375 288.765625 209.808594 285.160156 C 210.792969 284.25 211.6875 283.246094 212.484375 282.148438 C 213.078125 281.367188 213.617188 280.546875 214.15625 279.730469 C 220.195312 284.027344 226.085938 288.582031 231.84375 293.339844 Z M 245.277344 286.574219 C 242.972656 287.949219 240.613281 289.214844 238.199219 290.421875 C 231.359375 284.507812 224.355469 278.96875 217.242188 273.816406 C 218.207031 271.546875 218.96875 269.207031 219.5625 266.808594 C 228.574219 272.90625 237.140625 279.523438 245.277344 286.574219 Z M 257.074219 278.597656 C 254.996094 280.214844 252.859375 281.738281 250.664062 283.207031 C 240.800781 275.082031 230.785156 267.71875 220.625 261.0625 C 220.640625 260.800781 220.679688 260.542969 220.714844 260.261719 C 220.9375 258.125 221.066406 255.667969 221.011719 253.308594 C 233.589844 260.855469 245.613281 269.335938 257.074219 278.597656 " fill-opacity="1" fill-rule="evenodd"/></g><g clip-path="url(#15ceb508da)"><path fill="#e7b10a" d="M 256.292969 151 L 246.875 150.980469 L 250.480469 154.792969 C 250.480469 154.792969 252.226562 152.839844 254.695312 152.433594 C 255.679688 152.265625 256.035156 151.6875 256.292969 151 Z M 180.863281 109.332031 L 182.332031 120.058594 C 181.140625 120.320312 179.972656 120.636719 178.816406 121.007812 L 176.070312 110.667969 C 177.628906 110.148438 179.226562 109.699219 180.863281 109.332031 Z M 179.394531 98.5625 L 180.453125 106.355469 C 178.671875 106.632812 176.925781 107.023438 175.214844 107.488281 L 173.226562 99.957031 C 175.234375 99.402344 177.296875 98.917969 179.394531 98.5625 Z M 166.628906 75.191406 C 169.714844 74.632812 172.855469 74.1875 176.011719 73.871094 L 179.023438 95.867188 C 176.773438 96.128906 174.582031 96.5 172.425781 97.003906 Z M 170.03125 113.199219 L 174.117188 122.941406 C 173.039062 123.480469 171.980469 124.09375 170.976562 124.746094 L 165.738281 115.632812 C 167.132812 114.761719 168.5625 113.941406 170.03125 113.199219 Z M 165.628906 102.671875 L 168.617188 109.832031 C 166.964844 110.558594 165.347656 111.355469 163.804688 112.269531 L 159.921875 105.5 C 161.761719 104.476562 163.65625 103.527344 165.628906 102.671875 Z M 145.875 81.085938 C 148.921875 79.894531 152.042969 78.835938 155.222656 77.90625 L 164.25 99.417969 C 162.097656 100.21875 159.996094 101.128906 157.972656 102.132812 Z M 160.515625 119.539062 L 166.945312 127.832031 C 166.035156 128.632812 165.183594 129.488281 164.382812 130.398438 L 156.96875 122.960938 C 158.082031 121.75 159.273438 120.617188 160.515625 119.539062 Z M 153.125 109.980469 L 157.957031 116.246094 C 156.542969 117.382812 155.183594 118.589844 153.902344 119.875 L 148.199219 114.164062 C 149.761719 112.679688 151.394531 111.28125 153.125 109.980469 Z M 125.570312 91.441406 C 128.503906 89.546875 131.554688 87.796875 134.675781 86.160156 L 150.464844 106.558594 C 148.535156 107.898438 146.675781 109.332031 144.929688 110.875 Z M 152.863281 128.035156 L 161.277344 134.414062 C 160.609375 135.417969 159.996094 136.476562 159.441406 137.554688 L 150.28125 132.238281 C 151.0625 130.789062 151.933594 129.375 152.863281 128.035156 Z M 142.605469 120.226562 L 149.257812 125.285156 C 148.164062 126.773438 147.175781 128.316406 146.269531 129.914062 L 138.816406 125.582031 C 139.96875 123.742188 141.25 121.9375 142.605469 120.226562 Z M 106.46875 106.839844 C 109.164062 104.160156 111.988281 101.613281 114.921875 99.195312 L 138.648438 117.214844 C 137.089844 119.054688 135.640625 120.96875 134.320312 122.976562 Z M 147.605469 138.207031 L 157.488281 142.242188 C 157.117188 143.378906 156.804688 144.550781 156.542969 145.738281 L 146.195312 142.949219 C 146.582031 141.332031 147.050781 139.75 147.605469 138.207031 Z M 134.878906 133 L 143.257812 136.421875 C 142.625 138.152344 142.089844 139.917969 141.660156 141.742188 L 132.554688 139.285156 C 133.207031 137.128906 133.988281 135.046875 134.878906 133 Z M 89.933594 127.777344 C 92.128906 124.242188 94.503906 120.820312 97.050781 117.550781 L 129.9375 130.972656 C 128.933594 133.203125 128.078125 135.511719 127.390625 137.890625 Z M 77.949219 154.3125 C 79.289062 149.921875 80.886719 145.664062 82.707031 141.515625 L 111.113281 145.125 L 104.054688 154.347656 Z M 295.757812 151.058594 C 297.222656 155.371094 298.433594 159.796875 299.363281 164.332031 L 288.082031 162.902344 C 286.1875 160.652344 283.402344 160.464844 283.402344 160.464844 C 283.402344 160.464844 284.238281 159.945312 282.789062 157.675781 C 281.339844 155.425781 277.847656 154.496094 277.847656 154.496094 C 277.847656 154.496094 277.847656 152.636719 277.046875 151.019531 Z M 283.476562 125.675781 C 285.742188 129.1875 287.824219 132.832031 289.71875 136.589844 L 231.378906 144.585938 L 221.328125 144.34375 C 221.144531 143.675781 220.957031 143.039062 220.753906 142.390625 Z M 267.089844 105.703125 C 269.839844 108.382812 272.460938 111.171875 274.910156 114.109375 L 218.820312 137.6875 C 218.28125 136.609375 217.667969 135.566406 217.019531 134.542969 Z M 224.820312 122.046875 L 213.933594 130.507812 C 213.117188 129.617188 212.261719 128.742188 211.371094 127.941406 L 220.863281 118.476562 C 222.257812 119.59375 223.578125 120.785156 224.820312 122.046875 Z M 233.21875 115.539062 L 224.839844 122.046875 C 223.652344 120.710938 222.40625 119.445312 221.085938 118.238281 L 228.277344 111.058594 C 230.003906 112.472656 231.660156 113.960938 233.21875 115.539062 Z M 248.417969 90.957031 C 251.40625 92.855469 254.289062 94.882812 257.074219 97.019531 L 233.441406 115.371094 C 231.917969 113.738281 230.320312 112.191406 228.628906 110.722656 Z M 215.140625 114.554688 L 207.359375 124.839844 C 206.335938 124.167969 205.292969 123.554688 204.21875 122.996094 L 210.480469 112.191406 C 212.09375 112.898438 213.636719 113.679688 215.140625 114.554688 Z M 221.421875 106.28125 L 215.605469 113.960938 C 214.140625 112.972656 212.613281 112.0625 211.035156 111.246094 L 215.660156 103.230469 C 217.648438 104.160156 219.5625 105.164062 221.421875 106.28125 Z M 228.554688 80.953125 C 231.640625 82.164062 234.667969 83.484375 237.621094 84.933594 L 221.90625 105.667969 C 220.066406 104.460938 218.152344 103.363281 216.164062 102.355469 Z M 204.066406 109.90625 L 199.535156 121.042969 C 198.382812 120.671875 197.210938 120.355469 196.023438 120.09375 L 199.070312 108.808594 C 200.757812 109.089844 202.433594 109.460938 204.066406 109.90625 Z M 207.988281 100.3125 L 204.664062 108.476562 C 202.992188 107.898438 201.300781 107.394531 199.550781 107.007812 L 201.765625 98.769531 C 203.882812 99.175781 205.964844 99.695312 207.988281 100.3125 Z M 208.117188 75.191406 C 211.257812 75.765625 214.34375 76.472656 217.371094 77.292969 L 208.488281 99.066406 C 206.445312 98.339844 204.347656 97.726562 202.191406 97.207031 Z M 192.417969 108.195312 L 190.988281 119.425781 C 190.355469 119.390625 189.726562 119.371094 189.09375 119.371094 C 188.519531 119.371094 187.941406 119.390625 187.363281 119.425781 L 187.382812 108.34375 C 188.683594 108.25 190.003906 108.195312 191.324219 108.195312 C 191.695312 108.195312 192.046875 108.195312 192.417969 108.195312 Z M 193.738281 97.765625 L 192.699219 105.910156 C 191.265625 105.796875 189.816406 105.722656 188.351562 105.722656 C 188.035156 105.722656 187.699219 105.722656 187.382812 105.742188 L 187.402344 97.707031 C 188.257812 97.671875 189.132812 97.652344 190.003906 97.652344 C 191.25 97.652344 192.492188 97.691406 193.738281 97.765625 Z M 187.421875 73.3125 C 190.578125 73.3125 193.699219 73.445312 196.765625 73.703125 L 193.980469 95.773438 C 191.824219 95.550781 189.632812 95.421875 187.402344 95.402344 Z M 155.875 150.796875 L 149.203125 149.941406 L 152.398438 154.402344 L 155.875 154.421875 C 155.835938 153.84375 155.816406 153.269531 155.816406 152.675781 C 155.816406 152.039062 155.835938 151.410156 155.875 150.796875 Z M 189.09375 123.703125 C 202.078125 123.703125 213.058594 132.257812 216.738281 144.046875 L 194.464844 144.046875 L 181.902344 157.785156 L 179.339844 155.929688 C 179.339844 155.929688 179.859375 154.328125 177.539062 153.25 C 176.996094 153.007812 176.421875 152.894531 175.828125 152.859375 C 176.476562 143.617188 184.167969 136.328125 193.550781 136.328125 C 195.632812 136.328125 197.640625 136.699219 199.5 137.351562 C 196.953125 136.03125 194.070312 135.269531 191.023438 135.269531 C 181.011719 135.269531 172.890625 143.339844 172.78125 153.34375 C 172.316406 153.492188 172.039062 153.621094 172.039062 153.621094 C 172.039062 153.621094 171.40625 151.351562 170.792969 150.628906 C 170.570312 150.367188 170.199219 149.960938 169.675781 149.605469 C 171.535156 139.191406 180.621094 131.308594 191.527344 131.308594 C 198.71875 131.308594 205.109375 134.730469 209.175781 140.03125 L 209.195312 140.046875 C 205.015625 133.519531 197.714844 129.207031 189.390625 129.207031 C 177.742188 129.207031 168.078125 137.707031 166.238281 148.84375 C 165.980469 148.878906 165.71875 148.953125 165.441406 149.027344 C 162.46875 149.960938 161.484375 154.441406 161.484375 154.441406 C 161.484375 154.441406 161.074219 154.441406 160.203125 154.421875 C 160.164062 153.84375 160.144531 153.269531 160.144531 152.675781 C 160.144531 136.683594 173.097656 123.703125 189.09375 123.703125 " fill-opacity="1" fill-rule="evenodd"/></g><path fill="#000000" d="M 93.632812 161.152344 C 96.417969 161.488281 97.234375 164.703125 96.605469 167.011719 C 94.339844 164.816406 93.5 164.871094 93.632812 161.152344 Z M 144.410156 173.519531 L 144.410156 164.628906 L 146.195312 164.628906 L 146.195312 172.199219 L 149.074219 172.199219 L 149.074219 173.519531 Z M 174.023438 156.636719 C 175.605469 158.550781 174.175781 161.113281 172.371094 162.214844 C 172.257812 159.421875 171.683594 158.957031 174.023438 156.636719 Z M 165.628906 154.664062 C 168.0625 155.109375 168.617188 157.992188 167.929688 160 C 166.054688 157.933594 165.3125 157.933594 165.628906 154.664062 Z M 159.757812 160.203125 C 161.929688 159.015625 164.175781 160.914062 164.902344 162.882812 C 162.136719 162.472656 161.578125 162.9375 159.757812 160.203125 Z M 156.316406 167.121094 C 158.0625 165.375 160.757812 166.546875 162.003906 168.238281 C 159.253906 168.609375 158.828125 169.242188 156.316406 167.121094 Z M 135.363281 173.519531 L 135.363281 164.628906 L 137.089844 164.628906 L 137.089844 172.199219 L 140.023438 172.199219 L 140.023438 173.519531 Z M 276.824219 159.628906 C 274.390625 160.074219 273.835938 162.957031 274.523438 164.949219 C 276.398438 162.882812 277.140625 162.902344 276.824219 159.628906 Z M 282.695312 165.148438 C 280.523438 163.980469 278.273438 165.875 277.550781 167.847656 C 280.316406 167.421875 280.875 167.902344 282.695312 165.148438 Z M 269.914062 153.957031 C 268.148438 155.703125 269.28125 158.402344 270.953125 159.683594 C 271.363281 156.914062 271.996094 156.503906 269.914062 153.957031 Z M 285.335938 174.300781 C 283.234375 171.714844 279.5 172.921875 277.605469 175.003906 C 281.230469 175.898438 281.695312 176.773438 285.335938 174.300781 Z M 265.195312 158.847656 C 263.726562 162.101562 266.679688 165.132812 269.597656 165.96875 C 268.707031 162.046875 269.320312 161.171875 265.195312 158.847656 Z M 226.4375 217.976562 C 229.300781 219.597656 228.761719 223.445312 227.050781 225.65625 C 225.582031 222.253906 224.65625 221.957031 226.4375 217.976562 Z M 207.207031 220.878906 C 209.976562 221.214844 210.8125 224.429688 210.179688 226.714844 C 207.914062 224.523438 207.078125 224.578125 207.207031 220.878906 Z M 201.429688 225.453125 C 203.160156 223.667969 205.851562 224.800781 207.132812 226.476562 C 204.382812 226.902344 203.976562 227.515625 201.429688 225.453125 Z M 235.503906 225.785156 C 235.691406 228.261719 233.054688 229.542969 230.953125 229.394531 C 232.457031 227.054688 232.253906 226.324219 235.503906 225.785156 Z M 127.984375 197.394531 C 130.773438 197.726562 131.589844 200.945312 130.976562 203.253906 C 128.710938 201.039062 127.875 201.09375 127.984375 197.394531 Z M 152.417969 199.328125 C 152.601562 201.800781 149.964844 203.085938 147.863281 202.933594 C 149.371094 200.59375 149.164062 199.886719 152.417969 199.328125 Z M 153.328125 205.875 C 153.53125 208.34375 150.894531 209.628906 148.777344 209.480469 C 150.300781 207.136719 150.09375 206.410156 153.328125 205.875 Z M 122.207031 201.96875 C 123.933594 200.183594 126.648438 201.316406 127.929688 202.992188 C 125.160156 203.417969 124.769531 204.03125 122.207031 201.96875 Z M 90.007812 168.832031 C 91.734375 167.046875 94.449219 168.183594 95.730469 169.855469 C 92.960938 170.28125 92.574219 170.894531 90.007812 168.832031 " fill-opacity="1" fill-rule="evenodd"/><path fill="#e7b10a" d="M 153.253906 163.550781 L 143.667969 151.148438 L 153.253906 166.117188 L 154.277344 163.960938 L 153.253906 163.550781 " fill-opacity="1" fill-rule="evenodd"/><g clip-path="url(#ec65b89d3a)"><g clip-path="url(#3959f71d79)"><path fill="#f7f1e5" d="M 27.8125 118.769531 L 33.789062 118.769531 L 33.789062 124.746094 L 27.8125 124.746094 Z M 27.8125 118.769531 " fill-opacity="1" fill-rule="nonzero"/></g></g><g clip-path="url(#b18f55381b)"><g clip-path="url(#4d3e98cb33)"><path fill="#f7f1e5" d="M 341.210938 118.769531 L 347.1875 118.769531 L 347.1875 124.746094 L 341.210938 124.746094 Z M 341.210938 118.769531 " fill-opacity="1" fill-rule="nonzero"/></g></g><g clip-path="url(#75de82f825)"><g clip-path="url(#8a330c8d5c)"><path fill="#f7f1e5" d="M 20.328125 144.382812 L 26.308594 144.382812 L 26.308594 150.363281 L 20.328125 150.363281 Z M 20.328125 144.382812 " fill-opacity="1" fill-rule="nonzero"/></g></g><g clip-path="url(#b5a04bc3a4)"><g clip-path="url(#78e891c969)"><path fill="#f7f1e5" d="M 348.691406 144.382812 L 354.671875 144.382812 L 354.671875 150.363281 L 348.691406 150.363281 Z M 348.691406 144.382812 " fill-opacity="1" fill-rule="nonzero"/></g></g><g clip-path="url(#fe0dd12622)"><g clip-path="url(#29d9d8c8c8)"><path fill="#f7f1e5" d="M 15.84375 170.898438 L 21.824219 170.898438 L 21.824219 176.875 L 15.84375 176.875 Z M 15.84375 170.898438 " fill-opacity="1" fill-rule="nonzero"/></g></g><g clip-path="url(#5b7b505287)"><g clip-path="url(#0cd0943398)"><path fill="#f7f1e5" d="M 353.175781 170.898438 L 359.15625 170.898438 L 359.15625 176.875 L 353.175781 176.875 Z M 353.175781 170.898438 " fill-opacity="1" fill-rule="nonzero"/></g></g><g clip-path="url(#b45fc72307)"><g clip-path="url(#c17c15a014)"><path fill="#f7f1e5" d="M 17.339844 198.757812 L 23.316406 198.757812 L 23.316406 204.738281 L 17.339844 204.738281 Z M 17.339844 198.757812 " fill-opacity="1" fill-rule="nonzero"/></g></g><g clip-path="url(#a57304ae98)"><g clip-path="url(#00bd3be48c)"><path fill="#f7f1e5" d="M 351.683594 198.757812 L 357.660156 198.757812 L 357.660156 204.738281 L 351.683594 204.738281 Z M 351.683594 198.757812 " fill-opacity="1" fill-rule="nonzero"/></g></g><g fill="#f7f1e5" fill-opacity="1"><g transform="translate(64.390241, 83.034197)"><g><path d="M 7.3125 -12.90625 L 1.671875 -6.890625 L 3.28125 -3.5 L -0.09375 0.109375 L -8.28125 -18.75 L -4.921875 -22.34375 L 14.296875 -15.25 L 10.796875 -11.515625 Z M 3.703125 -14.375 L -3.234375 -17.1875 L -0.015625 -10.40625 Z M 3.703125 -14.375 "/></g></g></g><g fill="#f7f1e5" fill-opacity="1"><g transform="translate(80.841027, 65.852531)"><g><path d="M 5.328125 -16.484375 L 8.578125 -19.0625 L 13.15625 -13.296875 C 12.8125 -12.097656 12.210938 -10.867188 11.359375 -9.609375 C 10.515625 -8.347656 9.578125 -7.3125 8.546875 -6.5 C 6.296875 -4.707031 3.84375 -3.929688 1.1875 -4.171875 C -1.46875 -4.421875 -3.648438 -5.625 -5.359375 -7.78125 C -7.054688 -9.914062 -7.703125 -12.320312 -7.296875 -15 C -6.890625 -17.675781 -5.515625 -19.941406 -3.171875 -21.796875 C -2.078125 -22.660156 -0.832031 -23.328125 0.5625 -23.796875 C 1.96875 -24.265625 3.316406 -24.460938 4.609375 -24.390625 L 4.53125 -20.15625 C 3.59375 -20.226562 2.660156 -20.128906 1.734375 -19.859375 C 0.816406 -19.585938 0.0078125 -19.175781 -0.6875 -18.625 C -1.90625 -17.65625 -2.59375 -16.425781 -2.75 -14.9375 C -2.90625 -13.445312 -2.488281 -12.082031 -1.5 -10.84375 C -0.507812 -9.582031 0.734375 -8.859375 2.234375 -8.671875 C 3.734375 -8.484375 5.09375 -8.878906 6.3125 -9.859375 C 7.101562 -10.484375 7.785156 -11.421875 8.359375 -12.671875 Z M 5.328125 -16.484375 "/></g></g></g><g fill="#f7f1e5" fill-opacity="1"><g transform="translate(99.055079, 51.679731)"><g><path d="M 7.65625 -15.546875 L 11.25 -17.625 L 14.9375 -11.265625 C 14.414062 -10.128906 13.644531 -9 12.625 -7.875 C 11.601562 -6.75 10.523438 -5.859375 9.390625 -5.203125 C 6.898438 -3.753906 4.359375 -3.34375 1.765625 -3.96875 C -0.828125 -4.601562 -2.8125 -6.109375 -4.1875 -8.484375 C -5.5625 -10.847656 -5.851562 -13.316406 -5.0625 -15.890625 C -4.269531 -18.472656 -2.582031 -20.519531 0 -22.03125 C 1.207031 -22.726562 2.535156 -23.207031 3.984375 -23.46875 C 5.429688 -23.726562 6.789062 -23.722656 8.0625 -23.453125 L 7.390625 -19.296875 C 6.472656 -19.492188 5.535156 -19.523438 4.578125 -19.390625 C 3.617188 -19.253906 2.753906 -18.96875 1.984375 -18.53125 C 0.648438 -17.75 -0.195312 -16.632812 -0.5625 -15.1875 C -0.9375 -13.738281 -0.722656 -12.328125 0.078125 -10.953125 C 0.878906 -9.566406 2.003906 -8.671875 3.453125 -8.265625 C 4.910156 -7.867188 6.316406 -8.0625 7.671875 -8.84375 C 8.546875 -9.351562 9.351562 -10.179688 10.09375 -11.328125 Z M 7.65625 -15.546875 "/></g></g></g><g fill="#f7f1e5" fill-opacity="1"><g transform="translate(119.139671, 40.290657)"><g><path d="M 12.296875 -4.953125 L 7.71875 -8.84375 L 7.59375 -8.78125 L 4.21875 -7.421875 L 6.203125 -2.5 L 1.75 -0.703125 L -5.3125 -18.203125 L 2.515625 -21.359375 C 4.835938 -22.296875 6.84375 -22.488281 8.53125 -21.9375 C 10.226562 -21.394531 11.472656 -20.148438 12.265625 -18.203125 C 13.347656 -15.492188 13.046875 -13.191406 11.359375 -11.296875 L 17.359375 -7 Z M 2.796875 -10.9375 L 6.171875 -12.296875 C 7.140625 -12.691406 7.796875 -13.238281 8.140625 -13.9375 C 8.484375 -14.632812 8.46875 -15.441406 8.09375 -16.359375 C 7.738281 -17.253906 7.195312 -17.828125 6.46875 -18.078125 C 5.738281 -18.335938 4.890625 -18.269531 3.921875 -17.875 L 0.546875 -16.515625 Z M 2.796875 -10.9375 "/></g></g></g><g fill="#f7f1e5" fill-opacity="1"><g transform="translate(140.100682, 31.991961)"><g><path d="M 6.109375 -21.046875 C 8.953125 -21.722656 11.53125 -21.398438 13.84375 -20.078125 C 16.164062 -18.753906 17.644531 -16.765625 18.28125 -14.109375 C 18.914062 -11.441406 18.5 -8.976562 17.03125 -6.71875 C 15.5625 -4.457031 13.410156 -2.984375 10.578125 -2.296875 C 7.753906 -1.617188 5.179688 -1.953125 2.859375 -3.296875 C 0.546875 -4.648438 -0.929688 -6.671875 -1.578125 -9.359375 C -2.222656 -12.035156 -1.8125 -14.476562 -0.34375 -16.6875 C 1.125 -18.90625 3.273438 -20.359375 6.109375 -21.046875 Z M 7.09375 -17.140625 C 5.664062 -16.804688 4.566406 -15.992188 3.796875 -14.703125 C 3.035156 -13.421875 2.835938 -12.007812 3.203125 -10.46875 C 3.578125 -8.9375 4.398438 -7.757812 5.671875 -6.9375 C 6.941406 -6.125 8.285156 -5.882812 9.703125 -6.21875 C 11.117188 -6.5625 12.195312 -7.378906 12.9375 -8.671875 C 13.675781 -9.972656 13.859375 -11.390625 13.484375 -12.921875 C 13.117188 -14.460938 12.316406 -15.632812 11.078125 -16.4375 C 9.835938 -17.25 8.507812 -17.484375 7.09375 -17.140625 Z M 7.09375 -17.140625 "/></g></g></g><g fill="#f7f1e5" fill-opacity="1"><g transform="translate(164.580485, 26.744228)"><g/></g></g><g fill="#f7f1e5" fill-opacity="1"><g transform="translate(174.186046, 25.383123)"><g><path d="M 10.21875 -19.34375 C 11.625 -19.375 13.007812 -19.117188 14.375 -18.578125 C 15.75 -18.035156 16.929688 -17.296875 17.921875 -16.359375 L 15.21875 -12.984375 C 14.582031 -13.722656 13.832031 -14.300781 12.96875 -14.71875 C 12.101562 -15.132812 11.25 -15.332031 10.40625 -15.3125 C 8.914062 -15.269531 7.679688 -14.707031 6.703125 -13.625 C 5.734375 -12.550781 5.269531 -11.242188 5.3125 -9.703125 C 5.351562 -8.117188 5.890625 -6.804688 6.921875 -5.765625 C 7.953125 -4.734375 9.210938 -4.238281 10.703125 -4.28125 C 11.492188 -4.300781 12.3125 -4.519531 13.15625 -4.9375 C 14 -5.351562 14.742188 -5.914062 15.390625 -6.625 L 18.265625 -3.734375 C 17.273438 -2.660156 16.085938 -1.789062 14.703125 -1.125 C 13.328125 -0.457031 11.953125 -0.101562 10.578125 -0.0625 C 7.734375 0.0078125 5.34375 -0.851562 3.40625 -2.65625 C 1.46875 -4.457031 0.460938 -6.742188 0.390625 -9.515625 C 0.316406 -12.222656 1.21875 -14.515625 3.09375 -16.390625 C 4.96875 -18.273438 7.34375 -19.257812 10.21875 -19.34375 Z M 10.21875 -19.34375 "/></g></g></g><g fill="#f7f1e5" fill-opacity="1"><g transform="translate(195.884795, 24.908405)"><g><path d="M 13.015625 -17.625 C 15.921875 -17.28125 18.234375 -16.085938 19.953125 -14.046875 C 21.671875 -12.003906 22.367188 -9.628906 22.046875 -6.921875 C 21.710938 -4.191406 20.460938 -2.019531 18.296875 -0.40625 C 16.140625 1.207031 13.613281 1.84375 10.71875 1.5 C 7.832031 1.15625 5.535156 -0.046875 3.828125 -2.109375 C 2.117188 -4.171875 1.429688 -6.578125 1.765625 -9.328125 C 2.085938 -12.054688 3.316406 -14.207031 5.453125 -15.78125 C 7.597656 -17.351562 10.117188 -17.96875 13.015625 -17.625 Z M 12.59375 -13.625 C 11.132812 -13.789062 9.820312 -13.40625 8.65625 -12.46875 C 7.5 -11.539062 6.828125 -10.289062 6.640625 -8.71875 C 6.453125 -7.144531 6.8125 -5.753906 7.71875 -4.546875 C 8.632812 -3.335938 9.816406 -2.644531 11.265625 -2.46875 C 12.710938 -2.300781 14.003906 -2.695312 15.140625 -3.65625 C 16.273438 -4.625 16.9375 -5.894531 17.125 -7.46875 C 17.3125 -9.039062 16.960938 -10.414062 16.078125 -11.59375 C 15.203125 -12.769531 14.039062 -13.445312 12.59375 -13.625 Z M 12.59375 -13.625 "/></g></g></g><g fill="#f7f1e5" fill-opacity="1"><g transform="translate(220.361027, 28.068986)"><g><path d="M 18.609375 5.171875 L 14.53125 4.046875 L 9.265625 -9.484375 L 6.15625 1.71875 L 1.828125 0.5 L 6.890625 -17.6875 L 10.96875 -16.546875 L 16.21875 -3 L 19.34375 -14.21875 L 23.671875 -13.015625 Z M 18.609375 5.171875 "/></g></g></g><g fill="#f7f1e5" fill-opacity="1"><g transform="translate(243.595283, 34.769546)"><g><path d="M 17.609375 7.921875 L 13.75 6.1875 L 10.59375 -7.96875 L 5.828125 2.625 L 1.71875 0.78125 L 9.46875 -16.4375 L 13.328125 -14.703125 L 16.484375 -0.515625 L 21.265625 -11.140625 L 25.359375 -9.296875 Z M 17.609375 7.921875 "/></g></g></g><g fill="#f7f1e5" fill-opacity="1"><g transform="translate(265.571366, 45.019171)"><g><path d="M 22.171875 -3.828125 L 13.734375 -9.1875 L 11.71875 -6.015625 L 19.34375 -1.1875 L 17.328125 2 L 9.703125 -2.828125 L 7.671875 0.390625 L 16.359375 5.90625 L 14.328125 9.09375 L 1.59375 1.015625 L 11.703125 -14.921875 L 24.1875 -7 Z M 22.171875 -3.828125 "/></g></g></g><g fill="#f7f1e5" fill-opacity="1"><g transform="translate(283.452568, 56.590365)"><g><path d="M 20.484375 -7.640625 C 21.566406 -6.734375 22.4375 -5.625 23.09375 -4.3125 C 23.75 -3 24.132812 -1.660156 24.25 -0.296875 L 20 0.421875 C 20.007812 -0.554688 19.828125 -1.488281 19.453125 -2.375 C 19.085938 -3.257812 18.582031 -3.972656 17.9375 -4.515625 C 16.800781 -5.472656 15.507812 -5.875 14.0625 -5.71875 C 12.613281 -5.5625 11.394531 -4.894531 10.40625 -3.71875 C 9.382812 -2.507812 8.914062 -1.175781 9 0.28125 C 9.082031 1.75 9.691406 2.960938 10.828125 3.921875 C 11.429688 4.429688 12.1875 4.8125 13.09375 5.0625 C 14.007812 5.3125 14.945312 5.382812 15.90625 5.28125 L 16.109375 9.359375 C 14.660156 9.492188 13.203125 9.351562 11.734375 8.9375 C 10.265625 8.519531 9.003906 7.867188 7.953125 6.984375 C 5.773438 5.148438 4.554688 2.914062 4.296875 0.28125 C 4.046875 -2.351562 4.816406 -4.734375 6.609375 -6.859375 C 8.347656 -8.929688 10.546875 -10.039062 13.203125 -10.1875 C 15.859375 -10.34375 18.285156 -9.492188 20.484375 -7.640625 Z M 20.484375 -7.640625 "/></g></g></g><g fill="#f7f1e5" fill-opacity="1"><g transform="translate(299.957355, 70.867936)"><g><path d="M 22.078125 1.921875 L 18.25 -2.28125 L 7.171875 7.84375 L 3.9375 4.296875 L 15.015625 -5.828125 L 11.203125 -9.984375 L 14.078125 -12.609375 L 24.953125 -0.703125 Z M 22.078125 1.921875 "/></g></g></g><g fill="#f7f1e5" fill-opacity="1"><g transform="translate(30.400875, 266.846607)"><g><path d="M 6.625 4.125 L 10.296875 11.25 L 6.71875 13.078125 L 0.859375 1.6875 L 17.65625 -6.9375 L 19.84375 -2.671875 Z M 6.625 4.125 "/></g></g></g><g fill="#f7f1e5" fill-opacity="1"><g transform="translate(39.973159, 284.94507)"><g><path d="M 21.890625 5.203125 L 16.234375 -3.03125 L 13.140625 -0.90625 L 18.25 6.53125 L 15.140625 8.671875 L 10.03125 1.234375 L 6.90625 3.375 L 12.734375 11.84375 L 9.609375 13.984375 L 1.0625 1.5625 L 16.625 -9.125 L 25 3.0625 Z M 21.890625 5.203125 "/></g></g></g><g fill="#f7f1e5" fill-opacity="1"><g transform="translate(53.607633, 303.821929)"><g/></g></g><g fill="#f7f1e5" fill-opacity="1"><g transform="translate(60.934902, 312.602077)"><g><path d="M 9.578125 9.1875 L 11.234375 3.421875 L 11.125 3.328125 L 8.5 0.796875 L 4.828125 4.625 L 1.359375 1.3125 L 14.421875 -12.3125 L 20.515625 -6.46875 C 22.316406 -4.738281 23.316406 -2.988281 23.515625 -1.21875 C 23.710938 0.539062 23.082031 2.179688 21.625 3.703125 C 19.601562 5.804688 17.378906 6.472656 14.953125 5.703125 L 13.515625 12.953125 Z M 11.125 -1.9375 L 13.75 0.59375 C 14.5 1.3125 15.257812 1.679688 16.03125 1.703125 C 16.8125 1.734375 17.546875 1.390625 18.234375 0.671875 C 18.898438 -0.0234375 19.195312 -0.753906 19.125 -1.515625 C 19.0625 -2.285156 18.65625 -3.03125 17.90625 -3.75 L 15.28125 -6.28125 Z M 11.125 -1.9375 "/></g></g></g><g fill="#f7f1e5" fill-opacity="1"><g transform="translate(79.285678, 329.603595)"><g><path d="M 25.1875 -10.921875 L 20.578125 -10.484375 L 17.671875 -12.5625 L 22.640625 -14.5625 Z M 22.359375 -2.53125 L 14.25 -8.359375 L 12.0625 -5.3125 L 19.390625 -0.046875 L 17.171875 3.015625 L 9.84375 -2.25 L 7.625 0.84375 L 15.984375 6.84375 L 13.78125 9.90625 L 1.53125 1.109375 L 12.5625 -14.21875 L 24.5625 -5.59375 Z M 22.359375 -2.53125 "/></g></g></g><g fill="#f7f1e5" fill-opacity="1"><g transform="translate(98.673643, 343.071762)"><g><path d="M 17.046875 -12.546875 C 19.535156 -11.210938 21.390625 -9.425781 22.609375 -7.1875 L 19.265625 -4.734375 C 18.671875 -5.710938 17.957031 -6.628906 17.125 -7.484375 C 16.300781 -8.335938 15.546875 -8.945312 14.859375 -9.3125 C 13.640625 -9.96875 12.8125 -9.890625 12.375 -9.078125 C 12.09375 -8.554688 12.171875 -7.972656 12.609375 -7.328125 C 13.046875 -6.691406 13.632812 -6.023438 14.375 -5.328125 C 15.113281 -4.640625 15.828125 -3.90625 16.515625 -3.125 C 17.210938 -2.34375 17.671875 -1.425781 17.890625 -0.375 C 18.109375 0.675781 17.921875 1.757812 17.328125 2.875 C 16.472656 4.476562 15.175781 5.390625 13.4375 5.609375 C 11.707031 5.835938 9.878906 5.441406 7.953125 4.421875 C 6.554688 3.679688 5.3125 2.710938 4.21875 1.515625 C 3.132812 0.328125 2.3125 -0.945312 1.75 -2.3125 L 5.125 -4.6875 C 5.582031 -3.507812 6.253906 -2.382812 7.140625 -1.3125 C 8.035156 -0.238281 8.925781 0.535156 9.8125 1.015625 C 10.5 1.378906 11.097656 1.535156 11.609375 1.484375 C 12.117188 1.441406 12.5 1.1875 12.75 0.71875 C 13 0.25 12.988281 -0.253906 12.71875 -0.796875 C 12.445312 -1.335938 12.023438 -1.851562 11.453125 -2.34375 C 10.890625 -2.84375 10.289062 -3.421875 9.65625 -4.078125 C 9.03125 -4.742188 8.472656 -5.398438 7.984375 -6.046875 C 7.492188 -6.691406 7.207031 -7.457031 7.125 -8.34375 C 7.039062 -9.238281 7.242188 -10.144531 7.734375 -11.0625 C 8.554688 -12.59375 9.816406 -13.488281 11.515625 -13.75 C 13.210938 -14.007812 15.054688 -13.609375 17.046875 -12.546875 Z M 17.046875 -12.546875 "/></g></g></g><g fill="#f7f1e5" fill-opacity="1"><g transform="translate(118.953142, 353.494184)"><g><path d="M 20.875 -8.375 L 11.515625 -11.84375 L 10.21875 -8.328125 L 18.671875 -5.1875 L 17.359375 -1.640625 L 8.90625 -4.78125 L 7.578125 -1.21875 L 17.21875 2.359375 L 15.90625 5.90625 L 1.765625 0.65625 L 8.328125 -17.046875 L 22.1875 -11.90625 Z M 20.875 -8.375 "/></g></g></g><g fill="#f7f1e5" fill-opacity="1"><g transform="translate(141.286939, 361.456379)"><g><path d="M 14.84375 -0.390625 L 6.765625 -2.109375 L 4.6875 1 L -0.140625 -0.03125 L 11.796875 -16.78125 L 16.609375 -15.75 L 20.4375 4.375 L 15.4375 3.296875 Z M 14.234375 -4.234375 L 13.046875 -11.640625 L 8.890625 -5.375 Z M 14.234375 -4.234375 "/></g></g></g><g fill="#f7f1e5" fill-opacity="1"><g transform="translate(167.147883, 366.545403)"><g><path d="M 19.96875 -17.71875 L 19.3125 -6.78125 C 19.164062 -4.300781 18.273438 -2.375 16.640625 -1 C 15.003906 0.375 12.875 0.984375 10.25 0.828125 C 7.582031 0.671875 5.507812 -0.1875 4.03125 -1.75 C 2.550781 -3.3125 1.882812 -5.332031 2.03125 -7.8125 L 2.6875 -18.75 L 7.46875 -18.46875 L 6.8125 -7.53125 C 6.738281 -6.28125 7.039062 -5.257812 7.71875 -4.46875 C 8.40625 -3.6875 9.332031 -3.257812 10.5 -3.1875 C 11.65625 -3.113281 12.597656 -3.421875 13.328125 -4.109375 C 14.066406 -4.804688 14.472656 -5.789062 14.546875 -7.0625 L 15.203125 -18 Z M 19.96875 -17.71875 "/></g></g></g><g fill="#f7f1e5" fill-opacity="1"><g transform="translate(192.743189, 367.410546)"><g/></g></g><g fill="#f7f1e5" fill-opacity="1"><g transform="translate(204.20971, 366.972836)"><g><path d="M 13.703125 -5.671875 L 5.546875 -4.390625 L 4.734375 -0.75 L -0.140625 0.015625 L 4.984375 -19.890625 L 9.84375 -20.65625 L 20.65625 -3.25 L 15.59375 -2.453125 Z M 11.765625 -9.0625 L 8.015625 -15.546875 L 6.375 -8.203125 Z M 11.765625 -9.0625 "/></g></g></g><g fill="#f7f1e5" fill-opacity="1"><g transform="translate(230.161161, 362.439449)"><g><path d="M 10.859375 -13.484375 L 14.828125 -14.734375 L 17.046875 -7.71875 C 16.285156 -6.738281 15.28125 -5.8125 14.03125 -4.9375 C 12.789062 -4.0625 11.546875 -3.425781 10.296875 -3.03125 C 7.554688 -2.164062 4.988281 -2.316406 2.59375 -3.484375 C 0.207031 -4.660156 -1.398438 -6.5625 -2.234375 -9.1875 C -3.054688 -11.789062 -2.800781 -14.265625 -1.46875 -16.609375 C -0.132812 -18.960938 1.957031 -20.585938 4.8125 -21.484375 C 6.144531 -21.910156 7.546875 -22.09375 9.015625 -22.03125 C 10.484375 -21.96875 11.8125 -21.671875 13 -21.140625 L 11.421875 -17.203125 C 10.566406 -17.609375 9.65625 -17.847656 8.6875 -17.921875 C 7.726562 -17.992188 6.828125 -17.898438 5.984375 -17.640625 C 4.503906 -17.171875 3.425781 -16.269531 2.75 -14.9375 C 2.070312 -13.601562 1.972656 -12.179688 2.453125 -10.671875 C 2.929688 -9.140625 3.835938 -8.019531 5.171875 -7.3125 C 6.515625 -6.601562 7.929688 -6.488281 9.421875 -6.96875 C 10.390625 -7.269531 11.359375 -7.894531 12.328125 -8.84375 Z M 10.859375 -13.484375 "/></g></g></g><g fill="#f7f1e5" fill-opacity="1"><g transform="translate(254.422386, 354.328317)"><g><path d="M 11.9375 -5.796875 L 7.09375 -9.359375 L 6.953125 -9.296875 L 3.6875 -7.703125 L 6.015625 -2.921875 L 1.703125 -0.828125 L -6.546875 -17.796875 L 1.03125 -21.484375 C 3.28125 -22.578125 5.269531 -22.910156 7 -22.484375 C 8.726562 -22.054688 10.050781 -20.898438 10.96875 -19.015625 C 12.238281 -16.390625 12.097656 -14.070312 10.546875 -12.0625 L 16.828125 -8.1875 Z M 2.046875 -11.09375 L 5.3125 -12.6875 C 6.25 -13.144531 6.863281 -13.734375 7.15625 -14.453125 C 7.445312 -15.171875 7.375 -15.976562 6.9375 -16.875 C 6.519531 -17.738281 5.9375 -18.273438 5.1875 -18.484375 C 4.445312 -18.691406 3.609375 -18.566406 2.671875 -18.109375 L -0.59375 -16.515625 Z M 2.046875 -11.09375 "/></g></g></g><g fill="#f7f1e5" fill-opacity="1"><g transform="translate(276.400266, 342.980629)"><g><path d="M 5.65625 -3.578125 L 1.59375 -1.015625 L -8.5 -16.96875 L -4.4375 -19.53125 Z M 5.65625 -3.578125 "/></g></g></g><g fill="#f7f1e5" fill-opacity="1"><g transform="translate(288.051463, 335.600251)"><g><path d="M -3.484375 -21.578125 C -2.378906 -22.453125 -1.117188 -23.082031 0.296875 -23.46875 C 1.710938 -23.863281 3.097656 -23.988281 4.453125 -23.84375 L 4.34375 -19.53125 C 3.382812 -19.738281 2.429688 -19.75 1.484375 -19.5625 C 0.546875 -19.375 -0.25 -19.015625 -0.90625 -18.484375 C -2.070312 -17.554688 -2.71875 -16.367188 -2.84375 -14.921875 C -2.976562 -13.472656 -2.566406 -12.144531 -1.609375 -10.9375 C -0.617188 -9.695312 0.597656 -8.972656 2.046875 -8.765625 C 3.492188 -8.554688 4.800781 -8.914062 5.96875 -9.84375 C 6.59375 -10.34375 7.113281 -11.015625 7.53125 -11.859375 C 7.957031 -12.703125 8.21875 -13.597656 8.3125 -14.546875 L 12.34375 -13.96875 C 12.1875 -12.519531 11.757812 -11.113281 11.0625 -9.75 C 10.375 -8.382812 9.488281 -7.273438 8.40625 -6.421875 C 6.1875 -4.648438 3.757812 -3.898438 1.125 -4.171875 C -1.507812 -4.441406 -3.691406 -5.660156 -5.421875 -7.828125 C -7.109375 -9.953125 -7.769531 -12.328125 -7.40625 -14.953125 C -7.039062 -17.578125 -5.734375 -19.785156 -3.484375 -21.578125 Z M -3.484375 -21.578125 "/></g></g></g><g fill="#f7f1e5" fill-opacity="1"><g transform="translate(306.814667, 320.253543)"><g><path d="M -6.5625 -20.90625 C -4.570312 -23.050781 -2.25 -24.210938 0.40625 -24.390625 C 3.070312 -24.566406 5.40625 -23.726562 7.40625 -21.875 C 9.425781 -20 10.445312 -17.710938 10.46875 -15.015625 C 10.5 -12.328125 9.519531 -9.914062 7.53125 -7.78125 C 5.550781 -5.644531 3.222656 -4.492188 0.546875 -4.328125 C -2.117188 -4.171875 -4.46875 -5.035156 -6.5 -6.921875 C -8.507812 -8.785156 -9.519531 -11.046875 -9.53125 -13.703125 C -9.539062 -16.367188 -8.550781 -18.769531 -6.5625 -20.90625 Z M -3.578125 -18.1875 C -4.578125 -17.113281 -5.039062 -15.832031 -4.96875 -14.34375 C -4.90625 -12.863281 -4.289062 -11.582031 -3.125 -10.5 C -1.96875 -9.425781 -0.632812 -8.898438 0.875 -8.921875 C 2.382812 -8.941406 3.632812 -9.484375 4.625 -10.546875 C 5.625 -11.617188 6.070312 -12.898438 5.96875 -14.390625 C 5.863281 -15.878906 5.226562 -17.160156 4.0625 -18.234375 C 2.90625 -19.316406 1.585938 -19.847656 0.109375 -19.828125 C -1.359375 -19.804688 -2.585938 -19.257812 -3.578125 -18.1875 Z M -3.578125 -18.1875 "/></g></g></g><g fill="#f7f1e5" fill-opacity="1"><g transform="translate(324.862237, 299.951793)"><g><path d="M 0.5625 -7.78125 L 5.15625 -14.34375 L 8.4375 -12.046875 L 1.078125 -1.546875 L -14.375 -12.375 L -11.609375 -16.3125 Z M 0.5625 -7.78125 "/></g></g></g><g fill="#f7f1e5" fill-opacity="1"><g transform="translate(336.410399, 283.044917)"><g><path d="M -5.625 -21.796875 L -10.265625 -12.953125 L -6.953125 -11.203125 L -2.765625 -19.1875 L 0.59375 -17.4375 L -3.59375 -9.453125 L -0.234375 -7.6875 L 4.546875 -16.78125 L 7.890625 -15.015625 L 0.875 -1.671875 L -15.828125 -10.453125 L -8.953125 -23.546875 Z M -5.625 -21.796875 "/></g></g></g></svg>