<svg xmlns="http://www.w3.org/2000/svg" xmlns:xlink="http://www.w3.org/1999/xlink" width="500" zoomAndPan="magnify" viewBox="0 0 375 374.999991" height="500" preserveAspectRatio="xMidYMid meet" version="1.0"><path fill="#f3bd50" d="M 353.648438 64.585938 C 350.199219 88.722656 305.472656 102.292969 253.785156 94.886719 C 202.097656 87.476562 162.984375 61.890625 166.433594 37.753906 C 169.882812 13.613281 214.628906 0.0234375 266.316406 7.453125 C 318.003906 14.878906 357.035156 40.425781 353.648438 64.585938 Z M 353.648438 64.585938 " fill-opacity="1" fill-rule="nonzero"/><path fill="#e75050" d="M 349.707031 245.042969 C 326.863281 238.289062 256.84375 214.4375 223.53125 149.652344 C 215.242188 133.570312 192.910156 90.96875 211.28125 57.503906 C 213.160156 54.097656 224.347656 33.855469 247.433594 29.550781 C 263.765625 26.507812 281.648438 32.324219 292.039062 43.957031 C 300.511719 53.445312 297.082031 59.054688 307.289062 89.703125 C 313.839844 109.394531 317.128906 119.226562 323.617188 126.859375 C 338.09375 143.917969 350.851562 138.816406 363.566406 155.425781 C 374.734375 170.097656 374.816406 187.09375 374.835938 191.992188 C 374.960938 222.578125 353.28125 241.960938 349.707031 245.042969 Z M 349.707031 245.042969 " fill-opacity="1" fill-rule="nonzero"/><path fill="#f49676" d="M 284.035156 72.277344 C 284.746094 72.082031 285.472656 71.964844 286.207031 71.917969 C 286.945312 71.875 287.675781 71.90625 288.40625 72.015625 C 289.136719 72.121094 289.847656 72.304688 290.539062 72.558594 C 291.230469 72.816406 291.886719 73.140625 292.511719 73.53125 C 293.136719 73.921875 293.714844 74.375 294.246094 74.886719 C 294.773438 75.398438 295.246094 75.960938 295.660156 76.570312 C 296.074219 77.179688 296.421875 77.824219 296.703125 78.507812 C 296.984375 79.1875 297.191406 79.890625 297.324219 80.617188 C 297.457031 81.339844 297.515625 82.070312 297.5 82.808594 C 297.480469 83.546875 297.386719 84.273438 297.21875 84.988281 C 297.050781 85.707031 296.808594 86.398438 296.496094 87.066406 C 296.183594 87.734375 295.804688 88.363281 295.363281 88.953125 C 294.917969 89.542969 294.421875 90.078125 293.867188 90.566406 C 293.3125 91.050781 292.710938 91.472656 292.070312 91.835938 C 291.425781 92.195312 290.753906 92.488281 290.050781 92.710938 C 289.347656 92.929688 288.628906 93.078125 287.894531 93.152344 C 285.789062 98.046875 284.339844 103.128906 283.550781 108.398438 C 282.761719 113.667969 282.660156 118.949219 283.242188 124.246094 C 283.945312 130.320312 285.546875 136.148438 288.039062 141.734375 C 292.746094 141.125 297.457031 141.101562 302.171875 141.65625 C 306.886719 142.210938 311.464844 143.332031 315.902344 145.019531 C 311.289062 192.847656 283.75 222.085938 262.03125 220.515625 C 244.269531 219.230469 221.734375 196.703125 224.53125 174.441406 C 225.113281 170.628906 226.273438 167 228.019531 163.554688 C 229.765625 160.113281 232.003906 157.027344 234.738281 154.304688 L 259.664062 144.835938 L 258.007812 126.246094 C 247.679688 129.941406 241.003906 128.289062 237.59375 127.0625 C 220.589844 120.535156 210.792969 92.128906 218.101562 56.992188 L 281.382812 51.078125 Z M 284.035156 72.277344 " fill-opacity="1" fill-rule="nonzero"/><path fill="#e75050" d="M 226.675781 38.855469 C 228.214844 37.5625 229.839844 36.378906 231.546875 35.3125 C 233.253906 34.242188 235.023438 33.296875 236.859375 32.472656 C 238.699219 31.648438 240.582031 30.957031 242.515625 30.394531 C 244.449219 29.832031 246.410156 29.402344 248.402344 29.113281 C 250.394531 28.820312 252.398438 28.667969 254.410156 28.652344 C 256.421875 28.640625 258.429688 28.765625 260.425781 29.027344 C 262.421875 29.289062 264.386719 29.6875 266.328125 30.222656 C 268.269531 30.757812 270.164062 31.425781 272.011719 32.222656 C 275.253906 34.917969 278.027344 38.023438 280.339844 41.546875 C 282.652344 45.066406 284.402344 48.851562 285.589844 52.890625 C 290.652344 70.910156 281.28125 85.722656 279.730469 88.109375 C 277.375 83.125 274.03125 78.921875 269.707031 75.5 C 261.847656 69.378906 255.027344 70.09375 242.332031 63.074219 C 239.226562 61.347656 236.238281 59.4375 233.371094 57.339844 C 232.289062 60.925781 230.609375 64.207031 228.328125 67.175781 C 226.246094 69.792969 223.808594 72.023438 221.019531 73.867188 C 218.226562 75.710938 215.21875 77.078125 211.996094 77.96875 C 211.8125 76.4375 209.078125 53.832031 226.675781 38.855469 Z M 226.675781 38.855469 " fill-opacity="1" fill-rule="nonzero"/><path fill="#e75050" d="M 250.230469 90.945312 L 249.800781 90.945312 C 249.570312 90.949219 249.347656 90.992188 249.132812 91.078125 C 248.917969 91.160156 248.726562 91.285156 248.554688 91.441406 C 248.386719 91.597656 248.253906 91.78125 248.152344 91.992188 C 248.054688 92.199219 247.996094 92.417969 247.976562 92.652344 C 247.960938 92.882812 247.988281 93.105469 248.054688 93.328125 C 248.125 93.550781 248.230469 93.75 248.375 93.929688 C 248.519531 94.109375 248.691406 94.257812 248.894531 94.375 C 249.09375 94.488281 249.308594 94.566406 249.539062 94.597656 L 249.964844 94.597656 C 250.207031 94.617188 250.445312 94.585938 250.675781 94.511719 C 250.90625 94.433594 251.113281 94.316406 251.296875 94.160156 C 251.480469 94 251.625 93.8125 251.734375 93.59375 C 251.84375 93.378906 251.90625 93.148438 251.925781 92.90625 C 251.941406 92.664062 251.914062 92.425781 251.835938 92.195312 C 251.761719 91.964844 251.644531 91.757812 251.484375 91.574219 C 251.324219 91.390625 251.136719 91.246094 250.921875 91.136719 C 250.703125 91.027344 250.472656 90.964844 250.230469 90.945312 Z M 251.722656 108.128906 C 251.773438 107.875 251.738281 107.636719 251.609375 107.410156 C 251.484375 107.1875 251.296875 107.03125 251.050781 106.949219 C 250.808594 106.867188 250.566406 106.875 250.328125 106.976562 C 250.089844 107.074219 249.914062 107.242188 249.800781 107.476562 C 249.6875 107.890625 249.53125 108.289062 249.332031 108.675781 C 249.136719 109.058594 248.902344 109.417969 248.628906 109.753906 C 248.359375 110.089844 248.054688 110.394531 247.722656 110.671875 C 247.386719 110.945312 247.03125 111.179688 246.648438 111.382812 C 246.265625 111.582031 245.867188 111.742188 245.449219 111.863281 C 245.035156 111.980469 244.613281 112.058594 244.179688 112.089844 C 243.75 112.121094 243.320312 112.109375 242.890625 112.054688 C 242.464844 112 242.046875 111.902344 241.636719 111.757812 C 241.5 111.714844 241.363281 111.699219 241.222656 111.710938 C 241.078125 111.722656 240.945312 111.761719 240.820312 111.828125 C 240.691406 111.890625 240.582031 111.976562 240.492188 112.085938 C 240.398438 112.195312 240.332031 112.316406 240.289062 112.453125 C 240.246094 112.589844 240.230469 112.726562 240.242188 112.867188 C 240.253906 113.011719 240.289062 113.144531 240.355469 113.269531 C 240.421875 113.398438 240.507812 113.507812 240.617188 113.597656 C 240.726562 113.691406 240.847656 113.757812 240.984375 113.800781 C 241.523438 113.984375 242.074219 114.113281 242.636719 114.183594 C 243.203125 114.257812 243.769531 114.269531 244.335938 114.226562 C 244.902344 114.183594 245.460938 114.082031 246.007812 113.921875 C 246.554688 113.765625 247.078125 113.550781 247.582031 113.285156 C 248.085938 113.019531 248.554688 112.707031 248.992188 112.34375 C 249.433594 111.984375 249.828125 111.578125 250.1875 111.136719 C 250.542969 110.691406 250.847656 110.21875 251.109375 109.710938 C 251.367188 109.203125 251.570312 108.675781 251.722656 108.128906 Z M 268.480469 121.878906 C 268.480469 121.878906 268.480469 121.878906 268.214844 121.878906 C 268.074219 121.859375 267.929688 121.859375 267.789062 121.878906 C 267.324219 121.875 266.867188 121.9375 266.417969 122.0625 C 263.820312 122.800781 261.363281 123.871094 259.050781 125.265625 C 258.132812 125.777344 257.191406 126.347656 256.253906 126.921875 C 256.824219 126.738281 257.398438 126.554688 257.988281 126.328125 C 257.988281 126.839844 257.988281 127.328125 258.171875 127.839844 L 259.191406 127.839844 C 260.480469 127.667969 261.738281 127.375 262.96875 126.960938 C 264.214844 126.578125 265.398438 126.054688 266.519531 125.390625 C 267.441406 124.921875 268.164062 124.242188 268.683594 123.347656 C 268.828125 123.109375 268.878906 122.855469 268.84375 122.578125 C 268.804688 122.304688 268.683594 122.070312 268.480469 121.878906 Z M 259.050781 83.253906 C 260.171875 83.949219 261.296875 82.253906 260.191406 81.539062 C 258.320312 80.378906 256.296875 79.621094 254.121094 79.265625 C 251.945312 78.914062 249.785156 78.992188 247.640625 79.5 C 247.503906 79.527344 247.378906 79.578125 247.265625 79.65625 C 247.148438 79.734375 247.054688 79.828125 246.976562 79.945312 C 246.902344 80.058594 246.851562 80.183594 246.824219 80.320312 C 246.796875 80.453125 246.796875 80.589844 246.824219 80.722656 C 246.851562 80.859375 246.902344 80.984375 246.980469 81.097656 C 247.054688 81.214844 247.152344 81.308594 247.265625 81.386719 C 247.382812 81.460938 247.507812 81.511719 247.640625 81.539062 C 247.777344 81.566406 247.910156 81.566406 248.046875 81.539062 C 249.921875 81.082031 251.8125 81 253.71875 81.296875 C 255.628906 81.59375 257.402344 82.246094 259.050781 83.253906 Z M 229.550781 93.292969 L 229.125 93.292969 C 228.890625 93.292969 228.667969 93.335938 228.453125 93.421875 C 228.238281 93.507812 228.046875 93.628906 227.878906 93.789062 C 227.707031 93.945312 227.574219 94.128906 227.472656 94.335938 C 227.375 94.546875 227.316406 94.765625 227.296875 94.996094 C 227.28125 95.226562 227.308594 95.453125 227.375 95.675781 C 227.445312 95.894531 227.550781 96.097656 227.695312 96.277344 C 227.839844 96.457031 228.011719 96.605469 228.214844 96.722656 C 228.414062 96.835938 228.628906 96.910156 228.859375 96.945312 L 229.285156 96.945312 C 229.515625 96.9375 229.734375 96.890625 229.945312 96.800781 C 230.15625 96.710938 230.34375 96.582031 230.507812 96.421875 C 230.671875 96.261719 230.804688 96.078125 230.898438 95.871094 C 230.992188 95.660156 231.046875 95.441406 231.058594 95.214844 C 231.070312 94.984375 231.042969 94.761719 230.972656 94.542969 C 230.902344 94.324219 230.792969 94.125 230.648438 93.949219 C 230.503906 93.769531 230.332031 93.625 230.132812 93.511719 C 229.929688 93.398438 229.71875 93.328125 229.492188 93.292969 Z M 240.679688 102.109375 L 240.453125 102.109375 C 240.351562 102.136719 240.25 102.136719 240.148438 102.109375 C 239.9375 102.019531 239.75 101.890625 239.597656 101.71875 C 239.433594 101.511719 239.308594 101.28125 239.226562 101.027344 C 239.121094 100.660156 239.050781 100.285156 239.023438 99.90625 C 238.859375 98.210938 238.902344 96.476562 238.859375 94.78125 C 238.871094 94.648438 238.851562 94.515625 238.808594 94.386719 C 238.765625 94.257812 238.699219 94.144531 238.613281 94.042969 C 238.523438 93.9375 238.417969 93.859375 238.296875 93.796875 C 238.175781 93.738281 238.046875 93.703125 237.910156 93.691406 C 237.777344 93.683594 237.644531 93.699219 237.515625 93.742188 C 237.386719 93.785156 237.273438 93.851562 237.167969 93.941406 C 237.066406 94.03125 236.984375 94.132812 236.925781 94.253906 C 236.863281 94.375 236.828125 94.503906 236.820312 94.640625 L 236.820312 97.90625 C 236.796875 98.929688 236.859375 99.949219 237.003906 100.964844 C 237.167969 101.964844 237.632812 102.804688 238.390625 103.476562 C 238.753906 103.792969 239.171875 104.007812 239.640625 104.121094 C 240.109375 104.234375 240.578125 104.226562 241.046875 104.109375 C 241.316406 104.050781 241.53125 103.910156 241.691406 103.679688 C 241.847656 103.449219 241.90625 103.199219 241.863281 102.925781 C 241.804688 102.652344 241.664062 102.4375 241.433594 102.277344 C 241.203125 102.121094 240.953125 102.0625 240.679688 102.109375 Z M 231.164062 80.644531 C 229.558594 80.4375 227.984375 80.574219 226.441406 81.054688 C 224.894531 81.53125 223.515625 82.304688 222.304688 83.375 C 222.136719 83.570312 222.054688 83.796875 222.058594 84.050781 C 222.058594 84.308594 222.144531 84.53125 222.316406 84.722656 C 222.488281 84.914062 222.699219 85.023438 222.953125 85.054688 C 223.207031 85.085938 223.441406 85.03125 223.652344 84.886719 C 224.671875 83.988281 225.832031 83.347656 227.132812 82.960938 C 228.4375 82.574219 229.761719 82.484375 231.105469 82.683594 C 231.382812 82.691406 231.625 82.601562 231.832031 82.417969 C 232.042969 82.230469 232.160156 82 232.1875 81.722656 C 232.199219 81.449219 232.113281 81.207031 231.933594 80.996094 C 231.75 80.789062 231.523438 80.667969 231.246094 80.644531 Z M 231.164062 80.644531 " fill-opacity="1" fill-rule="nonzero"/><path fill="#9bbbe4" d="M 213.589844 205.96875 C 213.589844 195.765625 213.589844 177.542969 225.835938 162.914062 C 227.742188 160.660156 229.8125 158.566406 232.050781 156.640625 C 234.289062 154.714844 236.664062 152.976562 239.175781 151.425781 C 241.691406 149.878906 244.3125 148.535156 247.039062 147.402344 C 249.765625 146.269531 252.566406 145.359375 255.4375 144.671875 C 248.679688 154.875 248.375 166.628906 254.191406 174.339844 C 254.621094 174.933594 260.070312 181.992188 266.992188 181.769531 C 277.199219 181.460938 287.589844 165.566406 290.242188 141.488281 C 294.296875 141.089844 298.347656 141.089844 302.402344 141.5 C 306.457031 141.90625 310.429688 142.710938 314.320312 143.910156 C 318.214844 145.109375 321.949219 146.683594 325.527344 148.628906 C 329.105469 150.574219 332.457031 152.851562 335.582031 155.464844 C 350.421875 168.136719 354.257812 185.828125 356.402344 197.417969 C 368.261719 261.304688 369.976562 361.980469 370.222656 379.121094 L 223.46875 380.121094 C 216.609375 301.460938 213.8125 240.0625 213.589844 205.96875 Z M 213.589844 205.96875 " fill-opacity="1" fill-rule="nonzero"/><path fill="#e75050" d="M 114.886719 363.082031 C 63.078125 349.023438 -0.0195312 307.398438 6.367188 270.8125 C 8.125 260.734375 15.574219 248.816406 27.292969 244.472656 C 75.347656 226.679688 171.824219 345.25 156.796875 366.183594 C 151.816406 373.101562 135.199219 368.613281 114.886719 363.082031 Z M 114.886719 363.082031 " fill-opacity="1" fill-rule="nonzero"/><path fill="#f3bd50" d="M 145.835938 278.21875 C 99.945312 250.265625 51.136719 192.542969 67.488281 159.28125 C 72 150.101562 82.492188 140.734375 94.945312 139.835938 C 145.976562 136.203125 205.484375 277.015625 185.191406 292.871094 C 178.476562 298.175781 163.800781 289.199219 145.835938 278.21875 Z M 145.835938 278.21875 " fill-opacity="1" fill-rule="nonzero"/><path fill="#e75050" d="M 120.707031 258 C 124.585938 204.375 153.367188 134.59375 190.542969 133.859375 C 200.75 133.652344 213.894531 138.671875 220.40625 149.34375 C 247.085938 193.09375 149.144531 310.542969 125.707031 299.6875 C 117.949219 296.136719 119.195312 278.976562 120.707031 258 Z M 120.707031 258 " fill-opacity="1" fill-rule="nonzero"/><path fill="#807a27" d="M 59.464844 316.335938 C 28.152344 271.894531 56.117188 197.214844 99.824219 184.605469 C 121.972656 178.21875 143.835938 189.050781 154.941406 195.582031 C 191.910156 176.992188 208.179688 184.746094 213.566406 188.214844 C 242.984375 207.253906 241.390625 288.871094 194.03125 326.152344 C 155.816406 356.164062 88.289062 357.226562 59.464844 316.335938 Z M 59.464844 316.335938 " fill-opacity="1" fill-rule="nonzero"/><path fill="#807a27" d="M 19.617188 215.109375 C 19.085938 224.265625 19.359375 233.398438 20.429688 242.507812 C 21.503906 251.617188 23.363281 260.5625 26.007812 269.34375 C 26.09375 269.464844 26.144531 269.601562 26.160156 269.75 C 26.179688 269.894531 26.164062 270.039062 26.109375 270.179688 C 26.054688 270.316406 25.972656 270.4375 25.863281 270.535156 C 25.75 270.632812 25.621094 270.699219 25.476562 270.730469 L 25.128906 270.730469 C 25.117188 270.878906 25.074219 271.015625 25.003906 271.148438 C 24.933594 271.277344 24.84375 271.386719 24.726562 271.476562 C 24.609375 271.570312 24.480469 271.632812 24.335938 271.671875 C 24.195312 271.707031 24.050781 271.714844 23.90625 271.691406 C 18.875 270.851562 14.242188 269.015625 10.003906 266.183594 C 9.761719 266.039062 9.605469 265.835938 9.527344 265.566406 C 9.445312 265.300781 9.46875 265.042969 9.59375 264.792969 C 9.734375 264.550781 9.9375 264.390625 10.207031 264.308594 C 10.476562 264.230469 10.734375 264.257812 10.984375 264.386719 C 14.847656 267.003906 19.074219 268.746094 23.660156 269.609375 C 20.535156 265.34375 17.871094 260.804688 15.675781 255.992188 C 13.480469 251.183594 11.792969 246.199219 10.613281 241.042969 C 10.328125 239.777344 12.289062 239.207031 12.65625 240.492188 C 14.585938 248.914062 17.84375 256.78125 22.433594 264.101562 C 18.257812 248.03125 16.648438 231.707031 17.597656 215.128906 C 17.65625 213.84375 19.699219 213.804688 19.617188 215.109375 Z M 78.082031 97.046875 C 77.550781 106.203125 77.824219 115.335938 78.894531 124.445312 C 79.96875 133.554688 81.828125 142.5 84.472656 151.285156 C 84.558594 151.40625 84.609375 151.539062 84.625 151.6875 C 84.644531 151.835938 84.625 151.980469 84.570312 152.117188 C 84.511719 152.253906 84.425781 152.371094 84.3125 152.464844 C 84.199219 152.5625 84.066406 152.621094 83.921875 152.652344 C 83.804688 152.671875 83.6875 152.671875 83.574219 152.652344 C 83.5625 152.796875 83.519531 152.933594 83.449219 153.0625 C 83.378906 153.191406 83.285156 153.300781 83.167969 153.390625 C 83.054688 153.480469 82.921875 153.542969 82.78125 153.578125 C 82.636719 153.613281 82.492188 153.617188 82.347656 153.589844 C 77.34375 152.730469 72.738281 150.882812 68.527344 148.039062 C 68.410156 147.972656 68.308594 147.890625 68.222656 147.785156 C 68.136719 147.675781 68.074219 147.558594 68.039062 147.429688 C 68 147.300781 67.988281 147.167969 68 147.03125 C 68.015625 146.898438 68.054688 146.769531 68.121094 146.652344 C 68.1875 146.53125 68.269531 146.429688 68.375 146.34375 C 68.480469 146.261719 68.601562 146.199219 68.730469 146.160156 C 68.859375 146.121094 68.992188 146.109375 69.128906 146.125 C 69.261719 146.140625 69.390625 146.179688 69.507812 146.242188 C 73.371094 148.851562 77.589844 150.59375 82.164062 151.46875 C 79.0625 147.199219 76.421875 142.664062 74.238281 137.859375 C 72.058594 133.058594 70.378906 128.085938 69.203125 122.941406 C 68.917969 121.65625 70.875 121.105469 71.242188 122.390625 C 73.160156 130.808594 76.417969 138.671875 81.023438 145.976562 C 76.835938 129.910156 75.222656 113.585938 76.183594 97.007812 C 76.101562 95.761719 78.144531 95.722656 78.082031 97.046875 Z M 203.320312 91.601562 C 201.660156 100.617188 200.796875 109.714844 200.730469 118.882812 C 200.664062 128.054688 201.398438 137.160156 202.933594 146.203125 C 203.007812 146.335938 203.042969 146.476562 203.046875 146.628906 C 203.046875 146.777344 203.011719 146.921875 202.9375 147.054688 C 202.863281 147.1875 202.765625 147.292969 202.636719 147.375 C 202.507812 147.453125 202.371094 147.5 202.21875 147.507812 L 201.890625 147.507812 C 201.859375 147.652344 201.800781 147.78125 201.71875 147.902344 C 201.632812 148.019531 201.527344 148.117188 201.402344 148.191406 C 201.273438 148.269531 201.140625 148.316406 200.992188 148.335938 C 200.847656 148.355469 200.707031 148.34375 200.566406 148.304688 C 195.726562 146.820312 191.40625 144.414062 187.601562 141.082031 C 187.382812 140.914062 187.253906 140.691406 187.210938 140.421875 C 187.167969 140.148438 187.222656 139.902344 187.378906 139.671875 C 187.457031 139.5625 187.550781 139.46875 187.667969 139.398438 C 187.78125 139.324219 187.90625 139.277344 188.039062 139.253906 C 188.175781 139.230469 188.308594 139.234375 188.441406 139.265625 C 188.574219 139.292969 188.695312 139.347656 188.804688 139.429688 C 192.28125 142.496094 196.222656 144.753906 200.625 146.203125 C 198.054688 141.574219 195.976562 136.734375 194.390625 131.683594 C 192.804688 126.632812 191.746094 121.476562 191.214844 116.207031 C 191.09375 114.902344 193.113281 114.574219 193.257812 115.902344 C 194.125 124.492188 196.386719 132.703125 200.035156 140.53125 C 197.886719 124.085938 198.308594 107.707031 201.300781 91.394531 C 201.523438 90.089844 203.546875 90.292969 203.320312 91.601562 Z M 203.320312 91.601562 " fill-opacity="1" fill-rule="nonzero"/><path fill="#e75050" d="M 205.832031 201.296875 C 202.527344 198.78125 198.933594 196.796875 195.042969 195.347656 C 191.148438 193.898438 187.132812 193.046875 182.988281 192.785156 C 178.351562 192.617188 173.746094 192.925781 169.175781 193.703125 C 164.601562 194.484375 160.15625 195.722656 155.839844 197.417969 C 155.792969 197.292969 155.71875 197.191406 155.613281 197.113281 C 155.648438 194.265625 155.945312 191.441406 156.492188 188.648438 C 157.042969 185.851562 157.84375 183.128906 158.890625 180.480469 C 159.9375 177.832031 161.210938 175.296875 162.71875 172.878906 C 164.226562 170.464844 165.941406 168.203125 167.863281 166.097656 C 168.738281 165.136719 167.269531 163.730469 166.371094 164.6875 C 164.335938 166.917969 162.523438 169.316406 160.929688 171.882812 C 159.339844 174.449219 157.996094 177.136719 156.902344 179.953125 C 155.808594 182.765625 154.980469 185.65625 154.421875 188.625 C 153.859375 191.589844 153.578125 194.582031 153.574219 197.601562 C 151.179688 197.136719 148.765625 196.820312 146.335938 196.648438 C 143.902344 196.480469 141.46875 196.460938 139.035156 196.59375 C 136.601562 196.722656 134.183594 197.003906 131.785156 197.429688 C 129.386719 197.859375 127.019531 198.433594 124.691406 199.152344 C 122.363281 199.871094 120.085938 200.730469 117.863281 201.730469 C 115.640625 202.726562 113.484375 203.859375 111.402344 205.125 C 109.316406 206.386719 107.320312 207.773438 105.40625 209.285156 C 103.492188 210.796875 101.679688 212.417969 99.964844 214.148438 C 92.230469 222.109375 87.289062 232.269531 83.636719 242.714844 C 79.9375 253.652344 77.21875 264.828125 75.46875 276.242188 C 73.40625 289.144531 72.488281 302.128906 72.714844 315.195312 C 72.714844 315.328125 72.738281 315.457031 72.792969 315.582031 C 72.84375 315.707031 72.917969 315.820312 73.011719 315.914062 C 73.109375 316.011719 73.21875 316.085938 73.34375 316.136719 C 73.46875 316.1875 73.597656 316.214844 73.734375 316.214844 C 73.871094 316.214844 74 316.1875 74.125 316.136719 C 74.25 316.085938 74.359375 316.011719 74.457031 315.914062 C 74.550781 315.820312 74.625 315.707031 74.675781 315.582031 C 74.730469 315.457031 74.753906 315.328125 74.753906 315.195312 C 74.546875 303.933594 75.203125 292.722656 76.722656 281.566406 C 78.242188 270.40625 80.605469 259.429688 83.820312 248.632812 C 86.984375 238.0625 91.269531 227.554688 98.332031 218.945312 C 101.449219 215.183594 105 211.890625 108.984375 209.066406 C 112.96875 206.238281 117.25 203.976562 121.828125 202.273438 C 126.246094 200.597656 130.804688 199.488281 135.5 198.945312 C 140.195312 198.402344 144.886719 198.445312 149.570312 199.070312 C 146.886719 199.824219 144.34375 200.910156 141.941406 202.328125 C 139.539062 203.746094 137.359375 205.449219 135.402344 207.4375 C 130.019531 213.15625 126.035156 219.726562 123.460938 227.148438 C 117.792969 242.191406 113.886719 257.675781 111.746094 273.609375 C 110.457031 282.582031 109.703125 291.601562 109.480469 300.664062 C 109.480469 301.972656 111.519531 301.929688 111.519531 300.664062 C 111.925781 285.175781 113.863281 269.878906 117.339844 254.777344 C 119.0625 247.273438 121.164062 239.882812 123.644531 232.59375 C 125.910156 225.125 129.378906 218.261719 134.058594 212.007812 C 135.226562 210.46875 136.535156 209.058594 137.976562 207.773438 C 139.421875 206.484375 140.972656 205.347656 142.632812 204.363281 C 144.296875 203.375 146.035156 202.554688 147.855469 201.898438 C 149.675781 201.246094 151.539062 200.773438 153.449219 200.480469 C 150.726562 226.324219 148.773438 252.226562 147.589844 278.179688 C 147.265625 285.6875 147 293.21875 146.796875 300.625 C 146.796875 301.949219 148.835938 301.910156 148.835938 300.625 C 149.558594 273.8125 151.117188 247.042969 153.511719 220.3125 C 154.125 213.511719 154.804688 206.777344 155.550781 200.113281 C 155.746094 200.023438 155.894531 199.886719 156 199.703125 C 158.652344 200.644531 161.195312 201.824219 163.625 203.242188 C 166.054688 204.65625 168.335938 206.285156 170.460938 208.125 C 172.589844 209.96875 174.527344 211.988281 176.273438 214.191406 C 178.023438 216.394531 179.554688 218.742188 180.867188 221.230469 C 186.988281 232.1875 188.683594 244.921875 187.910156 257.285156 C 187.558594 262.921875 186.777344 268.5 185.5625 274.015625 C 185.421875 274.003906 185.285156 274.015625 185.15625 274.058594 C 185.023438 274.101562 184.902344 274.171875 184.800781 274.265625 C 184.699219 274.359375 184.617188 274.46875 184.5625 274.597656 C 184.503906 274.722656 184.476562 274.855469 184.480469 274.996094 L 184.480469 278.914062 C 184.464844 279.050781 184.476562 279.183594 184.515625 279.3125 C 184.550781 279.441406 184.613281 279.5625 184.699219 279.667969 C 184.785156 279.773438 184.886719 279.859375 185.003906 279.925781 C 185.125 279.992188 185.253906 280.03125 185.386719 280.046875 C 185.523438 280.058594 185.65625 280.046875 185.785156 280.011719 C 185.917969 279.972656 186.035156 279.910156 186.140625 279.828125 C 186.246094 279.742188 186.332031 279.640625 186.398438 279.519531 C 186.464844 279.402344 186.503906 279.273438 186.519531 279.136719 C 188.339844 272.730469 189.492188 266.207031 189.980469 259.566406 C 190.46875 252.921875 190.28125 246.300781 189.417969 239.695312 C 188.976562 236.605469 188.28125 233.570312 187.332031 230.597656 C 186.382812 227.621094 185.195312 224.746094 183.765625 221.964844 C 182.339844 219.1875 180.691406 216.546875 178.824219 214.042969 C 176.957031 211.542969 174.894531 209.210938 172.640625 207.050781 C 168.644531 203.316406 164.105469 200.4375 159.023438 198.417969 C 165.71875 196.050781 172.621094 194.792969 179.722656 194.644531 C 183.777344 194.578125 187.75 195.113281 191.644531 196.25 C 195.539062 197.382812 199.179688 199.0625 202.566406 201.296875 C 216.855469 210.886719 223.816406 227.820312 226.449219 244.144531 C 227.886719 254.644531 228.566406 265.195312 228.492188 275.792969 C 228.492188 275.925781 228.515625 276.058594 228.570312 276.183594 C 228.621094 276.308594 228.695312 276.417969 228.789062 276.511719 C 228.886719 276.609375 228.996094 276.683594 229.121094 276.734375 C 229.246094 276.785156 229.375 276.8125 229.511719 276.8125 C 229.648438 276.8125 229.777344 276.785156 229.902344 276.734375 C 230.027344 276.683594 230.136719 276.609375 230.234375 276.511719 C 230.328125 276.417969 230.402344 276.308594 230.453125 276.183594 C 230.507812 276.058594 230.53125 275.925781 230.53125 275.792969 C 230.226562 257.121094 229.878906 237.511719 221.347656 220.433594 C 219.515625 216.699219 217.292969 213.21875 214.671875 209.988281 C 212.054688 206.757812 209.105469 203.859375 205.832031 201.296875 Z M 205.832031 201.296875 " fill-opacity="1" fill-rule="nonzero"/><path fill="#f3bd50" d="M 20.371094 316.824219 L 244.554688 247.285156 C 243.914062 262.28125 241.5 276.988281 237.308594 291.402344 C 230.226562 315.886719 219.710938 355.003906 187.296875 371.777344 C 146.589844 392.8125 96.515625 370 77.226562 361.207031 C 71.675781 358.726562 66.300781 355.917969 61.089844 352.785156 C 55.882812 349.652344 50.886719 346.214844 46.09375 342.476562 C 41.304688 338.738281 36.757812 334.722656 32.457031 330.429688 C 28.152344 326.140625 24.125 321.605469 20.371094 316.824219 Z M 20.371094 316.824219 " fill-opacity="1" fill-rule="nonzero"/><path fill="#f49676" d="M 115.152344 358.289062 C 112.910156 360.777344 111.398438 363.734375 110.296875 363.347656 C 109.191406 362.960938 109.601562 358.820312 109.640625 358.429688 C 109.960938 356.082031 110.8125 353.949219 112.195312 352.023438 C 110.265625 353.664062 108.445312 355.414062 106.722656 357.269531 C 102.539062 361.796875 100.597656 365.101562 99.722656 364.695312 C 98.84375 364.285156 99.558594 360.164062 99.722656 359.777344 C 100.71875 355.921875 102.488281 352.460938 105.027344 349.390625 C 102.671875 351.476562 100.445312 353.691406 98.351562 356.042969 C 95.292969 359.289062 93.984375 360.675781 93.351562 360.347656 C 92.71875 360.023438 93.351562 356.980469 93.453125 356.511719 C 94.230469 354.355469 95.289062 352.347656 96.636719 350.492188 C 97.984375 348.632812 99.5625 347.003906 101.375 345.597656 C 97.984375 347.605469 95.023438 350.121094 92.496094 353.144531 C 91.574219 354.207031 90.597656 355.429688 89.941406 355.1875 C 89.289062 354.941406 89.125 352.289062 89.617188 350.25 C 91.25 343.433594 98.761719 339.78125 98.414062 339.25 C 98.066406 338.71875 91.839844 342.882812 90.839844 341.800781 C 89.839844 340.71875 93.023438 336.964844 94.128906 335.679688 C 103.171875 324.660156 124.21875 323.273438 125.542969 323.171875 C 155.347656 321.132812 167.207031 295.625 239.515625 264.917969 C 249.089844 260.835938 261.96875 255.753906 271.238281 261.714844 C 272.054688 262.292969 272.824219 262.925781 273.550781 263.613281 C 274.28125 264.300781 274.957031 265.035156 275.582031 265.816406 C 276.207031 266.597656 276.773438 267.417969 277.28125 268.28125 C 277.792969 269.140625 278.238281 270.035156 278.621094 270.957031 C 279.007812 271.878906 279.324219 272.828125 279.578125 273.792969 C 279.828125 274.761719 280.011719 275.746094 280.125 276.738281 C 280.238281 277.730469 280.285156 278.730469 280.257812 279.730469 C 280.234375 280.730469 280.140625 281.722656 279.972656 282.710938 C 278.117188 292.21875 268.890625 297.789062 261.011719 301.949219 C 217.671875 324.84375 165.941406 332.375 145.875 342.921875 C 141.871094 345.285156 137.746094 347.421875 133.503906 349.332031 C 123.726562 353.492188 119.5 353.453125 115.152344 358.289062 Z M 115.152344 358.289062 " fill-opacity="1" fill-rule="nonzero"/><path fill="#9bbbe4" d="M 230.472656 255.449219 L 269.765625 308.765625 L 341.949219 251.164062 L 280.710938 206.273438 Z M 230.472656 255.449219 " fill-opacity="1" fill-rule="nonzero"/><path fill="#e75050" d="M 277.890625 217.007812 C 261.480469 229.65625 245.34375 242.667969 229.492188 256.039062 C 228.492188 256.878906 227.042969 255.429688 228.042969 254.59375 C 244.03125 241.109375 260.308594 227.992188 276.871094 215.230469 C 277.914062 214.4375 278.914062 216.210938 277.890625 217.007812 Z M 321.230469 261.714844 L 277.832031 297.074219 L 266.460938 306.335938 L 261.746094 300.605469 C 260.90625 299.582031 259.457031 301.03125 260.296875 302.03125 L 265.601562 308.480469 C 265.804688 308.667969 266.042969 308.765625 266.316406 308.765625 C 266.59375 308.765625 266.832031 308.667969 267.03125 308.480469 L 310.453125 273.121094 L 322.699219 263.160156 C 323.699219 262.324219 322.332031 260.898438 321.230469 261.714844 Z M 321.230469 261.714844 " fill-opacity="1" fill-rule="nonzero"/></svg>