<svg xmlns="http://www.w3.org/2000/svg" xmlns:xlink="http://www.w3.org/1999/xlink" width="500" zoomAndPan="magnify" viewBox="0 0 375 374.999991" height="500" preserveAspectRatio="xMidYMid meet" version="1.0"><defs><filter x="0%" y="0%" width="100%" height="100%" id="38e06344e7"><feColorMatrix values="0 0 0 0 1 0 0 0 0 1 0 0 0 0 1 0 0 0 1 0" color-interpolation-filters="sRGB"/></filter><clipPath id="c8cb41c3dd"><path d="M 0 32.578125 L 375 32.578125 L 375 342.328125 L 0 342.328125 Z M 0 32.578125 " clip-rule="nonzero"/></clipPath><mask id="ce3772f44c"><g filter="url(#38e06344e7)"><rect x="-37.5" width="450" fill="#000000" y="-37.499999" height="449.999989" fill-opacity="0.298"/></g></mask><clipPath id="177a3b7d26"><path d="M 0 0.578125 L 375 0.578125 L 375 310.328125 L 0 310.328125 Z M 0 0.578125 " clip-rule="nonzero"/></clipPath><clipPath id="677e59a98a"><rect x="0" width="375" y="0" height="311"/></clipPath><clipPath id="0dee8ab299"><path d="M 0 32.578125 L 375 32.578125 L 375 342.328125 L 0 342.328125 Z M 0 32.578125 " clip-rule="nonzero"/></clipPath><clipPath id="1f286611ae"><path d="M 0 32.578125 L 210 32.578125 L 210 342.328125 L 0 342.328125 Z M 0 32.578125 " clip-rule="nonzero"/></clipPath><clipPath id="ef7d53e2ff"><path d="M 0 246 L 114 246 L 114 342.328125 L 0 342.328125 Z M 0 246 " clip-rule="nonzero"/></clipPath><clipPath id="33b8936d3e"><path d="M 9 32.578125 L 214 32.578125 L 214 342.328125 L 9 342.328125 Z M 9 32.578125 " clip-rule="nonzero"/></clipPath><mask id="fa4efa311c"><g filter="url(#38e06344e7)"><rect x="-37.5" width="450" fill="#000000" y="-37.499999" height="449.999989" fill-opacity="0.698"/></g></mask><clipPath id="713a6b5689"><path d="M 0.160156 0.398438 L 371.679688 0.398438 L 371.679688 299 L 0.160156 299 Z M 0.160156 0.398438 " clip-rule="nonzero"/></clipPath><clipPath id="a537ef1303"><rect x="0" width="372" y="0" height="300"/></clipPath><clipPath id="855c65b722"><path d="M 48 32.578125 L 361 32.578125 L 361 337 L 48 337 Z M 48 32.578125 " clip-rule="nonzero"/></clipPath><mask id="1d727edd86"><g filter="url(#38e06344e7)"><rect x="-37.5" width="450" fill="#000000" y="-37.499999" height="449.999989" fill-opacity="0.498"/></g></mask><clipPath id="adcf307671"><path d="M 1 0.578125 L 312.71875 0.578125 L 312.71875 304.960938 L 1 304.960938 Z M 1 0.578125 " clip-rule="nonzero"/></clipPath><clipPath id="b8e99f851f"><rect x="0" width="313" y="0" height="305"/></clipPath><clipPath id="5c43566dcb"><path d="M 11 32.578125 L 360 32.578125 L 360 318 L 11 318 Z M 11 32.578125 " clip-rule="nonzero"/></clipPath><clipPath id="740bef6a87"><path d="M 7 60 L 370 60 L 370 342.328125 L 7 342.328125 Z M 7 60 " clip-rule="nonzero"/></clipPath></defs><g clip-path="url(#c8cb41c3dd)"><path fill="#ffffff" d="M 0.0351562 32.578125 L 374.964844 32.578125 L 374.964844 342.328125 L 0.0351562 342.328125 Z M 0.0351562 32.578125 " fill-opacity="1" fill-rule="nonzero"/><g mask="url(#ce3772f44c)"><g transform="matrix(1, 0, 0, 1, 0, 32)"><g clip-path="url(#677e59a98a)"><g clip-path="url(#177a3b7d26)"><path fill="#e7b10a" d="M 0.0351562 0.578125 L 374.964844 0.578125 L 374.964844 310.328125 L 0.0351562 310.328125 Z M 0.0351562 0.578125 " fill-opacity="1" fill-rule="nonzero"/></g></g></g></g><path fill="#4c4b16" d="M 374.964844 83.359375 L 374.964844 131.671875 L 367.480469 130.355469 C 366.871094 130.011719 365.851562 129.425781 364.417969 128.546875 C 365.332031 126.339844 365.835938 123.925781 365.835938 121.394531 C 365.835938 115.996094 363.539062 111.125 359.878906 107.703125 Z M 339.480469 32.578125 L 269.34375 32.578125 C 274.890625 43.664062 282.421875 56.21875 292.402344 68.230469 Z M 305.621094 326.339844 L 305.554688 326.507812 L 299.050781 342.328125 L 374.964844 342.328125 L 374.964844 314.429688 L 310.042969 305.5625 Z M 202.613281 334.371094 L 208.273438 342.328125 L 231.464844 342.328125 L 205.089844 328.964844 Z M 335.503906 185.957031 L 374.964844 191.558594 L 374.964844 161.101562 L 341.71875 156.816406 Z M 112.519531 114.472656 L 122.492188 116.78125 L 128.304688 132.496094 C 128.539062 132.019531 128.765625 131.550781 129 131.078125 C 128.785156 131.515625 128.578125 131.945312 128.359375 132.382812 L 138.519531 146.035156 L 201.90625 99.769531 L 189.667969 83.105469 L 189.574219 82.863281 L 179.691406 58.054688 C 179.488281 57.9375 179.304688 57.761719 179.160156 57.503906 C 176.941406 53.410156 176.074219 48.3125 174.816406 43.851562 C 173.765625 40.121094 172.835938 36.363281 172.027344 32.578125 L 127.722656 32.578125 L 85.53125 51.164062 L 112.476562 114.554688 C 112.492188 114.527344 112.503906 114.5 112.519531 114.472656 Z M 21.199219 151.117188 C 21.386719 150.5625 21.59375 150.019531 21.816406 149.480469 L 0.0351562 159.867188 L 0.0351562 205.269531 C 0.660156 206.265625 1.285156 207.265625 1.914062 208.25 Z M 313.105469 103.597656 C 309.1875 100.25 305.039062 96.628906 300.65625 92.707031 C 297.210938 89.628906 293.964844 86.453125 290.90625 83.214844 L 255.234375 110.226562 L 273.332031 133.839844 Z M 202.628906 232.1875 L 264.085938 184.433594 L 225.097656 132.375 L 163.386719 179.550781 Z M 201.492188 327.140625 L 181.730469 317.125 L 181.132812 316.546875 C 156.417969 292.644531 127.894531 251.101562 96.015625 192.644531 C 91.996094 185.273438 87.921875 177.632812 83.792969 169.722656 C 77.761719 158.15625 71.613281 146.019531 65.355469 133.3125 L 40.75 144.570312 C 36.476562 146.523438 33.164062 150.199219 31.664062 154.648438 L 9.65625 219.84375 L 1.039062 245.371094 L 0.0351562 248.347656 L 0.0351562 255.132812 L 74.222656 323.964844 L 99.738281 342.328125 L 203.328125 342.328125 L 197.980469 334.808594 Z M 343.617188 258.789062 L 341.828125 272.199219 L 355.964844 274.085938 L 357.753906 260.675781 Z M 323.117188 224.796875 L 291.96875 213.8125 L 258.605469 268.5625 L 307.234375 299.410156 Z M 80.269531 49.078125 L 73.253906 32.578125 L 30.976562 32.578125 C 35.171875 42.195312 39.933594 52.949219 45.183594 64.535156 Z M 80.269531 49.078125 " fill-opacity="1" fill-rule="nonzero"/></g><path fill="#898121" d="M 269.457031 55.449219 L 233.410156 81.761719 L 248.515625 101.464844 L 283.566406 74.921875 C 278.207031 68.460938 273.527344 61.882812 269.457031 55.449219 Z M 269.457031 55.449219 " fill-opacity="1" fill-rule="nonzero"/><path fill="#898121" d="M 346.992188 132.640625 C 353.226562 132.640625 358.28125 127.585938 358.28125 121.355469 C 358.28125 115.125 353.226562 110.074219 346.992188 110.074219 C 340.761719 110.074219 335.707031 115.125 335.707031 121.355469 C 335.707031 127.585938 340.761719 132.640625 346.992188 132.640625 Z M 346.992188 132.640625 " fill-opacity="1" fill-rule="nonzero"/><g clip-path="url(#0dee8ab299)"><path fill="#f7f1e5" d="M 18.902344 32.578125 C 23.550781 43.300781 28.972656 55.617188 35.035156 69.007812 L 7.480469 81.144531 L 0.0351562 64.1875 L 0.0351562 32.578125 Z M 0.0351562 88.824219 L 0.0351562 155.402344 L 25.257812 143.378906 C 26.289062 141.988281 27.449219 140.695312 28.714844 139.515625 L 5.414062 86.457031 Z M 157.96875 271.992188 C 168.21875 286.132812 178.378906 298.425781 188.21875 308.035156 L 255.890625 342.328125 L 294.695312 342.328125 L 301.757812 325.144531 L 306.339844 303.613281 L 202.25 237.582031 Z M 357.769531 32.578125 L 299.773438 76.5 C 302.378906 79.222656 305.128906 81.894531 308.019531 84.480469 C 312.09375 88.125 315.949219 91.492188 319.613281 94.628906 L 374.964844 38.6875 L 374.964844 32.578125 Z M 310.886719 301.613281 L 374.964844 310.363281 L 374.964844 232.300781 L 326.988281 225.960938 Z M 316.25 106.269531 L 275.785156 137.039062 L 305.460938 152.28125 L 331.59375 131.972656 C 329.527344 128.960938 328.3125 125.316406 328.3125 121.394531 C 328.3125 119.757812 328.523438 118.167969 328.921875 116.65625 C 325.035156 113.566406 320.808594 110.113281 316.25 106.269531 Z M 160.332031 182.09375 L 120.003906 212.632812 C 125.15625 221.535156 130.363281 230.214844 135.589844 238.578125 L 182.488281 211.953125 Z M 324.019531 220.550781 L 341.324219 139.242188 C 340.28125 138.90625 339.277344 138.480469 338.320312 137.972656 L 294.070312 210.371094 Z M 246.765625 154.042969 L 270.125 136.28125 L 252.019531 112.660156 L 229.113281 130.007812 Z M 245.304688 103.898438 L 230.210938 84.207031 L 207.546875 100.640625 L 222.578125 121.105469 Z M 245.304688 103.898438 " fill-opacity="1" fill-rule="nonzero"/><path fill="#e7b10a" d="M 83.957031 47.457031 L 77.632812 32.578125 L 117.730469 32.578125 Z M 0.0351562 74.207031 L 0.0351562 84.425781 L 3.792969 82.769531 Z M 179.984375 52.0625 C 180.386719 51.6875 180.785156 51.3125 181.191406 50.933594 L 193.222656 81.136719 L 205.160156 97.394531 L 267.332031 52.011719 C 263.21875 45.207031 259.796875 38.625 256.96875 32.578125 L 174.976562 32.578125 C 175.640625 35.609375 176.382812 38.625 177.207031 41.621094 C 178.105469 44.898438 178.828125 48.648438 179.984375 52.0625 Z M 322.691406 97.246094 C 327.039062 100.921875 331.082031 104.238281 334.808594 107.210938 C 338.101562 104.363281 342.390625 102.636719 347.074219 102.636719 C 350.570312 102.636719 353.839844 103.601562 356.644531 105.269531 L 374.964844 76.878906 L 374.964844 44.414062 Z M 327.828125 222.007812 L 374.964844 228.238281 L 374.964844 193.949219 L 335.316406 188.253906 Z M 0.0351562 260.628906 L 0.0351562 342.328125 L 92.839844 342.328125 L 71.574219 327.003906 Z M 363.125 140.550781 C 362.875 140.421875 360.933594 139.414062 357.273438 137.128906 C 354.335938 139.039062 350.832031 140.148438 347.074219 140.148438 C 346.464844 140.148438 345.867188 140.117188 345.273438 140.058594 L 342.648438 152.382812 L 374.964844 156.863281 L 374.964844 142.878906 L 363.863281 140.925781 Z M 267.269531 181.960938 L 302.277344 154.753906 L 272.578125 139.476562 L 249.152344 157.289062 Z M 137.746094 242 C 143.695312 251.398438 149.667969 260.359375 155.617188 268.71875 L 199.445312 234.660156 L 184.890625 215.183594 Z M 334.222656 135.035156 L 270.453125 184.585938 L 290.722656 208.121094 L 334.980469 135.714844 C 334.71875 135.496094 334.46875 135.269531 334.222656 135.035156 Z M 205.628906 234.957031 L 255.203125 266.402344 L 288.621094 211.5625 L 267.101562 187.191406 Z M 219.367188 123.539062 L 204.292969 103.015625 L 140.925781 149.269531 L 156.953125 170.804688 Z M 126.355469 136.4375 C 126.339844 136.472656 126.320312 136.511719 126.304688 136.546875 L 110.144531 119.363281 L 110.144531 119.359375 C 110.144531 119.359375 110.144531 119.363281 110.144531 119.363281 L 81.84375 52.789062 L 46.851562 68.203125 C 59.21875 95.367188 74.089844 126.703125 90.273438 158.050781 C 94.296875 165.847656 98.402344 173.644531 102.570312 181.378906 C 102.746094 181.070312 102.921875 180.769531 103.09375 180.460938 C 102.921875 180.769531 102.746094 181.070312 102.570312 181.378906 C 106.492188 188.648438 110.464844 195.863281 114.480469 202.96875 L 153.738281 173.238281 Z M 36.152344 134.53125 L 60.507812 123.390625 C 51.894531 105.65625 43.878906 88.476562 36.695312 72.675781 L 9.101562 84.832031 L 31.972656 136.910156 C 33.289062 136.003906 34.683594 135.203125 36.152344 134.53125 Z M 36.152344 134.53125 " fill-opacity="1" fill-rule="nonzero"/></g><path fill="#ffffff" d="M 295.757812 38.46875 L 292.695312 34.472656 L 283.855469 40.992188 L 286.96875 45.007812 Z M 295.757812 38.46875 " fill-opacity="1" fill-rule="nonzero"/><g clip-path="url(#1f286611ae)"><path fill="#898121" d="M 88.417969 157.722656 L 88.050781 157.019531 L 88.433594 156.320312 C 94.382812 145.378906 102.988281 129.402344 109.03125 117.023438 L 110.058594 114.917969 L 127.144531 135.855469 L 126.714844 136.722656 C 120.066406 150.105469 103.128906 180.15625 102.96875 180.4375 L 101.628906 182.789062 L 100.347656 180.40625 C 96.800781 173.828125 93.011719 166.621094 88.417969 157.722656 Z M 169.207031 32.578125 C 146.109375 52.972656 130.21875 71.179688 122.828125 85.8125 C 119.691406 92.03125 111.609375 111.351562 111.265625 112.171875 L 110.929688 112.976562 L 127.714844 134.511719 L 128.773438 132.363281 C 134.660156 120.390625 138.242188 111.886719 141.121094 105.054688 C 142.535156 101.691406 143.761719 98.785156 145.039062 95.972656 C 152.9375 78.601562 183.058594 52.820312 209.398438 32.578125 Z M 82.894531 280.722656 C 75.875 274.59375 69.25 268.804688 63.777344 263.101562 C 58.386719 257.484375 57.808594 248.851562 62.402344 242.574219 C 72.800781 228.355469 89.40625 203.539062 96.574219 191.507812 L 97.011719 190.773438 L 96.601562 190.023438 C 95.675781 188.324219 94.761719 186.65625 93.851562 184.996094 C 90.871094 179.554688 88.054688 174.417969 85.007812 168.578125 L 83.734375 166.136719 L 82.375 168.535156 C 74.0625 183.179688 57.355469 209.027344 45.851562 225.914062 C 42.488281 230.855469 36.90625 233.800781 30.917969 233.800781 C 26.410156 233.800781 22.09375 232.121094 18.761719 229.070312 C 12.328125 223.175781 10.683594 221.316406 10.277344 220.734375 L 9.65625 219.84375 L 0.105469 248.019531 C 7.261719 257.035156 17.648438 263.472656 27.339844 269.800781 C 30.597656 271.929688 33.675781 273.941406 36.339844 275.851562 C 70.003906 300.019531 94.417969 321.171875 111.898438 342.328125 L 139.070312 342.328125 C 120.390625 313.476562 99.785156 295.476562 82.894531 280.722656 Z M 82.894531 280.722656 " fill-opacity="1" fill-rule="nonzero"/></g><path fill="#ffffff" d="M 9.046875 221.589844 L 9.054688 221.601562 C 9.050781 221.597656 9.050781 221.59375 9.046875 221.589844 Z M 9.046875 221.589844 " fill-opacity="1" fill-rule="nonzero"/><g clip-path="url(#ef7d53e2ff)"><path fill="#ffffff" d="M 37.214844 274.636719 C 26.722656 267.101562 10.105469 258.222656 0.6875 246.355469 L 0.0351562 248.226562 L 0.0351562 250.917969 C 7.320312 259.753906 16.566406 265.449219 26.109375 271.683594 C 29.347656 273.800781 32.40625 275.796875 35.027344 277.679688 C 67.769531 301.179688 91.6875 321.792969 108.953125 342.328125 L 113.71875 342.328125 C 96.316406 321.050781 71.730469 299.410156 37.214844 274.636719 Z M 37.214844 274.636719 " fill-opacity="1" fill-rule="nonzero"/></g><g clip-path="url(#33b8936d3e)"><path fill="#ffffff" d="M 84.371094 279.027344 C 77.394531 272.933594 70.804688 267.175781 65.398438 261.542969 C 60.765625 256.71875 60.269531 249.296875 64.21875 243.898438 C 74.648438 229.636719 91.3125 204.734375 98.507812 192.660156 L 101.578125 187.425781 L 104.925781 181.550781 C 105.082031 181.269531 122.050781 151.167969 128.730469 137.71875 L 129.804688 135.558594 L 129.742188 135.484375 L 130.789062 133.355469 C 136.707031 121.324219 140.304688 112.785156 143.195312 105.925781 C 144.605469 102.578125 145.820312 99.6875 147.085938 96.902344 C 155.054688 79.382812 186.414062 52.898438 213.082031 32.578125 L 206.910156 32.578125 C 180.246094 53.171875 151.476562 78.191406 143.671875 95.351562 C 139.71875 104.046875 136.128906 114.007812 127.425781 131.703125 L 112.652344 112.746094 C 112.652344 112.746094 121.019531 92.730469 124.167969 86.488281 C 131.160156 72.640625 146.644531 54.355469 171.480469 32.578125 L 165.828125 32.578125 C 143.53125 52.492188 128.128906 70.328125 120.820312 84.800781 C 117.648438 91.089844 109.535156 110.480469 109.191406 111.304688 L 108.4375 113.109375 L 107.007812 116.035156 C 100.992188 128.371094 80.417969 167.421875 80.417969 167.421875 C 72.136719 182.015625 55.472656 207.796875 43.996094 224.648438 C 41.050781 228.972656 36.160156 231.554688 30.917969 231.554688 C 26.972656 231.554688 23.195312 230.082031 20.28125 227.410156 C 13.417969 221.125 12.277344 219.671875 12.121094 219.445312 L 10.40625 217.621094 L 9.054688 221.601562 C 9.964844 222.898438 13.554688 226.332031 17.746094 230.175781 C 21.519531 233.628906 26.234375 235.300781 30.917969 235.300781 C 37.125 235.300781 43.273438 232.363281 47.09375 226.757812 C 58.324219 210.269531 75.097656 184.390625 83.679688 169.273438 C 87.683594 176.945312 91.386719 183.589844 95.285156 190.742188 C 88.226562 202.589844 71.683594 227.339844 61.191406 241.6875 C 56.175781 248.546875 56.8125 258.007812 62.695312 264.136719 C 81.1875 283.40625 111.128906 302.238281 137.3125 342.328125 L 141.757812 342.328125 C 122.726562 312.539062 101.625 294.097656 84.371094 279.027344 Z M 89.75 157.035156 C 96.804688 144.058594 104.695312 129.324219 110.378906 117.679688 L 125.371094 136.054688 C 118.691406 149.503906 101.835938 179.398438 101.667969 179.695312 C 97.621094 172.191406 93.652344 164.597656 89.75 157.035156 Z M 89.75 157.035156 " fill-opacity="1" fill-rule="nonzero"/></g><g mask="url(#fa4efa311c)"><g transform="matrix(1, 0, 0, 1, 2, 38)"><g clip-path="url(#a537ef1303)"><g clip-path="url(#713a6b5689)"><path fill="#898121" d="M 169.191406 58.535156 L 178.320312 70.054688 L 168.421875 77.894531 L 159.292969 66.375 Z M 161.03125 99.535156 L 164.503906 103.835938 L 173.933594 96.535156 L 170.515625 92.253906 Z M 294.054688 102.0625 L 302.804688 107.707031 L 313.269531 99.421875 L 305.808594 92.042969 Z M 18.820312 64.25 L 24.679688 77.25 L 37.019531 71.6875 L 31.15625 58.6875 Z M 220.8125 281.222656 L 230.640625 287.570312 L 237.152344 275.742188 L 227.015625 269.699219 Z M 262.976562 288.792969 L 280.195312 298.945312 L 288.199219 285.703125 L 270.390625 276.058594 Z M 0.5 260.03125 L 7.371094 266.550781 L 10.890625 262.84375 L 4.019531 256.324219 Z M 231.515625 198.273438 L 237.386719 203.003906 L 246.320312 192.261719 L 240.453125 187.527344 Z M 53.25 0.597656 L 40.375 5.722656 L 45.78125 19.289062 L 58.65625 14.164062 Z M 106.605469 218.859375 L 114.570312 230.027344 L 126.34375 221.632812 L 118.378906 210.464844 Z M 167.40625 232.238281 L 179.648438 242.515625 L 194.574219 230.15625 L 181.824219 220.132812 Z M 230.488281 163.457031 L 211.761719 139.828125 L 203.335938 146.503906 L 222.0625 170.132812 Z M 233.855469 144.242188 L 241.429688 153.800781 L 252.558594 144.984375 L 244.984375 135.425781 Z M 142.785156 267.546875 L 145.46875 271.628906 L 154.488281 265.941406 L 151.757812 261.835938 Z M 107.289062 10.1875 L 111.347656 20.710938 L 116.15625 18.78125 L 112.132812 8.210938 Z M 281.601562 209.449219 L 304.601562 220.265625 L 306.601562 212.371094 L 285.34375 201.871094 Z M 304.441406 13.734375 L 296.261719 2.992188 L 287.03125 10.019531 L 295.210938 20.761719 Z M 295.710938 60.28125 L 278.066406 74.246094 L 271.664062 66.835938 L 261.683594 74.394531 L 272.90625 89.039062 L 302.65625 66.417969 C 300.355469 64.410156 298.035156 62.359375 295.710938 60.28125 Z M 359.132812 173.453125 L 357.339844 183.988281 L 369.609375 186.078125 L 371.402344 175.539062 Z M 324.179688 231.941406 L 335.742188 233.484375 L 337.539062 220.03125 L 325.976562 218.484375 Z M 147.085938 176.355469 L 139.121094 165.1875 L 127.347656 173.582031 L 135.316406 184.75 Z M 147.085938 176.355469 " fill-opacity="1" fill-rule="nonzero"/></g></g></g></g><path fill="#ffffff" d="M 192.054688 196.882812 L 197.722656 204.472656 L 193.625 207.527344 L 187.960938 199.941406 Z M 229.113281 188.222656 L 236.148438 197.378906 L 240.304688 194.027344 L 233.25 184.921875 Z M 244.253906 311.585938 L 248.339844 313.9375 L 253.839844 304.433594 L 249.597656 302.179688 Z M 280.542969 255.359375 L 288.621094 259.457031 L 290.453125 255.722656 L 282.371094 251.578125 Z M 241.425781 243.722656 L 250.757812 250.816406 L 259.9375 238.75 L 250.605469 231.65625 Z M 202.960938 109.789062 L 193.0625 117.625 L 202.195312 129.148438 L 212.09375 121.308594 Z M 28.632812 118.117188 L 34.039062 131.683594 L 46.914062 126.554688 L 41.507812 112.992188 Z M 205.164062 266.984375 L 210.28125 270.894531 L 222.53125 261.117188 L 217.167969 257.277344 Z M 39.296875 88.851562 L 34.90625 78.714844 L 30.269531 80.855469 L 34.6875 90.945312 Z M 48.757812 330.085938 L 58.53125 339.78125 L 66.859375 331.382812 L 57.082031 321.691406 Z M 111.515625 64.519531 L 98.640625 69.644531 L 104.046875 83.210938 L 116.921875 78.082031 Z M 22.78125 289.132812 L 13.003906 279.441406 L 4.675781 287.835938 L 14.453125 297.527344 Z M 135.378906 291.949219 L 142.542969 302.925781 L 151.972656 296.777344 L 144.8125 285.800781 Z M 356.214844 212.089844 L 351.640625 211.328125 L 349.789062 221.28125 L 354.414062 222.023438 Z M 328.644531 252.878906 L 339.546875 254.457031 L 340.203125 249.4375 L 329.277344 247.8125 Z M 273.070312 147.066406 L 265.828125 152.574219 L 276.09375 164.800781 L 288.621094 155.066406 Z M 273.070312 147.066406 " fill-opacity="1" fill-rule="nonzero"/><g clip-path="url(#855c65b722)"><g mask="url(#1d727edd86)"><g transform="matrix(1, 0, 0, 1, 48, 32)"><g clip-path="url(#b8e99f851f)"><g clip-path="url(#adcf307671)"><path fill="#e7b10a" d="M 51.488281 181.324219 L 58.632812 192.535156 L 46.710938 199.734375 L 39.6875 188.941406 Z M 44.8125 22.546875 L 49.230469 33.640625 L 62.152344 28.496094 L 57.730469 17.402344 Z M 106.945312 285.308594 L 113.953125 296.050781 L 122.261719 290.632812 L 115.253906 279.890625 Z M 140.214844 222.699219 L 153.164062 232.691406 L 165.625 222.375 L 152.242188 212.605469 Z M 1.308594 116.628906 L 7.101562 129.46875 L 23.707031 121.980469 L 17.917969 109.144531 Z M 205.078125 50.183594 L 199.8125 43.269531 L 191.722656 49.339844 L 196.996094 56.25 Z M 119.3125 180.550781 L 116.265625 176.363281 L 107.105469 182.746094 L 110.097656 186.914062 Z M 273.109375 8.78125 L 266.859375 0.578125 L 261.671875 0.578125 L 253.667969 6.667969 L 261.824219 17.375 Z M 256.007812 89.574219 L 270.40625 104.316406 L 278.652344 97.351562 L 263.1875 83.085938 Z M 241.675781 204.113281 L 252.058594 209.242188 L 258.695312 195.816406 L 248.308594 190.6875 Z M 167.449219 69.859375 L 175.738281 81.148438 L 180.945312 77.203125 L 174.289062 64.867188 Z M 311.027344 204.203125 L 282.441406 200.390625 L 281.082031 210.574219 L 312.1875 214.339844 Z M 188.175781 262.695312 L 182.964844 272.375 L 193.242188 278.355469 L 198.71875 268.414062 Z M 196.558594 298.988281 L 205.054688 304.417969 L 219.738281 278.925781 L 210.660156 274.027344 Z M 226.125 236 L 234.726562 240.246094 L 239.671875 230.238281 L 231.070312 225.992188 Z M 226.125 236 " fill-opacity="1" fill-rule="nonzero"/></g></g></g></g></g><g clip-path="url(#5c43566dcb)"><path fill="#f7f1e5" d="M 67.207031 66.148438 L 72.910156 79.695312 L 61.269531 84.589844 L 55.566406 71.042969 Z M 150.3125 251.601562 L 158.660156 262.546875 L 168.066406 255.378906 L 159.71875 244.433594 Z M 97.03125 235.605469 L 105.398438 248.453125 L 117.441406 241.921875 L 108.941406 228.585938 Z M 166.394531 146.792969 L 172.890625 154.992188 L 183.492188 146.59375 L 176.996094 138.394531 Z M 118.769531 175.140625 L 127.898438 186.660156 L 147.128906 172.339844 L 138 160.820312 Z M 140.359375 45.582031 L 136.464844 35.808594 L 123.820312 40.84375 L 127.714844 50.617188 Z M 34.84375 154.585938 L 46.699219 180.867188 L 56.070312 176.644531 L 44.214844 150.363281 Z M 276.339844 32.578125 L 280.042969 37.441406 L 286.429688 32.578125 Z M 11.648438 308.160156 L 22.617188 317.988281 L 35.332031 303.808594 L 24.363281 293.980469 Z M 31.648438 92.824219 L 26.851562 82.195312 L 14.472656 87.773438 L 19.269531 98.40625 Z M 120.410156 301.519531 L 127.546875 312.457031 L 139.078125 304.9375 L 131.941406 294 Z M 285.71875 273.878906 L 296.234375 279.074219 L 301.160156 269.097656 L 290.648438 263.90625 Z M 296.054688 96.042969 C 295.953125 95.953125 295.851562 95.859375 295.746094 95.769531 C 293.53125 93.789062 291.339844 91.714844 289.199219 89.578125 L 280.289062 96.324219 L 287.113281 103.121094 Z M 174.773438 94.265625 L 183.90625 105.785156 L 193.800781 97.945312 L 184.671875 86.425781 Z M 335.789062 218.941406 L 345.074219 220.519531 L 349.511719 194.46875 L 340.222656 192.890625 Z M 259.027344 205.019531 L 267.527344 213.304688 L 275.390625 205.242188 L 266.890625 196.957031 Z M 350.484375 80.472656 L 344.335938 87.992188 L 353.09375 95.148438 L 359.242188 87.628906 Z M 262.796875 79.324219 L 249.308594 89.28125 L 253.167969 94.152344 L 266.65625 84.195312 Z M 195.261719 211.46875 L 204.40625 223.011719 L 219.339844 211.1875 L 210.191406 199.644531 Z M 243.261719 43.183594 L 214.433594 64.242188 L 223.5625 75.765625 L 252.390625 54.703125 Z M 224.078125 167.023438 L 233.339844 178.707031 L 244.429688 169.921875 L 235.171875 158.238281 Z M 224.078125 167.023438 " fill-opacity="1" fill-rule="nonzero"/></g><g clip-path="url(#740bef6a87)"><path fill="#4c4b16" d="M 189.859375 119.863281 L 198.988281 131.382812 L 189.089844 139.222656 L 179.960938 127.703125 Z M 144.640625 200.890625 L 152.632812 212.09375 L 162.261719 205.230469 L 154.265625 194.023438 Z M 270.839844 342.328125 L 277.351562 342.328125 L 278.90625 339.917969 L 274.273438 336.949219 Z M 7.527344 337.863281 L 12.03125 342.328125 L 22.488281 342.328125 L 25.632812 339.160156 L 15.855469 329.46875 Z M 199.464844 76.617188 L 208.59375 88.136719 L 218.492188 80.296875 L 209.363281 68.777344 Z M 356.957031 194.859375 L 354.765625 207.742188 L 366.992188 209.820312 L 369.1875 196.9375 Z M 267.710938 60.804688 L 252.148438 72.484375 L 257.875 79.605469 L 273.449219 67.917969 Z M 274.582031 224.695312 L 268.085938 218.222656 L 265.152344 221.246094 L 271.640625 227.765625 Z M 274.582031 224.695312 " fill-opacity="1" fill-rule="nonzero"/></g></svg>