<svg xmlns="http://www.w3.org/2000/svg" xmlns:xlink="http://www.w3.org/1999/xlink" width="500" zoomAndPan="magnify" viewBox="0 0 375 374.999991" height="500" preserveAspectRatio="xMidYMid meet" version="1.0"><defs><clipPath id="9f66985d3f"><path d="M 62.109375 0 L 312.609375 0 L 312.609375 375 L 62.109375 375 Z M 62.109375 0 " clip-rule="nonzero"/></clipPath></defs><g clip-path="url(#9f66985d3f)"><path fill="#ec6433" d="M 187.34375 0 C 118.382812 0 62.484375 55.964844 62.484375 125.003906 C 62.484375 148.4375 68.921875 170.351562 80.128906 189.09375 L 187.339844 375.015625 L 294.636719 188.964844 C 305.789062 170.253906 312.203125 148.378906 312.203125 125.003906 C 312.207031 55.964844 256.304688 0 187.34375 0 Z M 187.34375 166.835938 C 164.269531 166.835938 145.5625 148.105469 145.566406 125.003906 C 145.566406 101.902344 164.273438 83.171875 187.34375 83.171875 C 210.425781 83.171875 229.132812 101.902344 229.132812 125.003906 C 229.132812 148.105469 210.425781 166.835938 187.34375 166.835938 Z M 187.34375 166.835938 " fill-opacity="1" fill-rule="nonzero"/></g></svg>