<svg xmlns="http://www.w3.org/2000/svg" xmlns:xlink="http://www.w3.org/1999/xlink" width="500" zoomAndPan="magnify" viewBox="0 0 375 374.999991" height="500" preserveAspectRatio="xMidYMid meet" version="1.0"><path fill="#e75050" d="M 286.785156 220.578125 C 313.25 217.242188 335.703125 60.890625 288.457031 36.878906 C 276.984375 30.972656 262.644531 33.742188 253.746094 39.464844 C 221.523438 60.238281 234.03125 137.332031 259.738281 186.605469 C 269.808594 205.894531 278.039062 221.664062 286.785156 220.578125 Z M 286.785156 220.578125 " fill-opacity="1" fill-rule="nonzero"/><path fill="#807a27" d="M 276.402344 221.28125 C 325.085938 229.039062 375.019531 184.703125 370.144531 156.488281 C 369.261719 151.332031 364.886719 137.246094 333.199219 125.351562 C 331.078125 115.070312 325.402344 96.046875 309.292969 86.253906 C 277.4375 66.996094 217.035156 91.609375 207.703125 135.0625 C 199.101562 175.074219 237.203125 215.039062 276.402344 221.28125 Z M 276.402344 221.28125 " fill-opacity="1" fill-rule="nonzero"/><path fill="#807a27" d="M 299.910156 14.484375 C 289.429688 23.097656 280.527344 33.113281 273.195312 44.519531 C 275.050781 37.703125 277.980469 31.382812 281.996094 25.566406 C 282.597656 24.679688 281.175781 23.898438 280.574219 24.679688 C 275.601562 31.894531 272.261719 39.796875 270.558594 48.390625 C 268.546875 45.152344 267.25 41.648438 266.667969 37.878906 C 266.613281 37.65625 266.484375 37.484375 266.285156 37.367188 C 266.085938 37.25 265.875 37.222656 265.648438 37.277344 C 265.429688 37.339844 265.261719 37.46875 265.144531 37.667969 C 265.027344 37.863281 264.996094 38.074219 265.050781 38.296875 C 265.683594 42.398438 267.125 46.191406 269.375 49.675781 C 269.4375 49.777344 269.523438 49.863281 269.621094 49.929688 C 269.722656 49.992188 269.832031 50.039062 269.953125 50.058594 C 270.070312 50.078125 270.1875 50.074219 270.304688 50.046875 C 270.421875 50.015625 270.53125 49.96875 270.625 49.894531 C 270.695312 49.960938 270.773438 50.015625 270.859375 50.0625 C 270.957031 50.128906 271.070312 50.171875 271.191406 50.1875 C 271.3125 50.203125 271.429688 50.1875 271.542969 50.144531 C 271.65625 50.101562 271.753906 50.035156 271.832031 49.941406 C 271.914062 49.851562 271.964844 49.746094 271.996094 49.628906 C 275.808594 43.164062 280.15625 37.082031 285.035156 31.382812 C 289.917969 25.679688 295.257812 20.449219 301.0625 15.6875 C 301.878906 15.019531 300.726562 13.800781 299.910156 14.484375 Z M 299.910156 14.484375 " fill-opacity="1" fill-rule="nonzero"/><path fill="#e75050" d="M 358.089844 159.105469 C 357.777344 155.726562 356.980469 152.464844 355.695312 149.324219 C 354.410156 146.183594 352.691406 143.296875 350.546875 140.667969 C 345.546875 134.855469 339.601562 130.277344 332.699219 126.933594 C 332.722656 126.835938 332.722656 126.734375 332.699219 126.632812 C 334.429688 125.070312 336.292969 123.675781 338.28125 122.449219 C 340.269531 121.226562 342.355469 120.191406 344.535156 119.351562 C 346.710938 118.507812 348.949219 117.867188 351.246094 117.4375 C 353.539062 117.003906 355.855469 116.78125 358.191406 116.773438 C 358.421875 116.773438 358.617188 116.691406 358.78125 116.527344 C 358.945312 116.367188 359.027344 116.167969 359.027344 115.9375 C 359.027344 115.707031 358.945312 115.511719 358.78125 115.347656 C 358.617188 115.1875 358.421875 115.105469 358.191406 115.105469 C 355.71875 115.117188 353.273438 115.359375 350.84375 115.828125 C 348.417969 116.296875 346.054688 116.980469 343.757812 117.886719 C 341.457031 118.789062 339.257812 119.898438 337.164062 121.207031 C 335.070312 122.519531 333.113281 124.011719 331.296875 125.683594 C 330.246094 123.992188 329.097656 122.371094 327.851562 120.820312 C 326.601562 119.273438 325.265625 117.804688 323.835938 116.417969 C 322.40625 115.03125 320.898438 113.738281 319.3125 112.539062 C 317.722656 111.335938 316.070312 110.238281 314.347656 109.242188 C 312.625 108.242188 310.847656 107.355469 309.015625 106.574219 C 307.183594 105.796875 305.3125 105.132812 303.398438 104.582031 C 301.484375 104.035156 299.542969 103.601562 297.578125 103.292969 C 295.613281 102.980469 293.632812 102.792969 291.644531 102.722656 C 282.5625 102.507812 273.714844 105.160156 265.484375 108.796875 C 256.867188 112.660156 248.648438 117.238281 240.824219 122.53125 C 231.925781 128.476562 223.609375 135.148438 215.882812 142.554688 C 215.734375 142.714844 215.664062 142.90625 215.667969 143.125 C 215.671875 143.34375 215.75 143.53125 215.898438 143.6875 C 216.050781 143.847656 216.234375 143.929688 216.453125 143.945312 C 216.671875 143.957031 216.867188 143.894531 217.035156 143.753906 C 230.433594 130.9375 245.460938 120.449219 262.109375 112.285156 C 270.175781 108.195312 278.871094 104.941406 287.972656 104.390625 C 291.960938 104.179688 295.910156 104.488281 299.820312 105.3125 C 303.730469 106.140625 307.464844 107.457031 311.027344 109.265625 C 314.484375 110.984375 317.679688 113.105469 320.609375 115.621094 C 323.539062 118.136719 326.117188 120.972656 328.339844 124.132812 C 326.386719 122.9375 324.308594 122.015625 322.113281 121.363281 C 319.917969 120.707031 317.675781 120.347656 315.386719 120.277344 C 308.996094 120.222656 302.875 121.472656 297.019531 124.03125 C 284.8125 128.964844 273.320312 135.210938 262.546875 142.769531 C 256.4375 146.96875 250.601562 151.515625 245.03125 156.402344 C 244.230469 157.105469 245.382812 158.320312 246.183594 157.605469 C 255.714844 149.257812 265.980469 141.941406 276.984375 135.660156 C 282.449219 132.535156 288.058594 129.699219 293.816406 127.152344 C 299.585938 124.351562 305.664062 122.628906 312.046875 121.980469 C 313.621094 121.828125 315.195312 121.828125 316.769531 121.980469 C 318.34375 122.132812 319.890625 122.433594 321.40625 122.882812 C 322.921875 123.332031 324.382812 123.925781 325.785156 124.65625 C 327.1875 125.390625 328.507812 126.25 329.742188 127.234375 C 312.703125 139.917969 296.050781 153.109375 279.792969 166.816406 C 275.082031 170.785156 270.414062 174.796875 265.785156 178.847656 C 264.984375 179.5625 266.132812 180.765625 266.9375 180.0625 C 283.441406 165.601562 300.398438 151.699219 317.804688 138.347656 C 322.191406 135.011719 326.609375 131.675781 331.0625 128.335938 C 331.222656 128.386719 331.386719 128.386719 331.546875 128.335938 C 332.449219 130.449219 333.152344 132.628906 333.648438 134.875 C 334.144531 137.121094 334.429688 139.390625 334.503906 141.6875 C 334.574219 143.988281 334.433594 146.273438 334.082031 148.542969 C 333.726562 150.816406 333.164062 153.035156 332.398438 155.203125 C 329.109375 164.945312 322.449219 173.054688 314.566406 179.480469 C 310.949219 182.402344 307.117188 185.015625 303.082031 187.324219 C 302.929688 187.136719 302.738281 187.035156 302.5 187.015625 C 302.265625 186.996094 302.058594 187.066406 301.878906 187.222656 L 299.523438 189.359375 C 299.378906 189.503906 299.296875 189.679688 299.28125 189.882812 C 299.265625 190.089844 299.316406 190.273438 299.4375 190.441406 C 299.558594 190.605469 299.71875 190.714844 299.917969 190.761719 C 300.117188 190.808594 300.308594 190.789062 300.492188 190.695312 C 305.351562 188.230469 309.914062 185.300781 314.175781 181.90625 C 318.4375 178.511719 322.3125 174.722656 325.804688 170.535156 C 327.421875 168.554688 328.863281 166.453125 330.132812 164.230469 C 331.398438 162.011719 332.472656 159.699219 333.351562 157.296875 C 334.234375 154.898438 334.910156 152.441406 335.378906 149.925781 C 335.847656 147.410156 336.109375 144.875 336.152344 142.320312 C 336.167969 137.867188 335.367188 133.570312 333.75 129.421875 C 338.890625 132.132812 343.476562 135.582031 347.507812 139.765625 C 349.804688 142.171875 351.695312 144.867188 353.179688 147.84375 C 354.660156 150.824219 355.667969 153.953125 356.203125 157.238281 C 358.34375 171.136719 352.113281 184.6875 343.667969 195.367188 C 338.144531 202.050781 332.171875 208.308594 325.753906 214.136719 C 325.605469 214.300781 325.535156 214.492188 325.539062 214.707031 C 325.542969 214.925781 325.621094 215.117188 325.769531 215.273438 C 325.921875 215.429688 326.105469 215.515625 326.324219 215.527344 C 326.542969 215.542969 326.738281 215.476562 326.90625 215.339844 C 337.957031 204.792969 349.558594 193.648438 355.101562 179.113281 C 356.351562 175.933594 357.230469 172.65625 357.734375 169.28125 C 358.238281 165.902344 358.359375 162.511719 358.089844 159.105469 Z M 358.089844 159.105469 " fill-opacity="1" fill-rule="nonzero"/><path fill="#f3bd50" d="M 193.628906 23.429688 C 152.839844 10.730469 115.042969 15.953125 109.03125 34.941406 C 103.023438 53.933594 131.355469 79.710938 172.140625 92.410156 C 212.925781 105.109375 250.792969 99.9375 256.734375 80.898438 C 262.679688 61.859375 234.414062 36.128906 193.628906 23.429688 Z M 193.628906 23.429688 " fill-opacity="1" fill-rule="nonzero"/><path fill="#f49676" d="M 199.703125 59.570312 L 147.75 62.441406 C 140.671875 90.925781 147.75 114.453125 161.503906 120.308594 C 164.226562 121.460938 169.621094 122.964844 178.199219 120.308594 C 178.46875 126.285156 178.75 132.273438 179.019531 138.25 L 164.960938 144.238281 C 164.621094 145.851562 164.414062 147.480469 164.335938 149.125 C 164.261719 150.769531 164.316406 152.410156 164.503906 154.046875 C 164.695312 155.683594 165.011719 157.292969 165.460938 158.878906 C 165.910156 160.464844 166.480469 162.003906 167.179688 163.496094 C 167.875 164.988281 168.6875 166.417969 169.613281 167.777344 C 170.539062 169.140625 171.570312 170.417969 172.703125 171.617188 C 173.835938 172.8125 175.058594 173.910156 176.371094 174.90625 C 177.679688 175.90625 179.0625 176.792969 180.515625 177.570312 C 181.96875 178.347656 183.476562 179 185.035156 179.535156 C 186.597656 180.066406 188.1875 180.472656 189.8125 180.746094 C 191.4375 181.023438 193.074219 181.167969 194.722656 181.183594 C 196.371094 181.195312 198.007812 181.074219 199.636719 180.824219 C 201.265625 180.570312 202.863281 180.191406 204.429688 179.683594 C 206 179.171875 207.515625 178.542969 208.980469 177.789062 C 210.445312 177.035156 211.839844 176.167969 213.167969 175.191406 C 214.492188 174.210938 215.730469 173.132812 216.882812 171.953125 C 217.96875 170.847656 218.972656 169.667969 219.886719 168.414062 C 220.800781 167.164062 221.621094 165.851562 222.347656 164.480469 C 223.074219 163.109375 223.695312 161.691406 224.21875 160.230469 C 224.738281 158.769531 225.152344 157.28125 225.453125 155.757812 C 225.757812 154.238281 225.953125 152.703125 226.035156 151.15625 C 226.117188 149.605469 226.085938 148.058594 225.945312 146.515625 C 225.804688 144.96875 225.550781 143.445312 225.1875 141.9375 C 224.824219 140.429688 224.355469 138.953125 223.777344 137.515625 L 207.46875 132.242188 L 203.527344 94.164062 C 204.09375 94.082031 204.648438 93.945312 205.1875 93.753906 C 205.730469 93.5625 206.246094 93.320312 206.738281 93.027344 C 207.230469 92.738281 207.6875 92.398438 208.117188 92.015625 C 208.542969 91.632812 208.925781 91.210938 209.269531 90.753906 C 209.613281 90.292969 209.90625 89.804688 210.152344 89.289062 C 210.398438 88.773438 210.59375 88.238281 210.734375 87.683594 C 210.875 87.125 210.960938 86.5625 210.992188 85.992188 C 211.023438 85.417969 210.996094 84.851562 210.914062 84.285156 C 210.832031 83.71875 210.695312 83.164062 210.503906 82.625 C 210.3125 82.085938 210.070312 81.566406 209.777344 81.074219 C 209.484375 80.585938 209.144531 80.125 208.761719 79.699219 C 208.378906 79.273438 207.957031 78.890625 207.496094 78.546875 C 207.039062 78.207031 206.550781 77.910156 206.03125 77.664062 C 205.515625 77.417969 204.980469 77.226562 204.421875 77.085938 C 203.867188 76.945312 203.304688 76.859375 202.730469 76.828125 C 202.160156 76.800781 201.589844 76.828125 201.023438 76.910156 C 200.621094 71.136719 200.1875 65.363281 199.703125 59.570312 Z M 199.703125 59.570312 " fill-opacity="1" fill-rule="nonzero"/><path fill="#e75050" d="M 205.195312 49.328125 C 200.4375 44.9375 191.605469 44.570312 184.144531 49.125 C 183.6875 47.183594 182.890625 45.390625 181.761719 43.742188 C 180.632812 42.097656 179.246094 40.710938 177.601562 39.582031 C 169.535156 34.660156 158.515625 41.117188 153.089844 44.289062 C 142.140625 50.695312 132.105469 62.160156 134.527344 66.3125 C 135.292969 67.613281 139.050781 67.730469 146.53125 67.980469 C 152.753906 68.359375 158.953125 68.117188 165.128906 67.265625 C 170.964844 66.375 176.707031 65.074219 182.359375 63.359375 C 182.714844 64.320312 183.140625 65.25 183.636719 66.148438 C 184.132812 67.046875 184.691406 67.902344 185.3125 68.71875 C 185.933594 69.535156 186.613281 70.300781 187.347656 71.015625 C 188.082031 71.730469 188.867188 72.386719 189.699219 72.988281 C 190.53125 73.589844 191.402344 74.125 192.3125 74.59375 C 193.226562 75.066406 194.164062 75.46875 195.136719 75.800781 C 196.105469 76.132812 197.097656 76.390625 198.105469 76.578125 C 199.113281 76.761719 200.132812 76.875 201.15625 76.910156 C 211.472656 68.851562 211.589844 55.101562 205.195312 49.328125 Z M 205.195312 49.328125 " fill-opacity="1" fill-rule="nonzero"/><path fill="#e75050" d="M 164.027344 102.722656 C 164.359375 102.859375 164.703125 102.957031 165.058594 103.019531 C 165.414062 103.082031 165.773438 103.105469 166.132812 103.09375 C 166.492188 103.082031 166.847656 103.03125 167.195312 102.945312 C 167.546875 102.859375 167.882812 102.734375 168.207031 102.578125 C 168.53125 102.421875 168.835938 102.230469 169.117188 102.011719 C 169.402344 101.789062 169.660156 101.542969 169.894531 101.269531 C 170.125 100.992188 170.328125 100.695312 170.496094 100.378906 C 170.667969 100.0625 170.804688 99.730469 170.90625 99.386719 C 170.992188 99.171875 171.136719 99.015625 171.347656 98.921875 C 171.558594 98.828125 171.773438 98.820312 171.988281 98.902344 C 172.203125 98.992188 172.355469 99.140625 172.445312 99.347656 C 172.539062 99.558594 172.550781 99.769531 172.472656 99.988281 C 172.332031 100.433594 172.144531 100.859375 171.917969 101.265625 C 171.6875 101.671875 171.417969 102.050781 171.109375 102.402344 C 170.800781 102.757812 170.460938 103.074219 170.089844 103.355469 C 169.714844 103.636719 169.316406 103.878906 168.894531 104.078125 C 168.472656 104.277344 168.03125 104.433594 167.578125 104.542969 C 167.125 104.652344 166.664062 104.71875 166.195312 104.730469 C 165.726562 104.746094 165.261719 104.714844 164.804688 104.636719 C 164.34375 104.554688 163.894531 104.429688 163.457031 104.257812 C 163.347656 104.222656 163.25 104.167969 163.160156 104.09375 C 163.070312 104.019531 163.003906 103.929688 162.949219 103.824219 C 162.898438 103.722656 162.871094 103.609375 162.867188 103.496094 C 162.863281 103.378906 162.882812 103.265625 162.921875 103.160156 C 162.964844 103.050781 163.027344 102.957031 163.109375 102.871094 C 163.191406 102.789062 163.285156 102.726562 163.394531 102.683594 C 163.5 102.640625 163.613281 102.621094 163.730469 102.625 C 163.84375 102.628906 163.957031 102.65625 164.058594 102.707031 Z M 174.160156 83.867188 L 174.511719 83.867188 C 174.691406 83.90625 174.859375 83.976562 175.015625 84.078125 C 175.171875 84.175781 175.300781 84.300781 175.410156 84.453125 C 175.519531 84.601562 175.597656 84.765625 175.648438 84.945312 C 175.695312 85.121094 175.710938 85.304688 175.691406 85.488281 C 175.671875 85.671875 175.621094 85.84375 175.539062 86.011719 C 175.457031 86.175781 175.347656 86.320312 175.210938 86.445312 C 175.074219 86.570312 174.917969 86.664062 174.746094 86.734375 C 174.574219 86.800781 174.394531 86.835938 174.210938 86.835938 L 173.859375 86.835938 C 173.679688 86.800781 173.511719 86.730469 173.355469 86.628906 C 173.199219 86.527344 173.070312 86.402344 172.960938 86.253906 C 172.851562 86.105469 172.773438 85.941406 172.722656 85.761719 C 172.675781 85.582031 172.660156 85.402344 172.679688 85.21875 C 172.699219 85.035156 172.75 84.859375 172.832031 84.695312 C 172.914062 84.53125 173.023438 84.382812 173.160156 84.261719 C 173.296875 84.136719 173.453125 84.039062 173.625 83.972656 C 173.796875 83.902344 173.976562 83.871094 174.160156 83.867188 Z M 151.054688 77.425781 C 152.085938 76.582031 153.25 75.988281 154.539062 75.648438 C 155.832031 75.304688 157.132812 75.25 158.449219 75.472656 C 158.675781 75.507812 158.859375 75.613281 159.003906 75.789062 C 159.144531 75.964844 159.210938 76.164062 159.203125 76.390625 C 159.175781 76.621094 159.074219 76.804688 158.894531 76.949219 C 158.714844 77.089844 158.511719 77.152344 158.285156 77.125 C 157.1875 76.9375 156.101562 76.992188 155.027344 77.28125 C 153.953125 77.574219 152.992188 78.078125 152.140625 78.792969 C 151.949219 78.945312 151.734375 79.003906 151.496094 78.976562 C 151.257812 78.949219 151.0625 78.84375 150.914062 78.652344 C 150.761719 78.464844 150.703125 78.25 150.730469 78.011719 C 150.757812 77.769531 150.867188 77.578125 151.054688 77.425781 Z M 160.789062 88.941406 C 161.457031 87.488281 162.105469 86.054688 162.773438 84.617188 C 163.226562 83.652344 164.792969 84.234375 164.328125 85.21875 C 163.308594 87.453125 162.171875 89.65625 161.253906 91.894531 C 160.726562 92.914062 160.582031 93.988281 160.820312 95.113281 C 161.054688 95.847656 161.722656 96.78125 162.492188 96.664062 C 162.71875 96.636719 162.921875 96.683594 163.109375 96.816406 C 163.296875 96.949219 163.414062 97.125 163.457031 97.351562 C 163.496094 97.578125 163.445312 97.785156 163.3125 97.972656 C 163.179688 98.160156 163 98.277344 162.773438 98.316406 C 159.96875 98.46875 158.550781 95.53125 159.066406 93.078125 C 159.476562 91.628906 160.050781 90.25 160.789062 88.941406 Z M 170.4375 76.457031 C 170.207031 76.496094 169.996094 76.449219 169.804688 76.3125 C 169.617188 76.179688 169.5 75.996094 169.460938 75.765625 C 169.421875 75.535156 169.472656 75.324219 169.605469 75.136719 C 169.742188 74.945312 169.921875 74.828125 170.152344 74.789062 C 171.925781 74.453125 173.691406 74.46875 175.457031 74.835938 C 177.222656 75.203125 178.847656 75.894531 180.335938 76.910156 C 181.238281 77.527344 180.335938 78.878906 179.371094 78.261719 C 178.0625 77.367188 176.636719 76.765625 175.085938 76.453125 C 173.535156 76.140625 171.988281 76.144531 170.4375 76.457031 Z M 185.164062 116.941406 C 185.53125 116.84375 185.902344 116.804688 186.28125 116.824219 L 186.632812 116.824219 C 186.832031 116.824219 186.816406 116.824219 186.847656 116.921875 C 187.015625 117.078125 187.121094 117.265625 187.15625 117.488281 C 187.195312 117.714844 187.160156 117.925781 187.050781 118.125 C 186.578125 118.808594 185.96875 119.320312 185.210938 119.660156 C 184.269531 120.164062 183.285156 120.558594 182.257812 120.84375 C 181.242188 121.140625 180.207031 121.332031 179.152344 121.429688 C 178.867188 121.445312 178.585938 121.445312 178.300781 121.429688 L 178.199219 120.210938 L 176.765625 120.609375 C 177.550781 120.195312 178.335938 119.742188 179.101562 119.359375 C 181.015625 118.28125 183.035156 117.476562 185.164062 116.941406 Z M 155.761719 88.054688 L 155.410156 88.054688 C 155.214844 88.035156 155.027344 87.980469 154.855469 87.886719 C 154.679688 87.792969 154.53125 87.667969 154.40625 87.515625 C 154.28125 87.359375 154.1875 87.191406 154.132812 87 C 154.074219 86.8125 154.054688 86.617188 154.078125 86.421875 C 154.097656 86.222656 154.152344 86.039062 154.246094 85.863281 C 154.339844 85.6875 154.464844 85.539062 154.617188 85.414062 C 154.769531 85.289062 154.941406 85.199219 155.132812 85.140625 C 155.320312 85.085938 155.515625 85.066406 155.710938 85.085938 L 156.046875 85.085938 C 156.242188 85.105469 156.429688 85.164062 156.601562 85.257812 C 156.777344 85.351562 156.925781 85.472656 157.050781 85.628906 C 157.175781 85.78125 157.265625 85.953125 157.324219 86.140625 C 157.382812 86.332031 157.398438 86.523438 157.378906 86.71875 C 157.359375 86.917969 157.304688 87.101562 157.210938 87.277344 C 157.117188 87.449219 156.992188 87.601562 156.839844 87.726562 C 156.6875 87.851562 156.515625 87.941406 156.324219 88 C 156.136719 88.054688 155.941406 88.074219 155.746094 88.054688 Z M 155.761719 88.054688 " fill-opacity="1" fill-rule="nonzero"/><path fill="#f3bd50" d="M 55.242188 347.078125 C 64.472656 346.011719 72.320312 295.433594 55.824219 287.65625 C 54.851562 287.253906 53.84375 286.96875 52.804688 286.800781 C 51.765625 286.628906 50.71875 286.582031 49.667969 286.652344 C 48.617188 286.726562 47.585938 286.917969 46.578125 287.226562 C 45.570312 287.539062 44.613281 287.960938 43.703125 288.492188 C 32.453125 295.167969 36.824219 320.195312 45.808594 336.082031 C 49.3125 342.324219 52.183594 347.429688 55.242188 347.078125 Z M 55.242188 347.078125 " fill-opacity="1" fill-rule="nonzero"/><path fill="#e75050" d="M 215.648438 278.699219 C 209.519531 309.566406 226.582031 340.886719 256.367188 351.167969 C 257.269531 351.484375 258.203125 351.785156 259.15625 352.066406 C 260.109375 352.351562 260.824219 352.566406 261.710938 352.800781 C 296.484375 361.980469 331.828125 339.652344 339.558594 304.5625 L 365.886719 185.769531 L 239.65625 157.789062 C 231.652344 198.101562 223.652344 238.40625 215.648438 278.699219 Z M 215.648438 278.699219 " fill-opacity="1" fill-rule="nonzero"/><path fill="#807a27" d="M 66.425781 248.996094 C 61.898438 253.390625 57.957031 258.257812 54.601562 263.601562 C 51.25 268.945312 48.578125 274.613281 46.59375 280.597656 C 48.074219 272.472656 50.472656 264.621094 53.789062 257.054688 C 54.238281 256.070312 52.652344 255.21875 52.203125 256.222656 C 48.019531 265.699219 45.273438 275.578125 43.953125 285.855469 C 43.042969 275.96875 43.875 266.226562 46.457031 256.636719 C 46.742188 255.585938 44.972656 255.167969 44.6875 256.222656 C 43.039062 262.34375 42.089844 268.574219 41.835938 274.910156 C 41.582031 281.246094 42.03125 287.53125 43.1875 293.765625 C 43.1875 293.765625 43.1875 293.914062 43.1875 293.980469 C 43.164062 294.238281 43.253906 294.441406 43.453125 294.597656 C 43.621094 295.46875 45.125 295.734375 45.125 294.75 C 45.96875 288.21875 47.652344 281.90625 50.164062 275.816406 C 52.679688 269.726562 55.941406 264.070312 59.949219 258.839844 C 62.3125 255.769531 64.882812 252.882812 67.660156 250.179688 C 68.546875 249.394531 67.226562 248.210938 66.425781 248.996094 Z M 66.425781 248.996094 " fill-opacity="1" fill-rule="nonzero"/><path fill="#f3bd50" d="M 137.28125 348.796875 C 147.941406 352.109375 158.769531 354.714844 169.765625 356.621094 C 180.761719 358.53125 191.835938 359.71875 202.988281 360.1875 C 214.140625 360.660156 225.277344 360.40625 236.394531 359.433594 C 247.515625 358.460938 258.523438 356.769531 269.421875 354.371094 C 269.421875 343.957031 269.507812 234.746094 260.058594 180.832031 C 258.386719 171.019531 255.046875 156.769531 243.246094 146.40625 C 239.472656 143.238281 235.328125 140.671875 230.804688 138.714844 C 226.285156 136.753906 221.578125 135.480469 216.683594 134.894531 C 209.671875 155.585938 197.433594 168.632812 187 167.582031 C 184.917969 167.308594 182.972656 166.636719 181.164062 165.570312 C 179.359375 164.503906 177.828125 163.128906 176.582031 161.441406 C 171.875 155.101562 172.171875 145.40625 177.75 137.179688 C 173.015625 138.28125 168.570312 140.089844 164.414062 142.613281 C 160.261719 145.132812 156.601562 148.238281 153.441406 151.929688 C 142.839844 164.511719 143.257812 180.53125 143.308594 187.089844 C 143.542969 215.523438 140.855469 272.457031 137.28125 348.796875 Z M 137.28125 348.796875 " fill-opacity="1" fill-rule="nonzero"/><path fill="#e75050" d="M 271.210938 311.019531 C 267.273438 312.34375 263.25 313.308594 259.144531 313.921875 C 255.035156 314.535156 250.90625 314.78125 246.753906 314.664062 C 242.601562 314.542969 238.492188 314.0625 234.425781 313.21875 C 230.359375 312.375 226.398438 311.179688 222.542969 309.632812 C 218.972656 308.160156 215.546875 306.402344 212.269531 304.363281 C 208.988281 302.320312 205.902344 300.019531 203.003906 297.464844 C 200.109375 294.910156 197.445312 292.132812 195.011719 289.136719 C 192.574219 286.136719 190.40625 282.957031 188.5 279.597656 C 184.589844 272.730469 181.941406 265.402344 180.554688 257.621094 C 179.101562 248.636719 178.890625 239.617188 179.921875 230.574219 C 181.589844 212.21875 185.949219 193.464844 195.730469 177.628906 C 197.820312 174.257812 200.128906 171.046875 202.65625 167.988281 C 205.183594 164.933594 207.902344 162.058594 210.820312 159.371094 C 213.734375 156.683594 216.820312 154.203125 220.070312 151.933594 C 223.320312 149.660156 226.710938 147.621094 230.238281 145.808594 C 232.042969 144.890625 233.878906 144.039062 235.734375 143.238281 C 236.71875 142.820312 236.265625 141.21875 235.265625 141.570312 C 231.539062 143.160156 227.933594 144.996094 224.457031 147.078125 C 220.976562 149.15625 217.65625 151.460938 214.488281 153.992188 C 211.324219 156.519531 208.339844 159.25 205.542969 162.183594 C 202.746094 165.113281 200.160156 168.222656 197.785156 171.503906 C 186.699219 186.839844 181.523438 205.359375 179.035156 223.882812 C 177.644531 233.089844 177.328125 242.335938 178.082031 251.617188 C 178.855469 259.878906 180.984375 267.777344 184.476562 275.308594 C 185.332031 277.15625 186.261719 278.964844 187.269531 280.734375 C 188.277344 282.5 189.363281 284.222656 190.519531 285.898438 C 191.679688 287.570312 192.90625 289.191406 194.203125 290.761719 C 195.5 292.328125 196.863281 293.835938 198.292969 295.289062 C 199.722656 296.738281 201.210938 298.125 202.757812 299.445312 C 204.304688 300.765625 205.910156 302.019531 207.566406 303.203125 C 209.222656 304.386719 210.925781 305.496094 212.679688 306.53125 C 214.433594 307.566406 216.226562 308.527344 218.0625 309.40625 C 219.898438 310.289062 221.765625 311.089844 223.671875 311.808594 C 225.578125 312.527344 227.507812 313.164062 229.46875 313.714844 C 231.429688 314.269531 233.40625 314.734375 235.40625 315.117188 C 237.40625 315.5 239.421875 315.792969 241.445312 316 C 243.472656 316.210938 245.503906 316.328125 247.539062 316.359375 C 249.574219 316.394531 251.609375 316.335938 253.640625 316.195312 C 255.671875 316.050781 257.691406 315.820312 259.703125 315.5 C 261.714844 315.183594 263.707031 314.78125 265.683594 314.289062 C 267.6875 313.804688 269.671875 313.222656 271.644531 312.621094 C 272.695312 312.269531 272.226562 310.667969 271.210938 311.019531 Z M 271.210938 311.019531 " fill-opacity="1" fill-rule="nonzero"/><path fill="#f49676" d="M 120.050781 214.636719 C 113.742188 219.144531 105.328125 224.917969 95.007812 231.324219 C 93.597656 232.1875 92.121094 232.914062 90.578125 233.507812 C 89.039062 234.105469 87.453125 234.554688 85.832031 234.863281 C 84.207031 235.171875 82.566406 235.332031 80.914062 235.339844 C 79.261719 235.351562 77.621094 235.214844 75.992188 234.929688 C 68.527344 233.753906 61.292969 231.746094 54.289062 228.90625 C 51.492188 227.671875 48.605469 226.722656 45.625 226.050781 C 47.042969 220.011719 47.917969 213.894531 48.246094 207.695312 C 54.253906 209.75 64.390625 211.484375 81.636719 212.136719 C 88.214844 205.945312 97.394531 197.46875 108.683594 187.640625 C 127.296875 171.4375 132.988281 167.765625 138.332031 169.285156 C 144.308594 170.953125 148.214844 178.710938 148.082031 185.203125 C 147.949219 190.945312 144.558594 197.085938 120.050781 214.636719 Z M 201.390625 247.527344 L 155.410156 288.023438 C 152.585938 290.46875 149.449219 292.40625 145.996094 293.832031 C 142.542969 295.257812 138.953125 296.105469 135.226562 296.367188 L 69.0625 301.507812 L 68.480469 301.625 C 69.863281 295.300781 70.636719 288.90625 70.800781 282.433594 L 71.402344 282.433594 C 82.621094 283.519531 91.550781 278.898438 94.773438 277.429688 C 101.535156 274.191406 112.386719 270.453125 131.203125 266.550781 L 174.796875 223.734375 C 176.476562 223.628906 178.152344 223.6875 179.824219 223.898438 C 181.492188 224.113281 183.128906 224.480469 184.730469 225 C 186.332031 225.523438 187.871094 226.1875 189.347656 227 C 190.824219 227.808594 192.210938 228.75 193.511719 229.824219 C 194.773438 230.917969 195.902344 232.140625 196.898438 233.484375 C 197.890625 234.832031 198.726562 236.269531 199.402344 237.800781 C 200.078125 239.332031 200.578125 240.914062 200.902344 242.558594 C 201.226562 244.199219 201.367188 245.855469 201.324219 247.527344 Z M 201.390625 247.527344 " fill-opacity="1" fill-rule="nonzero"/><path fill="#f3bd50" d="M 171.121094 173.40625 C 165.914062 155.683594 176.332031 140.800781 177.800781 138.816406 C 177.800781 138.265625 177.800781 137.714844 177.800781 137.148438 C 169.179688 140.136719 160.898438 143.878906 152.957031 148.375 C 139.355469 156.089844 127.222656 165.660156 116.5625 177.09375 L 146.144531 218.027344 L 182.875 191.328125 C 180.101562 188.960938 177.714844 186.253906 175.714844 183.207031 C 173.714844 180.160156 172.183594 176.890625 171.121094 173.40625 Z M 199.503906 187.089844 L 221.039062 248.613281 L 188.035156 273.308594 L 154.144531 226.484375 Z M 199.503906 187.089844 " fill-opacity="1" fill-rule="nonzero"/><path fill="#e75050" d="M 142.039062 186.753906 L 142.039062 233.308594 C 142.039062 233.539062 142.121094 233.738281 142.285156 233.898438 C 142.445312 234.0625 142.644531 234.144531 142.875 234.144531 C 143.105469 234.144531 143.300781 234.0625 143.464844 233.898438 C 143.628906 233.738281 143.707031 233.539062 143.707031 233.308594 L 143.707031 186.753906 C 143.707031 186.523438 143.628906 186.328125 143.464844 186.164062 C 143.300781 186.003906 143.105469 185.921875 142.875 185.921875 C 142.644531 185.921875 142.445312 186.003906 142.285156 186.164062 C 142.121094 186.328125 142.039062 186.523438 142.039062 186.753906 Z M 162.589844 224.902344 L 174.277344 211.316406 L 187.632812 195.816406 C 188.335938 195.015625 189.4375 196.25 188.753906 197.066406 L 166.414062 222.980469 C 164.527344 225.183594 162.539062 227.320312 160.753906 229.65625 C 159.734375 230.941406 159.953125 231.808594 160.753906 233.144531 C 161.554688 234.476562 162.222656 235.5625 162.976562 236.765625 C 165.796875 241.269531 168.785156 245.691406 171.921875 249.980469 C 175.414062 254.753906 179.101562 259.390625 182.941406 263.863281 C 183.644531 264.679688 182.40625 265.796875 181.707031 264.980469 C 174.445312 256.535156 167.835938 247.601562 161.890625 238.183594 L 159.871094 234.84375 C 159.113281 233.847656 158.605469 232.734375 158.351562 231.507812 C 158.339844 230.894531 158.457031 230.300781 158.699219 229.734375 C 158.941406 229.167969 159.285156 228.675781 159.734375 228.253906 Z M 162.589844 224.902344 " fill-opacity="1" fill-rule="nonzero"/><path fill="#807a27" d="M 30.933594 236.898438 L 22.402344 239.382812 L 12.148438 204.257812 L 18.828125 202.324219 L 17.375 197.316406 L 0.078125 202.324219 L 1.515625 207.328125 L 8.195312 205.394531 L 18.445312 240.433594 L 10.097656 242.886719 C 9.824219 242.96875 9.566406 243.078125 9.316406 243.214844 C 9.066406 243.355469 8.835938 243.515625 8.621094 243.703125 C 8.410156 243.890625 8.21875 244.097656 8.046875 244.324219 C 7.878906 244.554688 7.734375 244.796875 7.617188 245.054688 C 7.5 245.3125 7.414062 245.582031 7.355469 245.859375 C 7.292969 246.136719 7.265625 246.417969 7.265625 246.699219 C 7.265625 246.984375 7.296875 247.265625 7.359375 247.542969 C 7.417969 247.820312 7.507812 248.085938 7.625 248.34375 C 15.421875 265.464844 25.671875 275.328125 31 273.675781 C 36.324219 272.023438 39.164062 258.171875 36.007812 239.867188 C 35.953125 239.597656 35.871094 239.332031 35.761719 239.078125 C 35.648438 238.824219 35.511719 238.582031 35.351562 238.355469 C 35.191406 238.132812 35.007812 237.925781 34.804688 237.738281 C 34.597656 237.550781 34.375 237.386719 34.136719 237.246094 C 33.894531 237.105469 33.644531 236.992188 33.382812 236.90625 C 33.117188 236.820312 32.847656 236.761719 32.570312 236.730469 C 32.296875 236.699219 32.019531 236.699219 31.742188 236.726562 C 31.464844 236.753906 31.195312 236.8125 30.933594 236.898438 Z M 30.933594 236.898438 " fill-opacity="1" fill-rule="nonzero"/><path fill="#9bbbe4" d="M 54.941406 218.359375 C 54.355469 214.417969 53.292969 210.605469 51.75 206.929688 C 43.113281 205.933594 34.492188 206.058594 25.890625 207.3125 C 13.253906 209.164062 8.210938 212.503906 5.757812 215.339844 C 5.136719 216.058594 2.601562 219.160156 3.101562 219.628906 C 3.25 219.761719 3.601562 219.628906 4.570312 219.210938 C 6.210938 218.460938 7.769531 217.570312 9.246094 216.539062 C 8.199219 217.183594 7.320312 218.007812 6.609375 219.007812 C 5.898438 220.011719 5.414062 221.113281 5.15625 222.3125 C 4.703125 225.199219 6.207031 227.835938 6.558594 227.789062 C 6.90625 227.738281 6.171875 225.984375 7.125 224.132812 C 8.078125 222.28125 10.632812 221.027344 10.898438 221.296875 C 11.164062 221.5625 7.558594 223.714844 7.558594 226.96875 C 7.558594 230.222656 10.164062 232.324219 10.515625 232.160156 C 10.863281 231.992188 9.34375 230.074219 9.996094 227.9375 C 10.3125 227.183594 10.757812 226.519531 11.335938 225.941406 C 11.914062 225.363281 12.582031 224.914062 13.335938 224.601562 C 12.03125 226.015625 11.324219 227.683594 11.214844 229.605469 C 11.214844 232.125 12.417969 234.828125 13.367188 234.777344 C 14.671875 234.777344 13.953125 229.773438 17.34375 227.804688 C 19.296875 226.6875 22.183594 227.019531 22.351562 227.804688 C 22.519531 228.589844 21.316406 229.253906 20.082031 229.988281 C 20.082031 231.109375 20.082031 232.210938 19.996094 233.328125 C 23.023438 231.414062 26.265625 229.992188 29.726562 229.0625 C 33.183594 228.132812 36.703125 227.734375 40.28125 227.871094 C 45.523438 228.109375 50.453125 229.472656 55.074219 231.957031 C 55.679688 227.417969 55.636719 222.886719 54.941406 218.359375 Z M 73.304688 309.285156 C 70.449219 308.175781 67.5 307.429688 64.460938 307.046875 C 61.421875 306.667969 58.382812 306.660156 55.339844 307.03125 C 45.324219 308.382812 37.09375 314.1875 34.972656 311.902344 C 34.472656 311.367188 34.105469 310.132812 34.589844 309.617188 C 35.074219 309.101562 36.023438 309.617188 37.226562 309.398438 C 39.414062 308.933594 40.882812 306.0625 40.347656 305.546875 C 39.8125 305.027344 37.007812 307.664062 33.902344 306.832031 C 33.191406 306.652344 32.542969 306.339844 31.960938 305.886719 C 31.382812 305.4375 30.914062 304.890625 30.566406 304.242188 C 30.03125 302.824219 31.082031 302.242188 30.882812 300.304688 C 30.683594 298.371094 29.511719 298.238281 28.863281 296.035156 C 28.34375 294.367188 28.960938 293.882812 29.011719 290.511719 C 29.097656 286.671875 28.3125 286.273438 28.8125 284.953125 C 29.914062 281.984375 35.039062 281.050781 37.644531 280.617188 C 46.691406 279.082031 50.347656 281.96875 58.277344 281.484375 C 63.226562 281.132812 67.867188 279.753906 72.203125 277.34375 C 72.789062 282.25 73.222656 287.558594 73.421875 293.199219 C 73.621094 298.835938 73.65625 304.292969 73.40625 309.285156 Z M 73.304688 309.285156 " fill-opacity="1" fill-rule="nonzero"/></svg>